<svg xmlns="http://www.w3.org/2000/svg" viewBox="0 0 100.14 43.24"><defs><style>.cls-1{fill:#cf4137;}.cls-2{fill:#fff;}</style></defs><title>Asset 14</title><g id="Layer_2" data-name="Layer 2"><g id="Layer_1-2" data-name="Layer 1"><path class="cls-1" d="M0,42.56l.55-5.2L11.87,22.19c.2-.27.57-.8,1.12-1.49l1.22-1.59c.27-.35.6-.85,1-1.49a14.63,14.63,0,0,0,1-1.69,14,14,0,0,0,.62-1.67,8.63,8.63,0,0,0,.4-1.87,7.19,7.19,0,0,0,0-1,4.13,4.13,0,0,0-.52-2.24,2.16,2.16,0,0,0-2-1h-.32c-2.19.17-3.51,2.19-3.93,6L10.28,16H2.81L3,14.13a20.13,20.13,0,0,1,1.12-5A13.11,13.11,0,0,1,6.42,5.27a9.75,9.75,0,0,1,3.73-2.74,13.39,13.39,0,0,1,5-.9,9.68,9.68,0,0,1,7.74,2.89,8.76,8.76,0,0,1,2,6,14.93,14.93,0,0,1,0,1.79,11.32,11.32,0,0,1-.25,1.52,5.52,5.52,0,0,1-.32,1.37,9.45,9.45,0,0,1-.5,1.37c-.22.5-.4.9-.55,1.19a8.71,8.71,0,0,1-.7,1.24l-.7,1.12c-.15.22-.42.62-.82,1.14l-1,1.12c-.15.17-.42.57-.9,1.14l-.87,1.12L9.18,36.57H21.1l-.65,6Z"/><path class="cls-1" d="M37.32,36.62q3,0,3.58-5.22l1.84-17.64V11.36a3.21,3.21,0,0,0-.17-1.17,4.58,4.58,0,0,0-.27-.95,1.57,1.57,0,0,0-.77-.67,3,3,0,0,0-1.19-.25,2.76,2.76,0,0,0-1.44.37,2.86,2.86,0,0,0-1,.87,4.35,4.35,0,0,0-.6,1.32,10.08,10.08,0,0,0-.37,1.42c0,.4-.12.87-.17,1.44L34.83,31.39v1.47C34.83,35.37,35.6,36.62,37.32,36.62Zm-.7,6.59A9,9,0,0,1,29,40.05a10.5,10.5,0,0,1-2-6.59,17.42,17.42,0,0,1,0-1.92l1.87-18A14.33,14.33,0,0,1,32.59,5,10.92,10.92,0,0,1,41,1.76,8.91,8.91,0,0,1,48.62,5a10.65,10.65,0,0,1,1.89,6.47,15.18,15.18,0,0,1-.12,2.09l-1.87,18A13.71,13.71,0,0,1,44.79,40a11,11,0,0,1-8.19,3.18Z"/><path class="cls-1" d="M63.47,36.62c2,0,3.21-1.74,3.56-5.22L68.9,13.75a11.77,11.77,0,0,0,0-1.22V11.36a3.86,3.86,0,0,0-.17-1.17,4.58,4.58,0,0,0-.42-.95,1.69,1.69,0,0,0-.77-.67,3,3,0,0,0-1.19-.25,2.86,2.86,0,0,0-1.47.37,2.76,2.76,0,0,0-1,.87,4.35,4.35,0,0,0-.62,1.32,14.53,14.53,0,0,0-.35,1.42,4.07,4.07,0,0,1-.2,1.44L60.88,31.39v1.47C60.91,35.37,61.75,36.62,63.47,36.62Zm-.72,6.59a9,9,0,0,1-7.46-3.16,10.5,10.5,0,0,1-2-6.59,17.42,17.42,0,0,1,0-1.92l1.87-18A14.31,14.31,0,0,1,58.74,5a11,11,0,0,1,8.43-3.26A8.93,8.93,0,0,1,74.79,5a10.65,10.65,0,0,1,1.89,6.57,20.43,20.43,0,0,1-.12,2.09L74.64,31.54A13.71,13.71,0,0,1,71,40,11.07,11.07,0,0,1,62.75,43.21Z"/><path class="cls-1" d="M.17,42.34.72,37,12,21.91l1.14-1.49,1.22-1.59,1-1.52a14.63,14.63,0,0,0,1-1.69A12.44,12.44,0,0,0,17,14a8.34,8.34,0,0,0,.42-1.87,7,7,0,0,0,0-1,4.13,4.13,0,0,0-.52-2.24,2.19,2.19,0,0,0-2-1h-.35c-2.14.2-3.51,2.11-3.93,6.07l-.2,1.82H3l.2-1.92a20.4,20.4,0,0,1,1.12-5A13.31,13.31,0,0,1,6.69,5a9.23,9.23,0,0,1,3.63-2.49,13.39,13.39,0,0,1,5-.92A9.6,9.6,0,0,1,23,4.35a8.88,8.88,0,0,1,1.84,6v1.77a10.72,10.72,0,0,1-.25,1.52A5.26,5.26,0,0,1,24.31,15a7.71,7.71,0,0,1-.5,1.37l-.55,1.22a8.71,8.71,0,0,1-.7,1.22l-.7,1.09L21,21.12l-.82,1.07c-.12.2-.42.57-.87,1.17l-.87,1.09L9.36,36.39H21.25l-.62,5.95Z"/><path class="cls-1" d="M37.47,36.44c2,0,3.21-1.74,3.56-5.22l1.87-17.64V11.16A4,4,0,0,0,42.82,10a4.38,4.38,0,0,0-.52-.92,1.62,1.62,0,0,0-.77-.7,3,3,0,0,0-1.19-.22,2.86,2.86,0,0,0-1.47.37,2.71,2.71,0,0,0-1,.85,4.65,4.65,0,0,0-.62,1.32c-.15.55-.27,1-.35,1.42s-.12.9-.2,1.47L34.88,31.22v1.44C34.83,35.17,35.75,36.44,37.47,36.44ZM36.77,43a9,9,0,0,1-7.61-3.16,10.47,10.47,0,0,1-2-6.57,16.77,16.77,0,0,1,0-1.92l1.87-18a14.38,14.38,0,0,1,3.58-8.68A11.07,11.07,0,0,1,41.1,1.56a9,9,0,0,1,7.69,3.16,10.77,10.77,0,0,1,1.89,6.59,20.43,20.43,0,0,1-.12,2.09l-1.87,18A13.63,13.63,0,0,1,45,39.85,11,11,0,0,1,36.77,43Z"/><path class="cls-1" d="M63.65,36.44c2,0,3.21-1.74,3.56-5.22L69,13.58V11.16A5,5,0,0,0,69,10a4.38,4.38,0,0,0-.42-.92,1.74,1.74,0,0,0-.77-.7,3,3,0,0,0-1.19-.22,2.86,2.86,0,0,0-1.47.37,2.71,2.71,0,0,0-1,.85,4.65,4.65,0,0,0-.62,1.32,11.57,11.57,0,0,0-.35,1.42,4.2,4.2,0,0,1-.2,1.47L61.16,31.22v1.44C61.08,35.17,61.93,36.44,63.65,36.44ZM62.92,43a9,9,0,0,1-7.59-3.16,10.47,10.47,0,0,1-2-6.57V31.37l1.89-18a14.23,14.23,0,0,1,3.58-8.68,11.07,11.07,0,0,1,8.34-3.16,9,9,0,0,1,7.69,3.16,11,11,0,0,1,1.89,6.59,20.43,20.43,0,0,1-.12,2.09l-1.87,18a13.76,13.76,0,0,1-3.58,8.48A11,11,0,0,1,62.92,43Z"/><path class="cls-1" d="M.35,42.19l.55-5.3,11.3-15.18,1.14-1.49,1.19-1.59a17.41,17.41,0,0,0,1-1.49,14.63,14.63,0,0,0,1-1.69c.2-.47.42-1,.62-1.67a9,9,0,0,0,.4-1.87v-1A4.13,4.13,0,0,0,17,8.68a2.21,2.21,0,0,0-2-1h-.3c-2.31.2-3.51,2.29-3.93,6.07l-.2,1.79H3.16l.2-1.89a19.06,19.06,0,0,1,1.12-5A13.61,13.61,0,0,1,6.74,4.82,9.78,9.78,0,0,1,10.4,2.33a13.39,13.39,0,0,1,5-.9,9.58,9.58,0,0,1,7.84,2.71,9,9,0,0,1,1.94,6V12a11.32,11.32,0,0,1-.25,1.52,5.8,5.8,0,0,1-.32,1.37,8.31,8.31,0,0,1-.5,1.34l-.65,1.24a12.17,12.17,0,0,1-.7,1.24L22,19.82c-.15.22-.42.62-.82,1.14l-.82,1.09-.87,1.14-.87,1.12L9.53,36.19H21.42l-.62,6Z"/><path class="cls-1" d="M37.64,36.24c2,0,3.21-1.74,3.56-5.22L43,13.38V11a3.86,3.86,0,0,0-.17-1.17,4.58,4.58,0,0,0-.42-.95,1.69,1.69,0,0,0-.77-.67A2.64,2.64,0,0,0,40.48,8,2.86,2.86,0,0,0,39,8.33a2.76,2.76,0,0,0-1,.87,4.48,4.48,0,0,0-.62,1.29,10.82,10.82,0,0,0-.35,1.44,4.07,4.07,0,0,1-.2,1.44L35,31v1.47C35.08,35,35.93,36.24,37.64,36.24Zm-.72,6.59a9,9,0,0,1-7.59-3.16,10.5,10.5,0,0,1-2-6.59,17,17,0,0,1,0-1.92l1.87-18a14.31,14.31,0,0,1,3.58-8.66,11,11,0,0,1,8.46-3.16A8.93,8.93,0,0,1,49,4.55a10.65,10.65,0,0,1,1.89,6.57,20.43,20.43,0,0,1-.12,2.09l-1.87,18a13.71,13.71,0,0,1-3.68,8.48A11.07,11.07,0,0,1,36.92,42.84Z"/><path class="cls-1" d="M63.79,36.24q3.06,0,3.58-5.22l1.84-17.64V11A5,5,0,0,0,69,9.82a4.58,4.58,0,0,0-.42-.95,1.64,1.64,0,0,0-.8-.67A2.49,2.49,0,0,0,66.66,8a2.81,2.81,0,0,0-1.47.37,3.11,3.11,0,0,0-1,.87,5.25,5.25,0,0,0-.6,1.29,8,8,0,0,0-.35,1.44,4.07,4.07,0,0,1-.2,1.44L61.21,31v1.47C61.26,35,62.2,36.24,63.79,36.24Zm-.7,6.59a9.06,9.06,0,0,1-7.61-3.16,10.65,10.65,0,0,1-2-6.59V31.17l1.87-18A14.33,14.33,0,0,1,59,4.55a11,11,0,0,1,8.46-3.16,9,9,0,0,1,7.69,3.16,10.82,10.82,0,0,1,2,6.57A20.43,20.43,0,0,1,77,13.2l-1.87,18a13.83,13.83,0,0,1-3.68,8.48A11.12,11.12,0,0,1,63.1,42.84Z"/><path class="cls-1" d="M.52,42l.55-5.32L12.44,21.54l1-1.59,1.22-1.59c.27-.37.62-.87,1-1.52a11.25,11.25,0,0,0,.95-1.69,12.44,12.44,0,0,0,.72-1.57,10,10,0,0,0,.4-1.87v-1a3.93,3.93,0,0,0-.55-2.24,2.16,2.16,0,0,0-2-1h-.35q-3.31.27-4,6l-.17,1.82H3.33l.2-1.92a18.31,18.31,0,0,1,1.12-5A13.24,13.24,0,0,1,6.92,4.62a9.33,9.33,0,0,1,3.66-2.49,12.91,12.91,0,0,1,5-.92A9.53,9.53,0,0,1,23.36,4a8.88,8.88,0,0,1,2,6v1.77a6.67,6.67,0,0,1-.25,1.52l-.32,1.37a11.84,11.84,0,0,1-.5,1.37c-.22.5-.42.9-.55,1.22a12.29,12.29,0,0,1-.7,1.22l-.7,1.12c-.15.22-.42.62-.85,1.17l-.8,1.07L19.81,23l-.87,1.09L9.7,36H21.6L21,42Z"/><path class="cls-1" d="M37.82,36.07c2,0,3.21-1.74,3.56-5.22L43.22,13.2V10.79A5,5,0,0,0,43,9.62a5.25,5.25,0,0,0-.42-.95A1.69,1.69,0,0,0,41.85,8a3,3,0,0,0-1.19-.22,2.86,2.86,0,0,0-1.47.37,2.71,2.71,0,0,0-1,.85,4.65,4.65,0,0,0-.62,1.32,11.57,11.57,0,0,0-.27,1.42,4.2,4.2,0,0,1-.2,1.47L35.28,30.85v1.44C35.26,34.88,36.1,36.07,37.82,36.07Zm-.72,6.57a9,9,0,0,1-7.59-3.16,10.47,10.47,0,0,1-2-6.57V31L29.41,13a14.23,14.23,0,0,1,3.68-8.68,11.07,11.07,0,0,1,8.36-3.16,9,9,0,0,1,7.69,3.16A11,11,0,0,1,51,10.94,20.43,20.43,0,0,1,50.91,13L49,31a13.83,13.83,0,0,1-3.68,8.48A11,11,0,0,1,37.1,42.64Z"/><path class="cls-1" d="M64,36.07q3.06,0,3.58-5.22L69.39,13.2V12a9.53,9.53,0,0,0,0-1.19,4.06,4.06,0,0,0-.15-1.17,7.89,7.89,0,0,0-.42-.95A1.77,1.77,0,0,0,68,8a2.84,2.84,0,0,0-1.19-.22,2.76,2.76,0,0,0-1.44.37,3,3,0,0,0-1,.85,5.47,5.47,0,0,0-.6,1.32,8.29,8.29,0,0,0-.35,1.42c0,.4-.15.9-.2,1.47L61.41,30.85v1.44C61.43,34.88,62.2,36.07,64,36.07Zm-.7,6.57a9,9,0,0,1-7.61-3.16,10.62,10.62,0,0,1-2-6.57V31L55.56,13a14.41,14.41,0,0,1,3.61-8.68,11.07,11.07,0,0,1,8.46-3.16,9,9,0,0,1,7.66,3.16,10.8,10.8,0,0,1,1.84,6.59A20.43,20.43,0,0,1,77,13L75.12,31a13.81,13.81,0,0,1-3.66,8.48A11,11,0,0,1,63.27,42.64Z"/><path class="cls-1" d="M.67,41.82l.57-5.32,11.2-15.15q.3-.45,1.12-1.49l1.37-1.59a18.34,18.34,0,0,0,1-1.52,13.91,13.91,0,0,0,.9-1.77c.22-.5.42-1,.65-1.67a10.92,10.92,0,0,0,.4-1.87v-1a4.11,4.11,0,0,0-.5-2.11,2.16,2.16,0,0,0-2-1h-.37c-2.19.17-3.51,2.19-3.93,6l-.2,1.79H3.61l.17-1.89a19,19,0,0,1,1.14-5A13.06,13.06,0,0,1,7.19,4.42a9.38,9.38,0,0,1,3.66-2.49,13.39,13.39,0,0,1,5-.9,9.55,9.55,0,0,1,7.71,2.74,8.76,8.76,0,0,1,1.94,6v1.77a6.91,6.91,0,0,1-.25,1.52l-.35,1.39a11.59,11.59,0,0,1-.5,1.34c-.25.52-.42.92-.55,1.22a12.17,12.17,0,0,1-.7,1.24l-.75,1.09a12.44,12.44,0,0,1-.82,1.17l-.8,1.09-.87,1.14-.85,1.12L10,35.82H21.77l-.62,6Z"/><path class="cls-1" d="M38,35.87q3.06,0,3.58-5.22L43.39,13V10.59a4.83,4.83,0,0,0-.17-1.14,6.44,6.44,0,0,0-.42-.95,1.77,1.77,0,0,0-.8-.67,2.49,2.49,0,0,0-1.17-.25A2.81,2.81,0,0,0,39.36,8a3.11,3.11,0,0,0-1,.87,5.25,5.25,0,0,0-.6,1.29,8,8,0,0,0-.35,1.44,14,14,0,0,1-.2,1.44L35.38,30.65v1.47C35.43,34.63,36.28,35.87,38,35.87Zm-.65,6.59a9,9,0,0,1-7.61-3.16,10.65,10.65,0,0,1-2-6.59V30.8l1.87-18a14.26,14.26,0,0,1,3.61-8.66A11,11,0,0,1,41.63,1a8.91,8.91,0,0,1,7.66,3.16,10.67,10.67,0,0,1,1.92,6.57,20.43,20.43,0,0,1,0,2.09l-1.87,18a13.91,13.91,0,0,1-3.68,8.48A11.12,11.12,0,0,1,37.32,42.46Z"/><path class="cls-1" d="M64.14,35.87c2,0,3.21-1.74,3.58-5.22L69.67,13V10.59a3.16,3.16,0,0,0-.17-1.14,3.56,3.56,0,0,0-.42-.95,1.57,1.57,0,0,0-.77-.67,2.64,2.64,0,0,0-1.12-.32,2.76,2.76,0,0,0-1.44.37,3.11,3.11,0,0,0-1,.87,5.25,5.25,0,0,0-.6,1.29,8,8,0,0,0-.35,1.44,14.51,14.51,0,0,0-.2,1.44L61.75,30.57V32C61.61,34.63,62.45,35.87,64.14,35.87Zm-.7,6.59a9,9,0,0,1-7.61-3.16,10.5,10.5,0,0,1-2-6.59,17,17,0,0,1,0-1.92l1.87-18a14.26,14.26,0,0,1,3.61-8.66A10.92,10.92,0,0,1,67.8,1a8.91,8.91,0,0,1,7.66,3.16,10.65,10.65,0,0,1,1.89,6.57,15.18,15.18,0,0,1-.12,2.09l-1.87,18a13.76,13.76,0,0,1-3.68,8.48A11,11,0,0,1,63.45,42.46Z"/><path class="cls-1" d="M.85,41.64l.57-5.32,11.3-15.15c.2-.3.57-.8,1.12-1.52l1.22-1.57c.27-.37.62-.87,1-1.52A14.63,14.63,0,0,0,17,15a12.44,12.44,0,0,0,.62-1.67,8.41,8.41,0,0,0,.42-1.87v-1a4.13,4.13,0,0,0-.55-2.24,2.16,2.16,0,0,0-2-1h-.32c-2.19.17-3.51,2.19-3.93,6L11.12,15H3.66l.2-1.89A19.28,19.28,0,0,1,5,8.1,12.44,12.44,0,0,1,7.46,4.3,9.23,9.23,0,0,1,11.1,1.81a13.09,13.09,0,0,1,5-.92,9.58,9.58,0,0,1,7.64,2.69,8.86,8.86,0,0,1,1.94,6.07,14.93,14.93,0,0,1,0,1.77,3.64,3.64,0,0,1-.22,1.52,10.06,10.06,0,0,0-.35,1.37,6.64,6.64,0,0,1-.5,1.37L24,16.89a9.53,9.53,0,0,1-.67,1.22l-.72,1.12-.82,1.17L21,21.47l-.9,1.17-.85,1.09L10,35.65h12l-.65,6Z"/><path class="cls-1" d="M38.14,35.7c2,0,3.21-1.74,3.58-5.22l1.84-17.64V11.61a9.53,9.53,0,0,0,0-1.19,4.06,4.06,0,0,0-.15-1.17A4.68,4.68,0,0,0,43,8.3a1.57,1.57,0,0,0-.67-.67,2.84,2.84,0,0,0-1.19-.12,3,3,0,0,0-1.44.35,3.43,3.43,0,0,0-1,.87,5,5,0,0,0-.6,1.27,8.29,8.29,0,0,0-.35,1.42c0,.4-.15.9-.2,1.47L35.68,30.52V32C35.6,34.43,36.45,35.7,38.14,35.7Zm-.7,6.64a9,9,0,0,1-7.59-3.23,10.47,10.47,0,0,1-2-6.57,17.42,17.42,0,0,1,0-1.94l2-17.94A14.41,14.41,0,0,1,33.46,4,10.92,10.92,0,0,1,41.8.81,8.91,8.91,0,0,1,49.46,4a10.72,10.72,0,0,1,1.89,6.59,20.88,20.88,0,0,1,0,2.09L49.46,30.6a13.71,13.71,0,0,1-3.68,8.48A10.92,10.92,0,0,1,37.45,42.34Z"/><path class="cls-1" d="M64.32,35.7q3,0,3.58-5.22l1.77-17.64V10.42a3.31,3.31,0,0,0,0-1.17,4.58,4.58,0,0,0-.42-.95,1.57,1.57,0,0,0-.77-.67,3,3,0,0,0-1.29-.12,2.94,2.94,0,0,0-1.44.35,3.13,3.13,0,0,0-1,.87,4.35,4.35,0,0,0-.6,1.32,12.22,12.22,0,0,0-.37,1.42c0,.4-.12.9-.17,1.47L61.73,30.57V32C61.75,34.43,62.63,35.7,64.32,35.7Zm-.7,6.64A9,9,0,0,1,56,39.18a10.47,10.47,0,0,1-2-6.57,17.42,17.42,0,0,1,0-1.94l1.87-17.94A14.41,14.41,0,0,1,59.71,4,10.9,10.9,0,0,1,67.95.81,8.93,8.93,0,0,1,75.64,4a10.72,10.72,0,0,1,1.89,6.59,15.63,15.63,0,0,1-.12,2.09L75.54,30.6a13.71,13.71,0,0,1-3.68,8.48A10.92,10.92,0,0,1,63.62,42.34Z"/><path class="cls-1" d="M1,41.44l.55-5.32L12.89,21q.3-.45,1.12-1.49l1.22-1.59c.27-.35.6-.87,1-1.52a14.58,14.58,0,0,0,1-1.67A15.77,15.77,0,0,0,17.84,13a8.86,8.86,0,0,0,.4-1.89,6.84,6.84,0,0,0,0-1,4.11,4.11,0,0,0-.52-2.21,2.16,2.16,0,0,0-2-1h-.32c-2.19.2-3.51,2.21-3.93,6.07l-.2,1.79H3.83L4,12.93A20.13,20.13,0,0,1,5.15,8,13.11,13.11,0,0,1,7.46,4.1,9.48,9.48,0,0,1,11.1,1.61a13,13,0,0,1,5-.9A9.58,9.58,0,0,1,23.89,3.4a8.88,8.88,0,0,1,1.94,6,14.28,14.28,0,0,1,0,1.77,10.18,10.18,0,0,1-.25,1.52,5.72,5.72,0,0,1-.32,1.39,8.31,8.31,0,0,1-.5,1.34c-.22.5-.4.92-.55,1.22a8.71,8.71,0,0,1-.7,1.22L22.82,19c-.15.25-.42.62-.82,1.17l-.8,1.09-1,1.14c-.47.6-.75,1-.87,1.09L10.2,35.45H22.12l-.65,6Z"/><path class="cls-1" d="M38.32,35.5q3,0,3.58-5.22l1.84-17.64V10.22A3.41,3.41,0,0,0,43.57,9a4.38,4.38,0,0,0-.42-.92,1.57,1.57,0,0,0-.67-.62,2.64,2.64,0,0,0-1.19-.25,2.76,2.76,0,0,0-1.47.25,2.86,2.86,0,0,0-1,.87,4.18,4.18,0,0,0-.6,1.29,12.22,12.22,0,0,0-.37,1.42c0,.42-.12.9-.17,1.47L35.8,30.2v1.47C35.75,34.25,36.62,35.5,38.32,35.5Zm-.7,6.59A9,9,0,0,1,30,38.93a10.55,10.55,0,0,1-2-6.54,17,17,0,0,1,0-1.92l2-18a14.26,14.26,0,0,1,3.61-8.66A10.92,10.92,0,0,1,42,.64,8.91,8.91,0,0,1,49.76,3.8a10.65,10.65,0,0,1,1.89,6.57,15.18,15.18,0,0,1-.12,2.09l-1.87,18A13.76,13.76,0,0,1,46,38.91,11,11,0,0,1,37.62,42.09Z"/><path class="cls-1" d="M64.49,35.5c2,0,3.21-1.74,3.56-5.22l1.87-17.64a11.77,11.77,0,0,0,0-1.22V10.22A4.13,4.13,0,0,0,69.74,9a4.38,4.38,0,0,0-.42-.92,1.69,1.69,0,0,0-.67-.62,2.64,2.64,0,0,0-1.19-.25A2.86,2.86,0,0,0,66,7.63a2.76,2.76,0,0,0-1,.87,4.18,4.18,0,0,0-.62,1.29c-.15.55-.27,1-.35,1.42a7.28,7.28,0,0,1-.2,1.47L62,30.32v1.47C61.93,34.25,62.77,35.5,64.49,35.5Zm-.72,6.59a9,9,0,0,1-7.59-3.16,10.55,10.55,0,0,1-2-6.54,17,17,0,0,1,0-1.92l2-18A14.26,14.26,0,0,1,59.71,3.8,11,11,0,0,1,68.12.64,8.93,8.93,0,0,1,75.81,3.8a10.65,10.65,0,0,1,1.89,6.57,20.43,20.43,0,0,1-.12,2.09l-1.87,18a13.76,13.76,0,0,1-3.56,8.48A11.07,11.07,0,0,1,63.77,42.09Z"/><path class="cls-1" d="M1.19,41.27l.55-5.32L13,20.77l1.14-1.49,1.22-1.59c.25-.35.6-.85,1-1.49a14.63,14.63,0,0,0,1-1.69A14,14,0,0,0,18,12.83a8.34,8.34,0,0,0,.4-1.87,7,7,0,0,0,0-1,4.13,4.13,0,0,0-.52-2.24,2.19,2.19,0,0,0-2-1H15.6c-2.21.17-3.51,2.19-3.93,6l-.2,1.79H4l.2-1.89a20.4,20.4,0,0,1,1.12-5A13,13,0,0,1,7.71,3.92a9.23,9.23,0,0,1,3.63-2.49,12.91,12.91,0,0,1,5-.92A9.58,9.58,0,0,1,24.06,3.2,9,9,0,0,1,26,9.27,14.93,14.93,0,0,1,26,11a11.32,11.32,0,0,1-.25,1.52,5.52,5.52,0,0,1-.32,1.37,8.51,8.51,0,0,1-.5,1.37l-.55,1.22a10.4,10.4,0,0,1-.7,1.22L23,18.85l-.92,1.09L21.25,21l-.87,1.17-.87,1.09-9.13,12h12l-.75,6Z"/><path class="cls-1" d="M38.49,35.3c2,0,3.21-1.74,3.56-5.22l1.87-17.59V10a4,4,0,0,0-.17-1.17,4.58,4.58,0,0,0-.42-.95,1.57,1.57,0,0,0-.77-.67A3,3,0,0,0,41.35,7a3.11,3.11,0,0,0-1.47.35,3,3,0,0,0-1,.87,4.35,4.35,0,0,0-.62,1.32c-.15.55-.27,1-.35,1.42a6.85,6.85,0,0,1-.2,1.44L35.9,30v1.47C35.93,34.06,36.8,35.3,38.49,35.3Zm-.7,6.59a9,9,0,0,1-7.61-3.16,10.5,10.5,0,0,1-2-6.59,17.42,17.42,0,0,1,0-1.92l1.87-17.94A14.53,14.53,0,0,1,33.66,3.6,11,11,0,0,1,42.12.44,8.93,8.93,0,0,1,49.76,3.6a10.72,10.72,0,0,1,1.89,6.59,15.63,15.63,0,0,1-.12,2.09L49.76,30.22a13.71,13.71,0,0,1-3.68,8.48A11,11,0,0,1,37.79,41.89Z"/><path class="cls-1" d="M64.69,35.3c2,0,3.21-1.74,3.56-5.22l1.82-17.59V10.09a5,5,0,0,0-.17-1.17,4.58,4.58,0,0,0-.22-1,1.69,1.69,0,0,0-.77-.67A3,3,0,0,0,67.7,7a3.11,3.11,0,0,0-1.47.35,3,3,0,0,0-1,.87,4.35,4.35,0,0,0-.62,1.32A11.57,11.57,0,0,0,64.29,11a4,4,0,0,1-.2,1.44L62.2,30.07v1.47C62.2,34.06,62.95,35.3,64.69,35.3ZM64,41.89a9,9,0,0,1-7.59-3.16,10.5,10.5,0,0,1-2-6.59V30.22l1.89-17.94A14.23,14.23,0,0,1,59.89,3.6,11,11,0,0,1,68.3.44,8.93,8.93,0,0,1,76,3.6a10.9,10.9,0,0,1,1.89,6.59,12.36,12.36,0,0,1-.12,2.09L75.89,30.22a13.83,13.83,0,0,1-3.73,8.48,11.07,11.07,0,0,1-8.21,3.18Z"/><path class="cls-1" d="M1.37,41.07l.55-5.32,11.3-15.15,1.14-1.49,1.19-1.64c.27-.35.62-.87,1-1.52a12.81,12.81,0,0,0,1-1.69c.2-.47.42-1,.62-1.64a8.86,8.86,0,0,0,.4-1.89v-1a4.25,4.25,0,0,0-.47-2.21,2.21,2.21,0,0,0-2-1h-.35c-2.21.2-3.51,2.21-3.93,6.07l-.2,1.79H4.18l.3-1.92a19.26,19.26,0,0,1,1.12-5A13.81,13.81,0,0,1,7.86,3.65a9.78,9.78,0,0,1,3.66-2.49,12.94,12.94,0,0,1,5-.9A9.58,9.58,0,0,1,24.23,3a9,9,0,0,1,1.94,6v1.77a10.72,10.72,0,0,1-.25,1.52,5.72,5.72,0,0,1-.32,1.39,8.31,8.31,0,0,1-.5,1.34l-.55,1.22a12.29,12.29,0,0,1-.8,1.14l-.7,1.12c-.15.25-.42.62-.82,1.17l-.82,1.09L20.55,22c-.47.6-.75,1-.87,1.09l-9.13,12H22.39l-.62,6Z"/><path class="cls-1" d="M38.66,35.12c2,0,3.21-1.74,3.56-5.22l1.84-17.64V9.85a4,4,0,0,0-.17-1.17,4.38,4.38,0,0,0-.42-.92,1.92,1.92,0,0,0-.77-.7,3,3,0,0,0-1.19-.22A2.86,2.86,0,0,0,40,7.21a3,3,0,0,0-1,.85,4.65,4.65,0,0,0-.62,1.32,11.57,11.57,0,0,0-.35,1.42,4.13,4.13,0,0,1-.2,1.47L36.18,29.9v1.47C36.1,33.86,36.95,35.12,38.66,35.12Zm-.72,6.59a9,9,0,0,1-7.59-3.16,10.55,10.55,0,0,1-2-6.59,16.77,16.77,0,0,1,0-1.92l1.87-18A14.38,14.38,0,0,1,33.84,3.4,11.07,11.07,0,0,1,42.3.27,9,9,0,0,1,50,3.4,10.77,10.77,0,0,1,51.88,10a20.43,20.43,0,0,1-.12,2.09L49.89,30a13.76,13.76,0,0,1-3.68,8.48A11.07,11.07,0,0,1,37.94,41.72Z"/><path class="cls-1" d="M64.81,35.12q3.06,0,3.58-5.22l1.84-17.64V9.85a5,5,0,0,0-.17-1.17,4.38,4.38,0,0,0-.4-.92,1.82,1.82,0,0,0-.8-.7,3.11,3.11,0,0,0-2.64.15,3.38,3.38,0,0,0-1,.85,5.47,5.47,0,0,0-.6,1.32,8.29,8.29,0,0,0-.35,1.42,13.49,13.49,0,0,1-.2,1.47L62.35,29.9v1.47C62.2,33.86,63.12,35.12,64.81,35.12Zm-.7,6.59a9.06,9.06,0,0,1-7.61-3.16,10.7,10.7,0,0,1-2-6.59V30l1.87-18A14.41,14.41,0,0,1,60,3.4,11.07,11.07,0,0,1,68.47.27,9,9,0,0,1,76.16,3.4,11,11,0,0,1,78.05,10a20.43,20.43,0,0,1-.12,2.09L76.06,30a13.91,13.91,0,0,1-3.68,8.48A11.12,11.12,0,0,1,64.12,41.72Z"/><path class="cls-1" d="M1.54,40.9l.55-5.32L13.39,20.4q.32-.4,1.12-1.49c.55-.7,1-1.22,1.22-1.59s.62-.85,1-1.49a11.25,11.25,0,0,0,.95-1.69,13.78,13.78,0,0,0,.65-1.64,10,10,0,0,0,.4-1.87v-1a3.93,3.93,0,0,0-.55-2.24,2.16,2.16,0,0,0-2-1h-.3q-3.33.27-4,6.07l-.17,1.79H4.35l.3-1.79a18.09,18.09,0,0,1,1.12-5A12.91,12.91,0,0,1,8,3.65,9.33,9.33,0,0,1,11.69,1a12.91,12.91,0,0,1,5-.92,9.6,9.6,0,0,1,7.71,2.79,8.93,8.93,0,0,1,2,6v1.79a6.91,6.91,0,0,1-.25,1.52c-.1.52-.22,1-.32,1.37a13.78,13.78,0,0,1-.5,1.37c-.22.5-.42.9-.55,1.19a12.17,12.17,0,0,1-.7,1.24c-.32.5-.57.87-.7,1.12a9.9,9.9,0,0,1-.85,1.17l-.8,1.07-.87,1.14L19.9,23,10.72,34.88H22.62l-.62,6Z"/><path class="cls-1" d="M38.84,34.88c2,0,3.21-1.74,3.56-5.22L44.24,12V9.62a5,5,0,0,0-.17-1.17,4.58,4.58,0,0,0-.3-.95A1.69,1.69,0,0,0,43,6.84a3,3,0,0,0-1.19-.22A3.11,3.11,0,0,0,40.33,7a3,3,0,0,0-1,.87,4.35,4.35,0,0,0-.62,1.32,11.57,11.57,0,0,0-.35,1.42,4,4,0,0,1-.2,1.44L36.35,29.65v1.47C36.28,33.68,37.12,34.88,38.84,34.88Zm-.72,6.59a9,9,0,0,1-7.59-3.16,10.5,10.5,0,0,1-2-6.59V29.8l1.89-17.94A14.23,14.23,0,0,1,34,3.18,11,11,0,0,1,42.47,0,9,9,0,0,1,50.16,3.2,10.9,10.9,0,0,1,52.05,9.8a12.36,12.36,0,0,1-.12,2.09l-1.87,18a13.83,13.83,0,0,1-3.68,8.48,11.07,11.07,0,0,1-8.26,3.13Z"/><path class="cls-1" d="M65,34.88q3.06,0,3.58-5.22L70.41,12V10.82a9.53,9.53,0,0,0,0-1.19,4.06,4.06,0,0,0-.15-1.17,6.44,6.44,0,0,0-.32-.95,1.77,1.77,0,0,0-.8-.67,2.84,2.84,0,0,0-1.19-.22A3,3,0,0,0,66.51,7a3.43,3.43,0,0,0-1,.87,5,5,0,0,0-.6,1.32,8.29,8.29,0,0,0-.35,1.42c0,.4-.15.9-.2,1.44L62.53,29.65v1.47C62.45,33.68,63.3,34.88,65,34.88Zm-.7,6.59a9,9,0,0,1-7.61-3.16,10.65,10.65,0,0,1-1.94-6.54V29.85L56.6,11.91a14.41,14.41,0,0,1,3.61-8.68A11,11,0,0,1,68.65,0,8.91,8.91,0,0,1,76.31,3.2,10.75,10.75,0,0,1,78.23,9.8a12.36,12.36,0,0,1-.12,2.09l-1.89,18a13.81,13.81,0,0,1-3.66,8.48,11.12,11.12,0,0,1-8.26,3.13Z"/><path class="cls-2" d="M1.54,40.9l.55-5.32,11.3-15.15,1.12-1.49,1.22-1.47c.27-.35.62-.87,1-1.52a10.15,10.15,0,0,0,.95-1.69,13.31,13.31,0,0,0,.65-1.77,10.7,10.7,0,0,0,.4-1.89v-1a4,4,0,0,0-.55-2.24,2.16,2.16,0,0,0-2-1h-.3c-2.21.22-3.51,2.24-4,6.1l-.17,1.79H4.35l.3-1.79a18.29,18.29,0,0,1,1.12-5A13.24,13.24,0,0,1,8,3.65,9.58,9.58,0,0,1,11.69,1a13.39,13.39,0,0,1,5-.92,9.63,9.63,0,0,1,7.71,2.81,8.88,8.88,0,0,1,2,6v1.77a6.67,6.67,0,0,1-.25,1.52l-.32,1.37a10.38,10.38,0,0,1-.5,1.37l-.55,1.22a12.29,12.29,0,0,1-.8,1.32l-.7,1.12q-.4.55-.85,1.07c-.4.55-.67.9-.8,1.09l-.87,1.14L19.9,23,10.72,34.88H22.62l-.62,6Z"/><path class="cls-2" d="M38.12,41.52a9,9,0,0,1-7.59-3.13,10.55,10.55,0,0,1-2-6.59V29.88l1.89-18A14.23,14.23,0,0,1,34,3.23,11.07,11.07,0,0,1,42.47,0,9,9,0,0,1,50.16,3.2,11,11,0,0,1,52.05,9.8a20.43,20.43,0,0,1-.12,2.09l-1.87,18a13.91,13.91,0,0,1-3.68,8.48A11.07,11.07,0,0,1,38.12,41.52Zm.72-6.64c2,0,3.21-1.74,3.56-5.22L44.24,12V9.6a5,5,0,0,0-.17-1.17,4.38,4.38,0,0,0-.3-.92,1.92,1.92,0,0,0-.77-.7,3,3,0,0,0-1.19-.22A2.86,2.86,0,0,0,40.33,7a3,3,0,0,0-1,.85,4.65,4.65,0,0,0-.62,1.32,11.57,11.57,0,0,0-.35,1.42,4.13,4.13,0,0,1-.2,1.47L36.35,29.65v1.44C36.28,33.68,37.12,34.88,38.84,34.88Z"/><path class="cls-2" d="M64.29,41.52a9,9,0,0,1-7.61-3.13,10.7,10.7,0,0,1-1.94-6.59V29.88l1.87-18a14.41,14.41,0,0,1,3.61-8.68A11.07,11.07,0,0,1,68.65,0,9,9,0,0,1,76.31,3.2,10.8,10.8,0,0,1,78.23,9.8a20.43,20.43,0,0,1-.12,2.09l-1.89,18a13.88,13.88,0,0,1-3.66,8.48A11.1,11.1,0,0,1,64.29,41.52Zm.7-6.64q3.06,0,3.58-5.22L70.41,12V10.79a9.53,9.53,0,0,0,0-1.19,4.06,4.06,0,0,0-.15-1.17,6.17,6.17,0,0,0-.32-.92,2,2,0,0,0-.8-.7,2.84,2.84,0,0,0-1.19-.22A2.76,2.76,0,0,0,66.51,7a3.38,3.38,0,0,0-1,.85,5.47,5.47,0,0,0-.6,1.32,8.29,8.29,0,0,0-.35,1.42c0,.42-.15.9-.2,1.47L62.53,29.65v1.44C62.45,33.68,63.3,34.88,65,34.88Z"/><path class="cls-1" d="M85.91,43.24,89.39,9.81l-6.51,2.06L83.5,6a47.53,47.53,0,0,0,4.73-2A13.5,13.5,0,0,0,92,1.42h6l-4.3,41.82Z"/><path class="cls-1" d="M86.12,43.06l3.5-33.26-6.51,2.06L83.7,6a45.09,45.09,0,0,0,4.73-2,13.12,13.12,0,0,0,3.81-2.57h6.07L93.94,43.09Z"/><path class="cls-1" d="M86.32,42.88l3.5-33.44L83.32,11.5l.62-5.84a50.26,50.26,0,0,0,4.73-2,14.48,14.48,0,0,0,3.81-2.57h6L94.14,42.88Z"/><path class="cls-1" d="M86.56,42.73,90,9.29l-6.48,2.06.59-5.81c1.41-.51,3-1.21,4.73-2A14.07,14.07,0,0,0,92.68.93h6l-4.37,41.8Z"/><path class="cls-1" d="M86.76,42.57,90.29,9.22l-6.51,2.06.59-5.81a51.29,51.29,0,0,0,4.73-2A13.66,13.66,0,0,0,92.86.93h6.07L94.56,42.57Z"/><path class="cls-1" d="M87,42.42,90.47,9,84,11l.62-5.84a50.26,50.26,0,0,0,4.73-2A13.89,13.89,0,0,0,93.11.6h6L94.79,42.24Z"/><path class="cls-1" d="M87.2,42.27,90.67,8.83l-6.51,2.06L84.78,5a47.53,47.53,0,0,0,4.73-2A14.07,14.07,0,0,0,93.32.44h6L95,42.09Z"/><path class="cls-1" d="M87.4,42.09,90.9,8.65,84.4,10.71,85,4.87a45.09,45.09,0,0,0,4.73-2A13.66,13.66,0,0,0,93.53.26H99.6L95.22,41.91Z"/><path class="cls-1" d="M87.71,41.93,91.21,8.5,84.7,10.55l.44-5.74c1.41-.51,3-1.21,4.73-2A14.48,14.48,0,0,0,93.68.21H99.8L95.43,41.93Z"/><path class="cls-1" d="M87.84,41.78,91.31,8.34,84.83,10.4l.59-5.74c1.41-.51,3-1.21,4.73-2A14.07,14.07,0,0,0,94,.06h6L95.64,41.7Z"/><path class="cls-2" d="M87.84,41.75,91.31,8.32l-6.48,2.06.59-5.71a47.53,47.53,0,0,0,4.86-2.08A13.48,13.48,0,0,0,94.09,0h6L95.76,41.67Z"/></g></g></svg>