<svg xmlns="http://www.w3.org/2000/svg" viewBox="0 0 42.11 17.38"><defs><style>.cls-1{fill:#cf4137;}.cls-2{fill:#fff;}</style></defs><title>Asset 17</title><g id="Layer_2" data-name="Layer 2"><g id="Layer_1-2" data-name="Layer 1"><g id="Layer_2-2" data-name="Layer 2"><g id="Layer_1-2-2" data-name="Layer 1-2"><path class="cls-1" d="M0,17.11.22,15l4.55-6.1c.08-.11.23-.32.45-.6l.49-.64c.11-.14.24-.34.41-.6a5.88,5.88,0,0,0,.39-.68,5.61,5.61,0,0,0,.25-.67A3.47,3.47,0,0,0,6.92,5a2.89,2.89,0,0,0,0-.4,1.66,1.66,0,0,0-.21-.9.87.87,0,0,0-.79-.39H5.79c-.88.07-1.41.88-1.58,2.43l-.08.72h-3l.08-.76a8.09,8.09,0,0,1,.45-2,5.27,5.27,0,0,1,.92-1.56A3.92,3.92,0,0,1,4.08,1a5.38,5.38,0,0,1,2-.36A3.89,3.89,0,0,1,9.19,1.82,3.52,3.52,0,0,1,10,4.25,6,6,0,0,1,10,5a4.55,4.55,0,0,1-.1.61,2.22,2.22,0,0,1-.13.55,3.8,3.8,0,0,1-.2.55c-.09.2-.16.36-.22.48a3.5,3.5,0,0,1-.28.5l-.28.45c-.06.09-.17.25-.33.46L8.07,9c-.06.07-.17.23-.36.46l-.35.45L3.69,14.7H8.48l-.26,2.41Z"/><path class="cls-1" d="M15,14.72q1.22,0,1.44-2.1l.74-7.09v-1a1.29,1.29,0,0,0-.07-.47A1.84,1.84,0,0,0,17,3.72a.63.63,0,0,0-.31-.27,1.21,1.21,0,0,0-.48-.1,1.11,1.11,0,0,0-.58.15,1.15,1.15,0,0,0-.4.35,1.75,1.75,0,0,0-.24.53,4,4,0,0,0-.15.57c0,.16-.05.35-.07.58L14,12.62v.59C14,14.22,14.31,14.72,15,14.72Zm-.28,2.65a3.6,3.6,0,0,1-3.06-1.27,4.22,4.22,0,0,1-.79-2.65,7,7,0,0,1,0-.77l.75-7.22A5.76,5.76,0,0,1,13.1,2,4.39,4.39,0,0,1,16.46.71,3.58,3.58,0,0,1,19.54,2a4.28,4.28,0,0,1,.76,2.6,6.1,6.1,0,0,1,0,.84l-.75,7.22A5.51,5.51,0,0,1,18,16.09a4.43,4.43,0,0,1-3.29,1.28Z"/><path class="cls-1" d="M25.51,14.72c.81,0,1.29-.7,1.43-2.1l.75-7.09a4.73,4.73,0,0,0,0-.49V4.57a1.55,1.55,0,0,0-.07-.47,1.84,1.84,0,0,0-.17-.38.68.68,0,0,0-.31-.27,1.21,1.21,0,0,0-.48-.1,1.15,1.15,0,0,0-.59.15,1.11,1.11,0,0,0-.39.35,1.75,1.75,0,0,0-.25.53,5.84,5.84,0,0,0-.14.57,1.64,1.64,0,0,1-.08.58l-.74,7.09v.59C24.48,14.22,24.82,14.72,25.51,14.72Zm-.29,2.65a3.6,3.6,0,0,1-3-1.27,4.22,4.22,0,0,1-.79-2.65,7,7,0,0,1,0-.77l.75-7.22A5.75,5.75,0,0,1,23.61,2,4.42,4.42,0,0,1,27,.71,3.59,3.59,0,0,1,30.06,2a4.28,4.28,0,0,1,.76,2.64,8.21,8.21,0,0,1,0,.84L30,12.68a5.51,5.51,0,0,1-1.48,3.41A4.45,4.45,0,0,1,25.22,17.37Z"/><path class="cls-1" d="M31.55,17.11,31.78,15l4.54-6.1c.08-.11.23-.32.45-.6l.49-.64q.16-.21.42-.6a5.62,5.62,0,0,0,.38-.68c.09-.19.17-.42.26-.67A4.19,4.19,0,0,0,38.48,5v-.4a1.66,1.66,0,0,0-.22-.9.87.87,0,0,0-.79-.39h-.15c-.88.07-1.41.88-1.58,2.43l-.08.72h-3l.08-.76a7.65,7.65,0,0,1,.46-2,5.25,5.25,0,0,1,.91-1.56,3.92,3.92,0,0,1,1.46-1,5.47,5.47,0,0,1,2-.36,3.88,3.88,0,0,1,3.17,1.06,3.52,3.52,0,0,1,.78,2.43,6,6,0,0,1,0,.72,1.46,1.46,0,0,1-.09.61,4,4,0,0,0-.14.55,2.89,2.89,0,0,1-.2.55c-.09.2-.16.36-.22.48a3.26,3.26,0,0,1-.27.5l-.29.45c-.06.09-.17.25-.33.46L39.62,9c0,.07-.17.23-.36.46l-.34.45-3.68,4.78H40l-.25,2.41Z"/><path class="cls-1" d="M.07,17l.22-2.14L4.83,8.81l.46-.6.49-.64L6.19,7a5.88,5.88,0,0,0,.39-.68,5,5,0,0,0,.25-.67A3.35,3.35,0,0,0,7,4.86a2.82,2.82,0,0,0,0-.4,1.66,1.66,0,0,0-.21-.9A.88.88,0,0,0,6,3.17H5.86C5,3.25,4.45,4,4.28,5.61l-.08.73h-3l.08-.77a8.2,8.2,0,0,1,.45-2A5.35,5.35,0,0,1,2.69,2,3.71,3.71,0,0,1,4.15,1a5.38,5.38,0,0,1,2-.37,3.86,3.86,0,0,1,3.11,1.1A3.57,3.57,0,0,1,10,4.18v.71a4.31,4.31,0,0,1-.1.61A2.11,2.11,0,0,1,9.77,6a3.1,3.1,0,0,1-.2.55l-.22.49a3.5,3.5,0,0,1-.28.49L8.79,8l-.33.47-.33.43c-.05.08-.17.23-.35.47l-.35.44-3.67,4.8H8.54L8.29,17Z"/><path class="cls-1" d="M15.06,14.65c.81,0,1.29-.7,1.43-2.1l.75-7.09v-1a1.61,1.61,0,0,0,0-.47A1.76,1.76,0,0,0,17,3.65a.65.65,0,0,0-.31-.28,1.21,1.21,0,0,0-.48-.09,1.15,1.15,0,0,0-.59.15,1.09,1.09,0,0,0-.39.34A1.87,1.87,0,0,0,15,4.3c-.06.22-.11.41-.14.57s-.05.36-.08.59L14,12.55v.58C14,14.14,14.37,14.65,15.06,14.65Zm-.28,2.64A3.6,3.6,0,0,1,11.72,16a4.21,4.21,0,0,1-.79-2.64,6.74,6.74,0,0,1,0-.77l.75-7.22A5.78,5.78,0,0,1,13.12,1.9,4.45,4.45,0,0,1,16.52.63,3.62,3.62,0,0,1,19.61,1.9a4.33,4.33,0,0,1,.76,2.65,8.21,8.21,0,0,1,0,.84l-.75,7.22A5.48,5.48,0,0,1,18.09,16,4.41,4.41,0,0,1,14.78,17.29Z"/><path class="cls-1" d="M25.58,14.65c.81,0,1.29-.7,1.43-2.1l.74-7.09v-1a2,2,0,0,0,0-.47,1.76,1.76,0,0,0-.17-.37.7.7,0,0,0-.31-.28,1.21,1.21,0,0,0-.48-.09,1.15,1.15,0,0,0-.59.15,1.09,1.09,0,0,0-.39.34,1.87,1.87,0,0,0-.25.53,4.65,4.65,0,0,0-.14.57,1.69,1.69,0,0,1-.08.59l-.74,7.09v.58C24.55,14.14,24.89,14.65,25.58,14.65Zm-.29,2.64a3.6,3.6,0,0,1-3-1.27,4.21,4.21,0,0,1-.79-2.64v-.77l.76-7.22A5.72,5.72,0,0,1,23.65,1.9,4.45,4.45,0,0,1,27,.63,3.62,3.62,0,0,1,30.09,1.9a4.4,4.4,0,0,1,.76,2.65,8.21,8.21,0,0,1,0,.84l-.75,7.22A5.53,5.53,0,0,1,28.61,16,4.41,4.41,0,0,1,25.29,17.29Z"/><path class="cls-1" d="M31.62,17l.23-2.14,4.54-6.09q.12-.18.45-.6l.49-.64c.11-.15.24-.35.41-.61a5.88,5.88,0,0,0,.39-.68,5,5,0,0,0,.25-.67,2.88,2.88,0,0,0,.16-.75,2.82,2.82,0,0,0,0-.4,1.66,1.66,0,0,0-.21-.9.87.87,0,0,0-.79-.39h-.15c-.88.07-1.41.88-1.58,2.43l-.08.73h-3l.08-.77a7.75,7.75,0,0,1,.46-2,5.11,5.11,0,0,1,1-1.52A3.71,3.71,0,0,1,35.7,1a5.45,5.45,0,0,1,2-.37,3.86,3.86,0,0,1,3.07,1.13,3.57,3.57,0,0,1,.78,2.43,5.85,5.85,0,0,1,0,.71,1.44,1.44,0,0,1-.09.61,3.71,3.71,0,0,0-.14.55,3.1,3.1,0,0,1-.2.55l-.22.49a2.71,2.71,0,0,1-.28.49L40.34,8,40,8.5l-.32.43c0,.08-.17.23-.36.47L39,9.84,35.3,14.63h4.8L39.84,17Z"/><path class="cls-1" d="M.14,17l.22-2.13L4.9,8.73l.46-.6.48-.64a7,7,0,0,0,.42-.6,5.88,5.88,0,0,0,.39-.68c.08-.19.17-.42.25-.67a3.6,3.6,0,0,0,.16-.75v-.4a1.66,1.66,0,0,0-.21-.9A.89.89,0,0,0,6,3.1H5.93C5,3.18,4.52,4,4.35,5.54l-.08.72h-3l.08-.76a7.66,7.66,0,0,1,.45-2,5.47,5.47,0,0,1,.91-1.56,3.93,3.93,0,0,1,1.47-1,5.38,5.38,0,0,1,2-.36A3.85,3.85,0,0,1,9.33,1.67a3.62,3.62,0,0,1,.78,2.43v.72a4.55,4.55,0,0,1-.1.61A2.33,2.33,0,0,1,9.88,6a3.34,3.34,0,0,1-.2.54L9.42,7a4.89,4.89,0,0,1-.28.5L8.86,8c-.06.09-.17.25-.33.46l-.33.44-.35.46-.35.45L3.83,14.55H8.61L8.36,17Z"/><path class="cls-1" d="M15.13,14.57c.81,0,1.29-.7,1.43-2.1l.74-7.09v-1a1.55,1.55,0,0,0-.07-.47,1.84,1.84,0,0,0-.17-.38.68.68,0,0,0-.31-.27,1.06,1.06,0,0,0-.48-.1,1.15,1.15,0,0,0-.59.15,1.11,1.11,0,0,0-.39.35,1.8,1.8,0,0,0-.25.52,4.35,4.35,0,0,0-.14.58,1.64,1.64,0,0,1-.08.58l-.74,7.09v.59C14.1,14.07,14.44,14.57,15.13,14.57Zm-.29,2.65a3.62,3.62,0,0,1-3.05-1.27A4.22,4.22,0,0,1,11,13.3a6.85,6.85,0,0,1,0-.77l.75-7.22a5.75,5.75,0,0,1,1.44-3.48A4.42,4.42,0,0,1,16.59.56a3.59,3.59,0,0,1,3.09,1.27,4.28,4.28,0,0,1,.76,2.64,8.21,8.21,0,0,1,0,.84l-.75,7.22a5.51,5.51,0,0,1-1.48,3.41A4.45,4.45,0,0,1,14.84,17.22Z"/><path class="cls-1" d="M25.64,14.57q1.23,0,1.44-2.1l.74-7.09v-1a2,2,0,0,0-.07-.47,1.84,1.84,0,0,0-.17-.38.66.66,0,0,0-.32-.27,1,1,0,0,0-.47-.1,1.13,1.13,0,0,0-.59.15,1.25,1.25,0,0,0-.4.35,2.11,2.11,0,0,0-.24.52,3.21,3.21,0,0,0-.14.58,1.64,1.64,0,0,1-.08.58l-.74,7.09v.59C24.62,14.07,25,14.57,25.64,14.57Zm-.28,2.65a3.64,3.64,0,0,1-3.06-1.27,4.28,4.28,0,0,1-.79-2.65v-.77l.75-7.22a5.76,5.76,0,0,1,1.45-3.48A4.42,4.42,0,0,1,27.11.56,3.6,3.6,0,0,1,30.2,1.83,4.35,4.35,0,0,1,31,4.47a8.21,8.21,0,0,1,0,.84l-.75,7.22a5.56,5.56,0,0,1-1.48,3.41A4.47,4.47,0,0,1,25.36,17.22Z"/><path class="cls-1" d="M31.69,17l.22-2.13,4.55-6.1q.12-.18.45-.6l.49-.64c.1-.14.24-.34.41-.6a5.88,5.88,0,0,0,.39-.68,5.61,5.61,0,0,0,.25-.67,3.6,3.6,0,0,0,.16-.75,2.89,2.89,0,0,0,0-.4,1.66,1.66,0,0,0-.21-.9.88.88,0,0,0-.79-.39h-.15c-.88.07-1.41.88-1.58,2.43l-.08.72h-3l.08-.76a8.09,8.09,0,0,1,.45-2,5.27,5.27,0,0,1,.92-1.56,3.81,3.81,0,0,1,1.46-1,5.38,5.38,0,0,1,2-.36,3.85,3.85,0,0,1,3.07,1.12,3.57,3.57,0,0,1,.78,2.43,6,6,0,0,1,0,.72,4.55,4.55,0,0,1-.1.61,2.33,2.33,0,0,1-.13.55,3.34,3.34,0,0,1-.2.54c-.09.21-.16.37-.22.49a3.5,3.5,0,0,1-.28.5L40.35,8c-.06.09-.17.25-.33.46l-.32.44-.36.46L39,9.79l-3.67,4.78h4.79L39.85,17Z"/><path class="cls-1" d="M.21,16.89l.22-2.14L5,8.66,5.42,8l.49-.64c.11-.15.25-.35.42-.61a4.52,4.52,0,0,0,.38-.68A5,5,0,0,0,7,5.46a4,4,0,0,0,.16-.75v-.4a1.58,1.58,0,0,0-.22-.9A.87.87,0,0,0,6.14,3H6q-1.33.11-1.59,2.43l-.07.73h-3l.08-.77a7.36,7.36,0,0,1,.45-2,5.32,5.32,0,0,1,.91-1.55,3.75,3.75,0,0,1,1.47-1,5.19,5.19,0,0,1,2-.37A3.83,3.83,0,0,1,9.39,1.6,3.57,3.57,0,0,1,10.18,4v.71a2.68,2.68,0,0,1-.1.61l-.13.55a4.76,4.76,0,0,1-.2.55c-.09.2-.17.36-.22.49a4.94,4.94,0,0,1-.28.49L9,7.87c-.06.09-.17.25-.34.47l-.32.43L8,9.24l-.35.44L3.9,14.48H8.68l-.25,2.41Z"/><path class="cls-1" d="M15.2,14.5c.81,0,1.29-.7,1.43-2.1l.74-7.09v-1a2,2,0,0,0-.07-.47,2.11,2.11,0,0,0-.17-.38.68.68,0,0,0-.31-.27,1.21,1.21,0,0,0-.48-.09,1.15,1.15,0,0,0-.59.15,1.09,1.09,0,0,0-.39.34,1.87,1.87,0,0,0-.25.53,4.65,4.65,0,0,0-.11.57,1.69,1.69,0,0,1-.08.59l-.74,7.09V13C14.17,14,14.51,14.5,15.2,14.5Zm-.29,2.64a3.6,3.6,0,0,1-3.05-1.27,4.21,4.21,0,0,1-.8-2.64v-.78l.76-7.21A5.72,5.72,0,0,1,13.3,1.75,4.45,4.45,0,0,1,16.66.48a3.63,3.63,0,0,1,3.09,1.27,4.4,4.4,0,0,1,.76,2.65,8.21,8.21,0,0,1,0,.84l-.75,7.21a5.56,5.56,0,0,1-1.48,3.41A4.41,4.41,0,0,1,14.91,17.14Z"/><path class="cls-1" d="M25.71,14.5q1.23,0,1.44-2.1l.74-7.09V4.82a3.83,3.83,0,0,0,0-.48,1.63,1.63,0,0,0-.06-.47,3.17,3.17,0,0,0-.17-.38.71.71,0,0,0-.32-.27,1.14,1.14,0,0,0-.48-.09,1.11,1.11,0,0,0-.58.15,1.22,1.22,0,0,0-.4.34,2.2,2.2,0,0,0-.24.53,3.33,3.33,0,0,0-.14.57c0,.16-.06.36-.08.59l-.74,7.09V13C24.69,14,25,14.5,25.71,14.5Zm-.28,2.64a3.6,3.6,0,0,1-3.06-1.27,4.27,4.27,0,0,1-.79-2.64v-.78l.75-7.21a5.79,5.79,0,0,1,1.45-3.49A4.45,4.45,0,0,1,27.18.48a3.61,3.61,0,0,1,3.08,1.27A4.34,4.34,0,0,1,31,4.4a8.21,8.21,0,0,1,0,.84l-.76,7.21a5.55,5.55,0,0,1-1.47,3.41A4.43,4.43,0,0,1,25.43,17.14Z"/><path class="cls-1" d="M31.76,16.89,32,14.75l4.54-6.09L37,8l.49-.64.41-.61a5.88,5.88,0,0,0,.39-.68,6.94,6.94,0,0,0,.25-.67,3.35,3.35,0,0,0,.16-.75,2.82,2.82,0,0,0,0-.4,1.66,1.66,0,0,0-.21-.9A.88.88,0,0,0,37.7,3h-.15c-.89.07-1.41.88-1.58,2.43l-.08.73h-3L33,5.42a8.2,8.2,0,0,1,.45-2,5.55,5.55,0,0,1,.91-1.55,3.82,3.82,0,0,1,1.47-1,5.19,5.19,0,0,1,2-.37A3.86,3.86,0,0,1,41,1.6,3.62,3.62,0,0,1,41.73,4v.71a4.31,4.31,0,0,1-.1.61,2.11,2.11,0,0,1-.13.55,3.42,3.42,0,0,1-.2.55l-.3.5a4.94,4.94,0,0,1-.28.49l-.28.45-.33.47-.33.43-.35.47-.35.44-3.67,4.79h4.78L40,16.89Z"/><path class="cls-1" d="M.27,16.81.5,14.67,5,8.58q.12-.18.45-.6L6,7.34a7.37,7.37,0,0,0,.42-.61A5.59,5.59,0,0,0,6.78,6c.09-.2.17-.42.26-.67A4.39,4.39,0,0,0,7.2,4.6V4.19A1.65,1.65,0,0,0,7,3.34a.87.87,0,0,0-.79-.39H6.06c-.88.07-1.41.88-1.58,2.43L4.4,6.1h-3l.07-.76a7.65,7.65,0,0,1,.46-2,5.25,5.25,0,0,1,.91-1.56,3.77,3.77,0,0,1,1.47-1,5.38,5.38,0,0,1,2-.36,3.84,3.84,0,0,1,3.1,1.1,3.52,3.52,0,0,1,.78,2.43v.71a2.78,2.78,0,0,1-.1.61L10,5.83a4.66,4.66,0,0,1-.2.54c-.1.21-.17.37-.22.49a4.89,4.89,0,0,1-.28.5L9,7.8a5,5,0,0,1-.33.47l-.32.44L8,9.17l-.34.45L4,14.4H8.75L8.5,16.81Z"/><path class="cls-1" d="M15.26,14.42q1.23,0,1.44-2.1l.74-7.09v-1a1.94,1.94,0,0,0-.07-.46,2.59,2.59,0,0,0-.17-.38.71.71,0,0,0-.32-.27,1,1,0,0,0-.47-.1,1.13,1.13,0,0,0-.59.15,1.25,1.25,0,0,0-.4.35,2.11,2.11,0,0,0-.24.52,3.21,3.21,0,0,0-.14.58,5.62,5.62,0,0,1-.08.58l-.74,7.09v.59C14.24,13.92,14.58,14.42,15.26,14.42ZM15,17.07a3.63,3.63,0,0,1-3.06-1.27,4.28,4.28,0,0,1-.79-2.65v-.77l.75-7.22a5.73,5.73,0,0,1,1.45-3.48A4.42,4.42,0,0,1,16.73.41a3.58,3.58,0,0,1,3.08,1.27,4.29,4.29,0,0,1,.77,2.64,8.21,8.21,0,0,1,0,.84l-.75,7.22a5.59,5.59,0,0,1-1.48,3.41A4.47,4.47,0,0,1,15,17.07Z"/><path class="cls-1" d="M25.78,14.42c.82,0,1.29-.7,1.44-2.1L28,5.23v-1a1.27,1.27,0,0,0-.07-.46,1.43,1.43,0,0,0-.17-.38.63.63,0,0,0-.31-.27A1.06,1.06,0,0,0,27,3a1.11,1.11,0,0,0-.58.15,1.25,1.25,0,0,0-.4.35,2.11,2.11,0,0,0-.24.52,3.21,3.21,0,0,0-.14.58,5.83,5.83,0,0,0-.08.58l-.74,7.09v.59C24.76,13.92,25.1,14.42,25.78,14.42Zm-.28,2.65a3.63,3.63,0,0,1-3.06-1.27,4.22,4.22,0,0,1-.79-2.65,6.85,6.85,0,0,1,0-.77l.75-7.22a5.73,5.73,0,0,1,1.45-3.48A4.39,4.39,0,0,1,27.25.41a3.58,3.58,0,0,1,3.08,1.27,4.28,4.28,0,0,1,.76,2.64,6.1,6.1,0,0,1,0,.84l-.75,7.22a5.53,5.53,0,0,1-1.48,3.41A4.43,4.43,0,0,1,25.5,17.07Z"/><path class="cls-1" d="M31.83,16.81,32,14.67l4.54-6.09L37,8l.48-.64A7.37,7.37,0,0,0,38,6.73,4.48,4.48,0,0,0,38.33,6a6.27,6.27,0,0,0,.26-.67,3.6,3.6,0,0,0,.16-.75V4.19a1.56,1.56,0,0,0-.22-.89.86.86,0,0,0-.79-.39H37.6c-.87.11-1.4.93-1.6,2.48v.72H33l.08-.76a7.66,7.66,0,0,1,.45-2,5.25,5.25,0,0,1,.91-1.56,3.93,3.93,0,0,1,1.47-1,5.38,5.38,0,0,1,2-.36A3.85,3.85,0,0,1,41,1.52a3.62,3.62,0,0,1,.78,2.43v.71a4.09,4.09,0,0,1-.1.61l-.13.56a3.34,3.34,0,0,1-.2.54l-.22.49a4.89,4.89,0,0,1-.28.5l-.28.44a5.71,5.71,0,0,1-.34.47l-.32.44-.35.46-.35.45L35.54,14.4H40.3L40,16.81Z"/><path class="cls-1" d="M.34,16.74.57,14.6,5.11,8.51c.08-.12.23-.32.45-.61l.49-.63c.11-.15.25-.35.41-.61A5.88,5.88,0,0,0,6.85,6a5,5,0,0,0,.25-.67,3.38,3.38,0,0,0,.17-.75V4.2a1.66,1.66,0,0,0-.22-.9.87.87,0,0,0-.79-.39H6.13c-.88.07-1.41.88-1.58,2.43L4.47,6h-3l.08-.76a7.75,7.75,0,0,1,.46-2A5,5,0,0,1,3,1.73a3.71,3.71,0,0,1,1.46-1,5.26,5.26,0,0,1,2-.37A3.85,3.85,0,0,1,9.53,1.44a3.56,3.56,0,0,1,.78,2.44,6,6,0,0,1,0,.71,1.46,1.46,0,0,1-.09.61,4,4,0,0,0-.14.55,2.67,2.67,0,0,1-.2.55l-.22.49a3.83,3.83,0,0,1-.27.49l-.29.45-.33.47-.32.43-.36.47-.34.44L4,14.33H8.82l-.26,2.41Z"/><path class="cls-1" d="M15.33,14.35c.82,0,1.29-.7,1.44-2.1l.74-7.09V4.67a3.83,3.83,0,0,0,0-.48,1.63,1.63,0,0,0-.06-.47,1.88,1.88,0,0,0-.18-.38A.63.63,0,0,0,17,3.07a1.14,1.14,0,0,0-.48,0,1.21,1.21,0,0,0-.58.14,1.38,1.38,0,0,0-.4.35A2,2,0,0,0,15.3,4a3.33,3.33,0,0,0-.14.57c0,.16-.06.36-.08.59l-.74,7.09v.58C14.31,13.84,14.65,14.35,15.33,14.35ZM15.05,17A3.6,3.6,0,0,1,12,15.72a4.21,4.21,0,0,1-.79-2.64,7,7,0,0,1,0-.78L12,5.09A5.79,5.79,0,0,1,13.45,1.6,4.39,4.39,0,0,1,16.8.33,3.58,3.58,0,0,1,19.88,1.6a4.31,4.31,0,0,1,.76,2.65,8.39,8.39,0,0,1,0,.84l-.76,7.21a5.51,5.51,0,0,1-1.48,3.41A4.39,4.39,0,0,1,15.05,17Z"/><path class="cls-1" d="M25.85,14.35q1.21,0,1.44-2.1L28,5.16v-1a1.33,1.33,0,0,0,0-.47,1.84,1.84,0,0,0-.17-.38.63.63,0,0,0-.31-.27A1.21,1.21,0,0,0,27,3a1.18,1.18,0,0,0-.58.14,1.26,1.26,0,0,0-.4.35,1.75,1.75,0,0,0-.24.53,4.91,4.91,0,0,0-.15.57c0,.16,0,.36-.07.59l-.75,7.09v.58C24.82,13.84,25.17,14.35,25.85,14.35ZM25.57,17a3.6,3.6,0,0,1-3.06-1.27,4.21,4.21,0,0,1-.79-2.64,7,7,0,0,1,0-.78l.75-7.21A5.79,5.79,0,0,1,24,1.6,4.38,4.38,0,0,1,27.31.33,3.59,3.59,0,0,1,30.4,1.6a4.31,4.31,0,0,1,.76,2.65,6.28,6.28,0,0,1,0,.84l-.75,7.21a5.51,5.51,0,0,1-1.48,3.41A4.39,4.39,0,0,1,25.57,17Z"/><path class="cls-1" d="M31.89,16.74l.23-2.14,4.54-6.09c.08-.12.24-.32.45-.61s.39-.49.49-.63.25-.35.42-.61A4.52,4.52,0,0,0,38.4,6a5,5,0,0,0,.26-.67,4,4,0,0,0,.16-.75V4.2a1.58,1.58,0,0,0-.22-.9.87.87,0,0,0-.79-.39h-.14Q36.35,3,36.1,5.31L36,6H33l.07-.76a7.75,7.75,0,0,1,.46-2,5.19,5.19,0,0,1,.91-1.55A3.75,3.75,0,0,1,36,.69a5.19,5.19,0,0,1,2-.37,3.83,3.83,0,0,1,3.06,1.12,3.62,3.62,0,0,1,.79,2.44v.71a2.78,2.78,0,0,1-.1.61c0,.21-.09.39-.13.55a4.76,4.76,0,0,1-.2.55c-.09.2-.17.36-.22.49a3.5,3.5,0,0,1-.28.49c-.13.21-.23.35-.28.45a4,4,0,0,1-.34.47l-.3.43-.36.47-.34.44-3.67,4.79h4.78l-.25,2.41Z"/><path class="cls-1" d="M.41,16.66l.22-2.14L5.18,8.43q.12-.18.45-.6l.49-.64c.11-.14.24-.35.41-.61a5.86,5.86,0,0,0,.39-.67,6.34,6.34,0,0,0,.25-.67,3.56,3.56,0,0,0,.16-.76,2.75,2.75,0,0,0,0-.4,1.65,1.65,0,0,0-.21-.89.87.87,0,0,0-.79-.39H6.2c-.88.08-1.41.89-1.58,2.44L4.54,6h-3l.08-.76a8.09,8.09,0,0,1,.45-2A5.27,5.27,0,0,1,3,1.65a3.81,3.81,0,0,1,1.46-1,5.23,5.23,0,0,1,2-.36A3.85,3.85,0,0,1,9.6,1.37a3.57,3.57,0,0,1,.78,2.43,5.74,5.74,0,0,1,0,.71,4.09,4.09,0,0,1-.1.61,2.3,2.3,0,0,1-.13.56,3.34,3.34,0,0,1-.2.54c-.09.2-.16.37-.22.49a3.5,3.5,0,0,1-.28.49l-.28.45c-.06.1-.17.25-.33.47l-.32.44L8.12,9c-.19.24-.3.39-.35.44L4.1,14.25H8.89l-.26,2.41Z"/><path class="cls-1" d="M15.4,14.27q1.22,0,1.44-2.1l.74-7.09v-1a1.37,1.37,0,0,0-.07-.47,1.76,1.76,0,0,0-.17-.37A.63.63,0,0,0,17.07,3a1.06,1.06,0,0,0-.48-.1A1.11,1.11,0,0,0,16,3a1.15,1.15,0,0,0-.4.35,1.68,1.68,0,0,0-.24.52,4.91,4.91,0,0,0-.15.57c0,.17-.05.36-.07.59l-.75,7.09v.59C14.37,13.77,14.72,14.27,15.4,14.27Zm-.28,2.65a3.63,3.63,0,0,1-3.06-1.27A4.24,4.24,0,0,1,11.27,13a6.85,6.85,0,0,1,0-.77L12.06,5a5.73,5.73,0,0,1,1.45-3.48A4.39,4.39,0,0,1,16.87.26,3.58,3.58,0,0,1,20,1.53a4.28,4.28,0,0,1,.76,2.64,6.1,6.1,0,0,1,0,.84L20,12.23a5.53,5.53,0,0,1-1.48,3.41A4.43,4.43,0,0,1,15.12,16.92Z"/><path class="cls-1" d="M25.92,14.27c.81,0,1.29-.7,1.43-2.1l.75-7.09a4.73,4.73,0,0,0,0-.49V4.11A1.66,1.66,0,0,0,28,3.64a1.76,1.76,0,0,0-.17-.37A.68.68,0,0,0,27.59,3a1.06,1.06,0,0,0-.48-.1,1.15,1.15,0,0,0-.59.15,1.11,1.11,0,0,0-.39.35,1.68,1.68,0,0,0-.25.52c-.06.22-.11.41-.14.57a2.92,2.92,0,0,1-.08.59l-.74,7.09v.59C24.89,13.77,25.23,14.27,25.92,14.27Zm-.29,2.65a3.62,3.62,0,0,1-3-1.27A4.24,4.24,0,0,1,21.79,13a6.85,6.85,0,0,1,0-.77L22.58,5A5.73,5.73,0,0,1,24,1.53,4.42,4.42,0,0,1,27.38.26a3.59,3.59,0,0,1,3.09,1.27,4.28,4.28,0,0,1,.76,2.64,8.21,8.21,0,0,1,0,.84l-.75,7.22A5.53,5.53,0,0,1,29,15.64,4.45,4.45,0,0,1,25.63,16.92Z"/><path class="cls-1" d="M32,16.66l.23-2.14,4.54-6.09q.12-.18.45-.6l.49-.64c.11-.14.25-.35.42-.61a5.59,5.59,0,0,0,.38-.67c.09-.2.17-.42.26-.67a4.3,4.3,0,0,0,.16-.76v-.4a1.65,1.65,0,0,0-.22-.89.87.87,0,0,0-.79-.39h-.15c-.88.08-1.41.89-1.58,2.44L36.11,6h-3l.08-.76a7.65,7.65,0,0,1,.46-2,5.25,5.25,0,0,1,.91-1.56A3.81,3.81,0,0,1,36,.61,5.28,5.28,0,0,1,38.09.25a3.84,3.84,0,0,1,3.06,1.12,3.52,3.52,0,0,1,.78,2.43,5.74,5.74,0,0,1,0,.71,6,6,0,0,1-.09.61l-.13.56a3.47,3.47,0,0,1-.21.54c-.09.2-.16.37-.21.49A4.94,4.94,0,0,1,41,7.2l-.29.45c-.06.1-.17.25-.33.47L40,8.56,39.67,9l-.34.44-3.68,4.79h4.79l-.25,2.41Z"/><path class="cls-1" d="M.48,16.59.7,14.45l4.54-6.1.46-.6.49-.64c.1-.14.24-.34.41-.6A5.88,5.88,0,0,0,7,5.83a5.61,5.61,0,0,0,.25-.67,3.35,3.35,0,0,0,.16-.75,2.82,2.82,0,0,0,0-.4,1.66,1.66,0,0,0-.21-.9.88.88,0,0,0-.79-.39H6.27c-.89.07-1.41.88-1.58,2.43l-.08.72h-3l.08-.76a8.2,8.2,0,0,1,.45-2,5.22,5.22,0,0,1,1-1.53,3.71,3.71,0,0,1,1.46-1,5.19,5.19,0,0,1,2-.37A3.85,3.85,0,0,1,9.67,1.29a3.61,3.61,0,0,1,.78,2.44,6,6,0,0,1,0,.71,4.55,4.55,0,0,1-.1.61,2.22,2.22,0,0,1-.13.55,3.42,3.42,0,0,1-.2.55l-.22.49a4.18,4.18,0,0,1-.28.49l-.28.45L8.87,8l-.33.43-.35.47-.35.44L4.17,14.17H9l-.3,2.42Z"/><path class="cls-1" d="M15.47,14.19c.81,0,1.29-.7,1.43-2.1L17.65,5V4a1.61,1.61,0,0,0-.07-.47,1.84,1.84,0,0,0-.17-.38.63.63,0,0,0-.31-.27,1.21,1.21,0,0,0-.48-.09,1.25,1.25,0,0,0-.59.14,1.22,1.22,0,0,0-.39.35,1.75,1.75,0,0,0-.25.53c-.06.22-.11.41-.14.57a2.75,2.75,0,0,1-.08.58l-.74,7.09v.59C14.44,13.69,14.79,14.19,15.47,14.19Zm-.28,2.65a3.6,3.6,0,0,1-3.06-1.27,4.22,4.22,0,0,1-.79-2.65,7,7,0,0,1,0-.77l.75-7.21a5.84,5.84,0,0,1,1.44-3.49A4.42,4.42,0,0,1,16.93.18,3.59,3.59,0,0,1,20,1.45a4.31,4.31,0,0,1,.76,2.65,6.28,6.28,0,0,1,0,.84L20,12.15a5.51,5.51,0,0,1-1.48,3.41A4.44,4.44,0,0,1,15.19,16.84Z"/><path class="cls-1" d="M26,14.19c.81,0,1.29-.7,1.43-2.1L28.16,5v-1a2,2,0,0,0-.07-.47,1.84,1.84,0,0,0-.09-.4.68.68,0,0,0-.31-.27,1.21,1.21,0,0,0-.48-.09,1.25,1.25,0,0,0-.59.14,1.22,1.22,0,0,0-.39.35,1.75,1.75,0,0,0-.25.53,4.65,4.65,0,0,0-.14.57,1.61,1.61,0,0,1-.08.58L25,12.09v.59C25,13.69,25.3,14.19,26,14.19Zm-.29,2.65a3.6,3.6,0,0,1-3-1.27,4.22,4.22,0,0,1-.79-2.65v-.77l.76-7.21a5.72,5.72,0,0,1,1.44-3.49A4.42,4.42,0,0,1,27.45.18a3.59,3.59,0,0,1,3.09,1.27A4.38,4.38,0,0,1,31.3,4.1a5,5,0,0,1,0,.84l-.75,7.21A5.56,5.56,0,0,1,29,15.56a4.45,4.45,0,0,1-3.3,1.28Z"/><path class="cls-1" d="M32,16.59l.23-2.14,4.54-6.1.45-.6.49-.64c.11-.14.24-.34.41-.6a5.88,5.88,0,0,0,.39-.68,5.61,5.61,0,0,0,.25-.67A3.38,3.38,0,0,0,39,4.41V4a1.66,1.66,0,0,0-.21-.9A.87.87,0,0,0,38,2.72h-.15c-.88.07-1.41.88-1.58,2.43l-.08.72h-3l.08-.76a7.75,7.75,0,0,1,.46-2,5,5,0,0,1,.91-1.55,3.71,3.71,0,0,1,1.46-1,5.26,5.26,0,0,1,2-.37,3.85,3.85,0,0,1,3.07,1.12A3.56,3.56,0,0,1,42,3.73a6,6,0,0,1,0,.71,3.33,3.33,0,0,1-.09.61,4.86,4.86,0,0,1-.14.55,3.42,3.42,0,0,1-.2.55l-.22.49a3.83,3.83,0,0,1-.27.49c-.14.2-.23.35-.29.45L40.42,8l-.32.43-.36.47-.35.44-3.67,4.78h4.79l-.26,2.42Z"/><path class="cls-1" d="M.55,16.51l.22-2.14L5.31,8.28l.46-.6L6.25,7c.11-.14.25-.35.42-.61a5.15,5.15,0,0,0,.39-.68c.08-.19.17-.41.25-.66a3.56,3.56,0,0,0,.16-.76v-.4A1.71,1.71,0,0,0,7.28,3a.89.89,0,0,0-.8-.39H6.34c-.89.08-1.41.89-1.58,2.44l-.08.72h-3L1.8,5a7.74,7.74,0,0,1,.45-2,5.55,5.55,0,0,1,.91-1.55,3.93,3.93,0,0,1,1.47-1,5.2,5.2,0,0,1,2-.36A3.85,3.85,0,0,1,9.74,1.22a3.62,3.62,0,0,1,.78,2.43v.71a4.31,4.31,0,0,1-.1.61,2.3,2.3,0,0,1-.13.56,3.34,3.34,0,0,1-.2.54l-.22.49A4.94,4.94,0,0,1,9.55,7l-.28.45c-.06.1-.17.25-.33.47l-.33.44-.35.46c-.19.24-.3.39-.35.44L4.24,14.1H9l-.25,2.41Z"/><path class="cls-1" d="M15.54,14.12c.81,0,1.29-.7,1.43-2.1l.74-7.09V4a1.61,1.61,0,0,0-.07-.47,1.76,1.76,0,0,0-.17-.37.77.77,0,0,0-.31-.28,1.21,1.21,0,0,0-.48-.09,1.15,1.15,0,0,0-.59.15,1.2,1.2,0,0,0-.39.34,1.87,1.87,0,0,0-.25.53,4.65,4.65,0,0,0-.14.57,1.66,1.66,0,0,1-.08.59L14.54,12v.59C14.51,13.61,14.85,14.12,15.54,14.12Zm-.29,2.65A3.62,3.62,0,0,1,12.2,15.5a4.24,4.24,0,0,1-.79-2.65,6.74,6.74,0,0,1,0-.77l.75-7.22A5.78,5.78,0,0,1,13.6,1.37,4.45,4.45,0,0,1,17,.11a3.61,3.61,0,0,1,3.09,1.26A4.33,4.33,0,0,1,20.85,4a8.21,8.21,0,0,1,0,.84l-.75,7.22a5.53,5.53,0,0,1-1.48,3.41A4.45,4.45,0,0,1,15.25,16.77Z"/><path class="cls-1" d="M26,14.12q1.23,0,1.44-2.1l.74-7.09V4a2,2,0,0,0-.07-.47A1.76,1.76,0,0,0,28,3.12a.73.73,0,0,0-.32-.28,1.25,1.25,0,0,0-1.06.06,1.36,1.36,0,0,0-.4.34,2.2,2.2,0,0,0-.24.53,3.33,3.33,0,0,0-.14.57,5.42,5.42,0,0,1-.08.59L25.06,12v.59C25,13.61,25.37,14.12,26,14.12Zm-.28,2.65a3.64,3.64,0,0,1-3.06-1.27,4.3,4.3,0,0,1-.79-2.65v-.77l.75-7.22a5.79,5.79,0,0,1,1.45-3.49A4.45,4.45,0,0,1,27.52.11a3.62,3.62,0,0,1,3.09,1.26A4.4,4.4,0,0,1,31.37,4a8.21,8.21,0,0,1,0,.84l-.75,7.22a5.59,5.59,0,0,1-1.48,3.41A4.47,4.47,0,0,1,25.77,16.77Z"/><path class="cls-1" d="M32.1,16.51l.22-2.14,4.55-6.09q.12-.18.45-.6L37.81,7l.41-.61a5.15,5.15,0,0,0,.39-.68,5.41,5.41,0,0,0,.25-.66A3.56,3.56,0,0,0,39,4.33a2.75,2.75,0,0,0,0-.4,1.71,1.71,0,0,0-.21-.9A.88.88,0,0,0,38,2.64h-.15c-.88.08-1.41.89-1.58,2.44l-.08.72h-3L33.35,5a8.17,8.17,0,0,1,.45-2,5.35,5.35,0,0,1,.92-1.55,3.81,3.81,0,0,1,1.46-1,5.2,5.2,0,0,1,2-.36,3.85,3.85,0,0,1,3.11,1.11,3.57,3.57,0,0,1,.78,2.43,5.74,5.74,0,0,1,0,.71A4.31,4.31,0,0,1,42,5a2.3,2.3,0,0,1-.13.56,3.34,3.34,0,0,1-.2.54c-.09.2-.16.37-.22.49A3.5,3.5,0,0,1,41.1,7l-.28.45c-.06.1-.17.25-.33.47s-.27.36-.32.44l-.36.46c-.19.24-.3.39-.35.44l-3.67,4.79h4.79l-.26,2.41Z"/><path class="cls-1" d="M.62,16.44.84,14.3,5.38,8.2l.45-.6c.22-.28.39-.49.49-.64s.25-.34.42-.6a4.52,4.52,0,0,0,.38-.68A5.54,5.54,0,0,0,7.38,5a4,4,0,0,0,.16-.75v-.4A1.58,1.58,0,0,0,7.32,3a.87.87,0,0,0-.79-.39H6.41Q5.07,2.69,4.82,5l-.07.72h-3L1.87,5a7.27,7.27,0,0,1,.45-2,5.19,5.19,0,0,1,.91-1.55A3.75,3.75,0,0,1,4.7.39,5.19,5.19,0,0,1,6.7,0,3.86,3.86,0,0,1,9.8,1.14a3.59,3.59,0,0,1,.79,2.43v.72a2.78,2.78,0,0,1-.1.61c0,.21-.09.39-.13.55a5.54,5.54,0,0,1-.2.55c-.09.2-.17.36-.22.48a4.89,4.89,0,0,1-.28.5c-.13.2-.23.35-.28.45A4,4,0,0,1,9,7.9l-.32.43-.35.46L8,9.24,4.31,14H9.09l-.25,2.42Z"/><path class="cls-1" d="M15.61,14c.81,0,1.29-.7,1.43-2.1l.74-7.09v-1a2,2,0,0,0-.07-.47A1.84,1.84,0,0,0,17.59,3a.68.68,0,0,0-.31-.27,1.21,1.21,0,0,0-.48-.09,1.25,1.25,0,0,0-.59.14,1.22,1.22,0,0,0-.39.35,1.75,1.75,0,0,0-.25.53,4.65,4.65,0,0,0-.14.57,1.61,1.61,0,0,1-.08.58l-.74,7.09v.59C14.58,13.54,14.92,14,15.61,14Zm-.29,2.65a3.6,3.6,0,0,1-3.05-1.27,4.22,4.22,0,0,1-.8-2.65V12l.76-7.21a5.72,5.72,0,0,1,1.44-3.49A4.42,4.42,0,0,1,17.07,0a3.6,3.6,0,0,1,3.09,1.27,4.38,4.38,0,0,1,.76,2.65,5,5,0,0,1,0,.84L20.12,12a5.56,5.56,0,0,1-1.48,3.41,4.45,4.45,0,0,1-3.32,1.26Z"/><path class="cls-1" d="M26.12,14q1.23,0,1.44-2.1l.74-7.09V4.35a3.83,3.83,0,0,0,0-.48,1.63,1.63,0,0,0-.06-.47A2.59,2.59,0,0,0,28.11,3a.71.71,0,0,0-.32-.27,1.14,1.14,0,0,0-.48-.09,1.21,1.21,0,0,0-.58.14,1.38,1.38,0,0,0-.4.35,2,2,0,0,0-.24.53,3.33,3.33,0,0,0-.14.57c0,.16-.06.36-.08.58l-.74,7.09v.59C25.1,13.54,25.44,14,26.12,14Zm-.28,2.65a3.6,3.6,0,0,1-3.06-1.27A4.28,4.28,0,0,1,22,12.77V12l.75-7.21A5.79,5.79,0,0,1,24.2,1.3,4.42,4.42,0,0,1,27.59,0a3.58,3.58,0,0,1,3.08,1.27,4.32,4.32,0,0,1,.77,2.65,5,5,0,0,1,0,.84L30.63,12a5.55,5.55,0,0,1-1.47,3.41,4.47,4.47,0,0,1-3.32,1.26Z"/><path class="cls-1" d="M32.17,16.44l.22-2.14,4.54-6.1.46-.6L37.88,7c.1-.14.24-.34.41-.6a5.88,5.88,0,0,0,.39-.68c.08-.19.17-.42.25-.67a3.35,3.35,0,0,0,.16-.75v-.4a1.66,1.66,0,0,0-.21-.9.88.88,0,0,0-.79-.39H38c-.89.07-1.41.88-1.58,2.43l-.08.72h-3l.08-.7a8.09,8.09,0,0,1,.45-2,5.22,5.22,0,0,1,.92-1.55,3.71,3.71,0,0,1,1.46-1,5.19,5.19,0,0,1,2-.37,3.89,3.89,0,0,1,3.07,1.12,3.64,3.64,0,0,1,.78,2.43,6,6,0,0,1,0,.72A4.55,4.55,0,0,1,42,5a2.22,2.22,0,0,1-.13.55,3.8,3.8,0,0,1-.2.55c-.09.2-.16.36-.22.48a4.89,4.89,0,0,1-.28.5l-.28.45L40.56,8c-.17.21-.27.36-.33.43l-.35.46-.35.45L35.86,14h4.78l-.25,2.42Z"/><path class="cls-2" d="M.62,16.44.84,14.3,5.38,8.21l.45-.6L6.32,7c.11-.14.25-.35.42-.61a4.08,4.08,0,0,0,.38-.68A5.35,5.35,0,0,0,7.38,5a4.3,4.3,0,0,0,.16-.76v-.4A1.62,1.62,0,0,0,7.32,3a.87.87,0,0,0-.79-.39H6.41C5.52,2.66,5,3.47,4.82,5l-.07.72h-3L1.87,5a7.35,7.35,0,0,1,.45-2,5.32,5.32,0,0,1,.91-1.55A3.85,3.85,0,0,1,4.7.39,5.38,5.38,0,0,1,6.7,0,3.87,3.87,0,0,1,9.8,1.15a3.57,3.57,0,0,1,.79,2.43v.71a2.68,2.68,0,0,1-.1.61l-.13.55a4.17,4.17,0,0,1-.2.55l-.22.49A4.94,4.94,0,0,1,9.62,7l-.28.45q-.16.22-.34.43c-.16.22-.27.36-.32.44l-.35.46L8,9.24,4.31,14H9.09l-.25,2.41Z"/><path class="cls-2" d="M15.32,16.69a3.62,3.62,0,0,1-3.05-1.26,4.24,4.24,0,0,1-.8-2.65V12l.76-7.22A5.72,5.72,0,0,1,13.67,1.3,4.45,4.45,0,0,1,17.07,0a3.63,3.63,0,0,1,3.09,1.27,4.4,4.4,0,0,1,.76,2.65,8.21,8.21,0,0,1,0,.84L20.12,12a5.59,5.59,0,0,1-1.48,3.41A4.45,4.45,0,0,1,15.32,16.69ZM15.61,14c.81,0,1.29-.7,1.43-2.1l.74-7.09v-1a2,2,0,0,0-.07-.47A1.76,1.76,0,0,0,17.59,3a.77.77,0,0,0-.31-.28,1.21,1.21,0,0,0-.48-.09,1.15,1.15,0,0,0-.59.15,1.2,1.2,0,0,0-.39.34,1.87,1.87,0,0,0-.25.53,4.65,4.65,0,0,0-.14.57,1.66,1.66,0,0,1-.08.59l-.74,7.09v.58C14.58,13.54,14.92,14,15.61,14Z"/><path class="cls-2" d="M25.84,16.69a3.63,3.63,0,0,1-3.06-1.26A4.3,4.3,0,0,1,22,12.78V12l.75-7.22A5.79,5.79,0,0,1,24.2,1.3,4.45,4.45,0,0,1,27.59,0a3.61,3.61,0,0,1,3.08,1.27,4.34,4.34,0,0,1,.77,2.65,8.21,8.21,0,0,1,0,.84L30.63,12a5.58,5.58,0,0,1-1.47,3.41A4.46,4.46,0,0,1,25.84,16.69ZM26.12,14q1.23,0,1.44-2.1l.74-7.09V4.34a3.83,3.83,0,0,0,0-.48,1.63,1.63,0,0,0-.06-.47A2.48,2.48,0,0,0,28.11,3a.8.8,0,0,0-.32-.28,1.14,1.14,0,0,0-.48-.09,1.11,1.11,0,0,0-.58.15,1.36,1.36,0,0,0-.4.34,2.2,2.2,0,0,0-.24.53,3.33,3.33,0,0,0-.14.57c0,.17-.06.36-.08.59l-.74,7.09v.58C25.1,13.54,25.44,14,26.12,14Z"/><path class="cls-2" d="M32.17,16.44l.22-2.14,4.54-6.09.46-.6L37.88,7l.41-.61a5.15,5.15,0,0,0,.39-.68c.08-.19.17-.41.25-.66a3.56,3.56,0,0,0,.16-.76v-.4a1.71,1.71,0,0,0-.21-.9.88.88,0,0,0-.79-.39H38c-.89.08-1.41.89-1.58,2.44l-.08.72h-3L33.42,5a8.17,8.17,0,0,1,.45-2,5.35,5.35,0,0,1,.92-1.55,3.81,3.81,0,0,1,1.46-1,5.38,5.38,0,0,1,2-.37,3.89,3.89,0,0,1,3.07,1.13,3.62,3.62,0,0,1,.78,2.43,5.85,5.85,0,0,1,0,.71A4.31,4.31,0,0,1,42,5a2.11,2.11,0,0,1-.13.55,3.1,3.1,0,0,1-.2.55c-.09.2-.16.37-.22.49a4.94,4.94,0,0,1-.28.49l-.28.45c-.06.1-.17.25-.33.47l-.33.44-.35.46c-.19.24-.3.39-.35.44L35.86,14h4.78l-.25,2.41Z"/></g></g></g></g></svg>