<svg xmlns="http://www.w3.org/2000/svg" viewBox="0 0 42 17.28"><defs><style>.cls-1{fill:#cf4137;}.cls-2{fill:#fff;}</style></defs><title>Asset 19</title><g id="Layer_2" data-name="Layer 2"><g id="Layer_1-2" data-name="Layer 1"><g id="Layer_2-2" data-name="Layer 2"><g id="Layer_1-2-2" data-name="Layer 1-2"><path class="cls-1" d="M0,17l.22-2.14,4.55-6.1q.12-.18.45-.6l.49-.64c.11-.14.24-.34.41-.6a6.85,6.85,0,0,0,.39-.68,6.34,6.34,0,0,0,.25-.67,3.6,3.6,0,0,0,.16-.75,2.89,2.89,0,0,0,0-.4,1.66,1.66,0,0,0-.21-.9.87.87,0,0,0-.79-.39H5.79c-.88.07-1.41.88-1.58,2.43l-.08.72h-3l.08-.76a8.09,8.09,0,0,1,.45-2A5.27,5.27,0,0,1,2.62,2,3.81,3.81,0,0,1,4.08,1a5.38,5.38,0,0,1,2-.36A3.85,3.85,0,0,1,9.19,1.72,3.52,3.52,0,0,1,10,4.15a5.74,5.74,0,0,1,0,.71,4.44,4.44,0,0,1-.1.62A2.33,2.33,0,0,1,9.77,6a3.34,3.34,0,0,1-.2.54c-.09.21-.16.37-.22.49a3.5,3.5,0,0,1-.28.5L8.72,8c-.06.1-.17.25-.33.47l-.32.44-.36.46-.35.45L3.69,14.6H8.48L8.22,17Z"/><path class="cls-1" d="M15,14.62q1.22,0,1.44-2.1l.74-7.09v-1a1.27,1.27,0,0,0,0-.44,1.84,1.84,0,0,0-.14-.4.63.63,0,0,0-.31-.27,1.06,1.06,0,0,0-.48-.1,1.11,1.11,0,0,0-.58.15,1.15,1.15,0,0,0-.4.35,1.8,1.8,0,0,0-.24.52,4.55,4.55,0,0,0-.15.58c0,.16-.05.35-.07.58L14,12.52v.59C14,14.12,14.31,14.62,15,14.62Zm-.28,2.65A3.63,3.63,0,0,1,11.65,16a4.22,4.22,0,0,1-.79-2.65,6.85,6.85,0,0,1,0-.77l.75-7.22a5.73,5.73,0,0,1,1.49-3.5A4.39,4.39,0,0,1,16.46.61a3.58,3.58,0,0,1,3.08,1.27,4.28,4.28,0,0,1,.76,2.64,6.1,6.1,0,0,1,0,.84l-.75,7.22A5.53,5.53,0,0,1,18,16a4.43,4.43,0,0,1-3.29,1.25Z"/><path class="cls-1" d="M24.3,17,25.65,4l-2.53.81.24-2.27c.55-.2,1.17-.47,1.84-.79a5.47,5.47,0,0,0,1.48-1H29L27.33,17Z"/><path class="cls-1" d="M35.8,17.27a5,5,0,0,1-2-.36,2.44,2.44,0,0,1-1.17-1,4.15,4.15,0,0,1-.47-1.56,7,7,0,0,1,0-.81,8.91,8.91,0,0,1,.09-1.23h3a11.06,11.06,0,0,0-.07,1.21v.22a1.54,1.54,0,0,0,.3.93,1,1,0,0,0,.82.31h0a1.21,1.21,0,0,0,.48-.1,1.54,1.54,0,0,0,.37-.23,1.21,1.21,0,0,0,.27-.41,4.18,4.18,0,0,0,.19-.51,5.65,5.65,0,0,0,.15-.66,5.61,5.61,0,0,1,.1-.73c0-.2,0-.48.09-.85,0-.54.08-1,.08-1.44V10a1.73,1.73,0,0,0-.28-1,1,1,0,0,0-.88-.39c-.73,0-1.25.47-1.56,1.42H32.59L33.74.82H41.2l-.27,2.66H36L35.43,7a2.28,2.28,0,0,1,.89-.52,4.62,4.62,0,0,1,1.27-.26h.32a2.48,2.48,0,0,1,2.33,1.21,5.19,5.19,0,0,1,.59,2.64,9.92,9.92,0,0,1-.07,1.18,19.09,19.09,0,0,1-.3,1.94,7.74,7.74,0,0,1-.55,1.62A4,4,0,0,1,39,16.15a3.78,3.78,0,0,1-1.34.81A5.18,5.18,0,0,1,35.8,17.27Z"/><path class="cls-1" d="M.08,16.95l.23-2.14L4.85,8.72q.12-.18.45-.6l.49-.64c.11-.15.25-.35.42-.61a5,5,0,0,0,.38-.68,6.77,6.77,0,0,0,.26-.67A4,4,0,0,0,7,4.77v-.4a1.71,1.71,0,0,0-.22-.9A.87.87,0,0,0,6,3.08H5.87C5,3.17,4.46,4,4.29,5.52l-.08.73h-3l.07-.76a7.73,7.73,0,0,1,.46-2A5.32,5.32,0,0,1,2.7,1.94a3.67,3.67,0,0,1,1.47-1,5.38,5.38,0,0,1,2-.37,3.88,3.88,0,0,1,3.1,1.09,3.52,3.52,0,0,1,.78,2.43,5.85,5.85,0,0,1,0,.71,1.44,1.44,0,0,1-.09.61L9.83,6a4.17,4.17,0,0,1-.2.55c-.1.2-.17.37-.22.49a4.94,4.94,0,0,1-.28.49l-.29.45a5,5,0,0,1-.33.47c-.16.22-.27.36-.32.44l-.36.46-.34.44L3.77,14.54H8.56l-.25,2.41Z"/><path class="cls-1" d="M15.07,14.56q1.23,0,1.44-2.1l.74-7.09v-1a2,2,0,0,0-.07-.47A2.48,2.48,0,0,0,17,3.56a.8.8,0,0,0-.32-.28,1.14,1.14,0,0,0-.48-.09,1.11,1.11,0,0,0-.58.15,1.36,1.36,0,0,0-.4.34,2.2,2.2,0,0,0-.24.53,3.33,3.33,0,0,0-.14.57,5.42,5.42,0,0,1-.08.59L14,12.46V13C14.05,14,14.39,14.56,15.07,14.56Zm-.28,2.64a3.63,3.63,0,0,1-3.06-1.26,4.3,4.3,0,0,1-.79-2.65v-.77l.75-7.22a5.79,5.79,0,0,1,1.45-3.49A4.45,4.45,0,0,1,16.54.54a3.61,3.61,0,0,1,3.08,1.27,4.34,4.34,0,0,1,.77,2.65,8.21,8.21,0,0,1,0,.84l-.75,7.22a5.59,5.59,0,0,1-1.48,3.41A4.46,4.46,0,0,1,14.79,17.2Z"/><path class="cls-1" d="M24.38,16.95,25.74,4l-2.53.8.23-2.26a19.94,19.94,0,0,0,1.84-.79,5.31,5.31,0,0,0,1.48-1h2.36L27.42,17Z"/><path class="cls-1" d="M35.88,17.2a5,5,0,0,1-2-.35,2.37,2.37,0,0,1-1.16-1,4.15,4.15,0,0,1-.48-1.57,7,7,0,0,1,0-.81,9.14,9.14,0,0,1,.09-1.23h3c0,.46-.07.86-.07,1.21v.23a1.5,1.5,0,0,0,.3.93,1,1,0,0,0,.83.31h0a1.41,1.41,0,0,0,.48-.1,1.23,1.23,0,0,0,.37-.23,1.17,1.17,0,0,0,.27-.42,4.85,4.85,0,0,0,.2-.51A5.28,5.28,0,0,0,37.8,13a5.61,5.61,0,0,1,.1-.73c0-.2.06-.49.09-.86A12.94,12.94,0,0,0,38,10V9.9a1.76,1.76,0,0,0-.28-1.05,1,1,0,0,0-.88-.39c-.73,0-1.25.48-1.56,1.43H32.67L33.82.76h7.46L41,3.42H36.07L35.51,7a2.28,2.28,0,0,1,.89-.52,4.7,4.7,0,0,1,1.27-.26H38a2.51,2.51,0,0,1,2.33,1.18,5.17,5.17,0,0,1,.58,2.6,8.11,8.11,0,0,1-.06,1.18,16.84,16.84,0,0,1-.31,1.94A8.11,8.11,0,0,1,40,14.8a4.46,4.46,0,0,1-.89,1.29,3.74,3.74,0,0,1-1.35.81A5.41,5.41,0,0,1,35.88,17.2Z"/><path class="cls-1" d="M.17,16.89l.22-2.14L4.93,8.66,5.39,8l.48-.64c.11-.15.25-.35.42-.61a5.88,5.88,0,0,0,.39-.68,6.94,6.94,0,0,0,.25-.67,3.35,3.35,0,0,0,.16-.75v-.4a1.66,1.66,0,0,0-.21-.9A.89.89,0,0,0,6.1,3H6c-.89.07-1.41.88-1.58,2.43l-.08.73h-3l.08-.77a7.76,7.76,0,0,1,.45-2,5.55,5.55,0,0,1,.91-1.55,3.82,3.82,0,0,1,1.47-1,5.19,5.19,0,0,1,2-.37A3.86,3.86,0,0,1,9.36,1.6,3.62,3.62,0,0,1,10.14,4v.71a4.55,4.55,0,0,1-.1.61,2.11,2.11,0,0,1-.13.55,3.42,3.42,0,0,1-.2.55c-.09.2-.17.36-.22.49a4.94,4.94,0,0,1-.28.49l-.28.45-.33.47-.33.43-.35.47-.35.44-3.71,4.8H8.64l-.25,2.41Z"/><path class="cls-1" d="M15.16,14.5c.81,0,1.29-.7,1.43-2.1l.74-7.09v-1a1.61,1.61,0,0,0-.07-.47,2.11,2.11,0,0,0-.17-.38.68.68,0,0,0-.31-.27,1.21,1.21,0,0,0-.48-.09,1.25,1.25,0,0,0-.59.14,1.22,1.22,0,0,0-.39.35,1.75,1.75,0,0,0-.25.53,4.65,4.65,0,0,0-.07.57,5.77,5.77,0,0,1-.08.59l-.74,7.09V13C14.13,14,14.47,14.5,15.16,14.5Zm-.29,2.64a3.6,3.6,0,0,1-3-1.27A4.21,4.21,0,0,1,11,13.23a7,7,0,0,1,0-.78l.75-7.21a5.78,5.78,0,0,1,1.44-3.49A4.45,4.45,0,0,1,16.62.48a3.62,3.62,0,0,1,3.09,1.27,4.33,4.33,0,0,1,.76,2.65,8.38,8.38,0,0,1,0,.84l-.75,7.21a5.51,5.51,0,0,1-1.48,3.41A4.41,4.41,0,0,1,14.87,17.14Z"/><path class="cls-1" d="M24.46,16.89l1.36-13-2.53.8.24-2.27a19.54,19.54,0,0,0,1.84-.79,5.4,5.4,0,0,0,1.48-1H29.2L27.5,16.89Z"/><path class="cls-1" d="M36,17.14a5.16,5.16,0,0,1-2-.35,2.4,2.4,0,0,1-1.17-1,4.2,4.2,0,0,1-.47-1.57,5.34,5.34,0,0,1,0-.81,11,11,0,0,1,.08-1.23h3c0,.46-.06.86-.06,1.21a1.76,1.76,0,0,0,0,.23,1.39,1.39,0,0,0,.3.92,1,1,0,0,0,.82.32h0a1.42,1.42,0,0,0,.84-.33,1.45,1.45,0,0,0,.28-.42c.08-.19.14-.35.19-.51a3.83,3.83,0,0,0,.14-.66,4.07,4.07,0,0,1,.11-.72,5.94,5.94,0,0,1,.09-.86c0-.54.08-1,.08-1.43V9.84a1.74,1.74,0,0,0-.29-1.05,1,1,0,0,0-.88-.39c-.72,0-1.25.48-1.56,1.43H32.75L33.91.7h7.46l-.28,2.65H36.15L35.6,6.94a2.21,2.21,0,0,1,.89-.53,4.62,4.62,0,0,1,1.26-.25h.33a2.48,2.48,0,0,1,2.33,1.21A5.15,5.15,0,0,1,41,10a7.08,7.08,0,0,1-.07,1.19,18.86,18.86,0,0,1-.3,1.93,8.36,8.36,0,0,1-.55,1.62,4.21,4.21,0,0,1-.89,1.3,3.78,3.78,0,0,1-1.34.81A5.45,5.45,0,0,1,36,17.14Z"/><path class="cls-1" d="M.25,16.83l.22-2.14L5,8.59,5.47,8,6,7.35c.11-.14.24-.34.41-.6a5.88,5.88,0,0,0,.39-.68A5.61,5.61,0,0,0,7,5.4a3.35,3.35,0,0,0,.16-.75,2.89,2.89,0,0,0,0-.4A1.66,1.66,0,0,0,7,3.35.87.87,0,0,0,6.21,3H6c-.88.07-1.41.88-1.58,2.43l-.08.72h-3l.08-.76a8.09,8.09,0,0,1,.45-2,5.22,5.22,0,0,1,1-1.53,3.71,3.71,0,0,1,1.46-1,5.19,5.19,0,0,1,2-.37A3.85,3.85,0,0,1,9.44,1.53,3.58,3.58,0,0,1,10.22,4a6,6,0,0,1,0,.72,4.55,4.55,0,0,1-.1.61,2.22,2.22,0,0,1-.13.55,3.8,3.8,0,0,1-.2.55c-.09.2-.16.36-.22.48a3.5,3.5,0,0,1-.28.5L9,7.82l-.33.47-.32.43c-.06.07-.17.23-.36.46l-.35.45-3.7,4.78H8.73l-.26,2.42Z"/><path class="cls-1" d="M15.24,14.43q1.22,0,1.44-2.1l.74-7.09v-1a1.29,1.29,0,0,0-.07-.47,1.84,1.84,0,0,0-.17-.38.63.63,0,0,0-.31-.27,1.21,1.21,0,0,0-.48-.09,1.11,1.11,0,0,0-.58.14,1.26,1.26,0,0,0-.4.35,1.75,1.75,0,0,0-.24.53,4.44,4.44,0,0,0-.15.57,5.06,5.06,0,0,0,0,.58l-.75,7.09v.59C14.21,13.93,14.56,14.43,15.24,14.43ZM15,17.08a3.6,3.6,0,0,1-3.06-1.27,4.22,4.22,0,0,1-.79-2.65,7,7,0,0,1,0-.77l.75-7.21a5.79,5.79,0,0,1,1.45-3.49A4.39,4.39,0,0,1,16.71.42a3.58,3.58,0,0,1,3.08,1.27,4.29,4.29,0,0,1,.76,2.65,6.28,6.28,0,0,1,0,.84l-.75,7.21a5.51,5.51,0,0,1-1.48,3.41A4.43,4.43,0,0,1,15,17.08Z"/><path class="cls-1" d="M24.55,16.83l1.35-13-2.52.8.23-2.27a18.48,18.48,0,0,0,1.84-.79,5.24,5.24,0,0,0,1.48-1h2.35l-1.7,16.2Z"/><path class="cls-1" d="M36,17.08a5,5,0,0,1-2-.36,2.42,2.42,0,0,1-1.17-1,4.26,4.26,0,0,1-.47-1.57,7,7,0,0,1,0-.81,9,9,0,0,1,.09-1.23h3a11.06,11.06,0,0,0-.07,1.21v.22a1.45,1.45,0,0,0,.3.93,1,1,0,0,0,.82.31h0a1.21,1.21,0,0,0,.48-.1,1.54,1.54,0,0,0,.37-.23,1.21,1.21,0,0,0,.27-.41,4.18,4.18,0,0,0,.19-.51,4.81,4.81,0,0,0,.15-.66,5.61,5.61,0,0,1,.1-.73c0-.2,0-.48.09-.85a13,13,0,0,0,.08-1.44V9.77a1.73,1.73,0,0,0-.28-1,1,1,0,0,0-1-.43c-.73,0-1.25.47-1.56,1.43h-2.6L34,.63h7.46l-.27,2.66H36.24l-.56,3.58a2.4,2.4,0,0,1,.89-.52,4.62,4.62,0,0,1,1.27-.26h.32A2.5,2.5,0,0,1,40.49,7.3a5.21,5.21,0,0,1,.59,2.64A9.8,9.8,0,0,1,41,11.11,19.09,19.09,0,0,1,40.7,13a7.74,7.74,0,0,1-.55,1.62,4,4,0,0,1-.89,1.3,3.93,3.93,0,0,1-1.34.81A5.41,5.41,0,0,1,36,17.08Z"/><path class="cls-1" d="M.33,16.76l.23-2.14L5.1,8.53q.12-.18.45-.6L6,7.29a7,7,0,0,0,.42-.6A6.5,6.5,0,0,0,6.84,6c.09-.2.17-.42.26-.67a4.39,4.39,0,0,0,.16-.75V4.2A1.66,1.66,0,0,0,7,3.3a.87.87,0,0,0-.79-.39H6.12c-.88.07-1.41.88-1.58,2.43L4.46,6h-3l.07-.76a7.65,7.65,0,0,1,.46-2A5.25,5.25,0,0,1,3,1.75a3.77,3.77,0,0,1,1.47-1,5.38,5.38,0,0,1,2-.36A3.84,3.84,0,0,1,9.52,1.47,3.52,3.52,0,0,1,10.3,3.9a5.74,5.74,0,0,1,0,.71,1.49,1.49,0,0,1-.09.62,2.69,2.69,0,0,0-.13.55,4.66,4.66,0,0,1-.2.54c-.1.21-.17.37-.22.49a4.89,4.89,0,0,1-.28.5l-.29.44a5,5,0,0,1-.33.47l-.32.44L8,9.12l-.34.45L4,14.35H8.81l-.25,2.41Z"/><path class="cls-1" d="M15.32,14.37q1.23,0,1.44-2.1l.74-7.09v-1a1.94,1.94,0,0,0-.07-.46,2.59,2.59,0,0,0-.17-.38A.71.71,0,0,0,17,3.1a1,1,0,0,0-.48-.1,1.11,1.11,0,0,0-.58.15,1.25,1.25,0,0,0-.4.35A2.11,2.11,0,0,0,15.3,4a3.21,3.21,0,0,0-.14.58,5.62,5.62,0,0,1-.08.58l-.74,7.09v.59C14.3,13.87,14.64,14.37,15.32,14.37ZM15,17a3.63,3.63,0,0,1-3-1.27,4.28,4.28,0,0,1-.79-2.65v-.77L12,5.11a5.73,5.73,0,0,1,1.45-3.48A4.42,4.42,0,0,1,16.79.36a3.58,3.58,0,0,1,3.08,1.27,4.29,4.29,0,0,1,.77,2.64,8.21,8.21,0,0,1,0,.84l-.75,7.22a5.59,5.59,0,0,1-1.48,3.41A4.47,4.47,0,0,1,15,17Z"/><path class="cls-1" d="M24.63,16.76,26,3.79l-2.53.81.23-2.27a19.94,19.94,0,0,0,1.84-.79A5.31,5.31,0,0,0,27,.57h2.36l-1.7,16.19Z"/><path class="cls-1" d="M36.13,17a5,5,0,0,1-2-.36,2.37,2.37,0,0,1-1.16-1,4.15,4.15,0,0,1-.48-1.56,7,7,0,0,1,0-.81,8.91,8.91,0,0,1,0-1.27h3c0,.45-.07.86-.07,1.21v.22a1.45,1.45,0,0,0,.3.93,1,1,0,0,0,.83.31h0a1.21,1.21,0,0,0,.48-.1,1.23,1.23,0,0,0,.37-.23,1.21,1.21,0,0,0,.27-.41c.08-.19.15-.36.2-.51a6,6,0,0,0,.14-.66,5.61,5.61,0,0,1,.1-.73c0-.2.06-.48.09-.85a13,13,0,0,0,.08-1.44V9.71a1.73,1.73,0,0,0-.28-1,1,1,0,0,0-.88-.39c-.73,0-1.25.47-1.56,1.42H32.92L34.07.57h7.46l-.27,2.66H36.32l-.56,3.58a2.28,2.28,0,0,1,.89-.52A4.7,4.7,0,0,1,37.92,6h.32a2.51,2.51,0,0,1,2.34,1.21,5.19,5.19,0,0,1,.58,2.64A8.11,8.11,0,0,1,41.1,11a16.49,16.49,0,0,1-.31,2,7.71,7.71,0,0,1-.54,1.62,4.33,4.33,0,0,1-.89,1.29,3.74,3.74,0,0,1-1.35.81A5.18,5.18,0,0,1,36.13,17Z"/><path class="cls-1" d="M.42,16.7l.22-2.14L5.18,8.47l.46-.6.48-.64c.1-.14.25-.35.42-.61a5.15,5.15,0,0,0,.39-.68,6.94,6.94,0,0,0,.25-.67,3.35,3.35,0,0,0,.16-.75v-.4a1.71,1.71,0,0,0-.21-.9.89.89,0,0,0-.8-.39H6.21c-.89.08-1.41.89-1.58,2.43L4.55,6h-3l.08-.76a7.74,7.74,0,0,1,.45-2A5.55,5.55,0,0,1,3,1.69a3.93,3.93,0,0,1,1.5-1,5.38,5.38,0,0,1,2-.37A3.89,3.89,0,0,1,9.61,1.41a3.62,3.62,0,0,1,.78,2.43v.71a4.31,4.31,0,0,1-.1.61,2.11,2.11,0,0,1-.13.55,3.1,3.1,0,0,1-.2.55l-.22.49a4.94,4.94,0,0,1-.28.49l-.28.45c-.06.1-.17.25-.33.47l-.33.44L8.13,9l-.35.44L4.11,14.29H8.89L8.64,16.7Z"/><path class="cls-1" d="M15.41,14.31c.81,0,1.29-.7,1.43-2.1l.74-7.09v-1a1.61,1.61,0,0,0-.07-.47,1.76,1.76,0,0,0-.17-.37A.77.77,0,0,0,17.08,3a1.21,1.21,0,0,0-.48-.09,1.15,1.15,0,0,0-.59.15,1.2,1.2,0,0,0-.39.34,1.87,1.87,0,0,0-.25.53,4.65,4.65,0,0,0-.14.57,5.42,5.42,0,0,1-.08.59l-.74,7.09v.58C14.38,13.8,14.72,14.31,15.41,14.31Zm-.29,2.64a3.62,3.62,0,0,1-3-1.26A4.24,4.24,0,0,1,11.28,13a6.74,6.74,0,0,1,0-.77L12.07,5a5.78,5.78,0,0,1,1.44-3.49A4.45,4.45,0,0,1,16.87.29,3.62,3.62,0,0,1,20,1.56a4.33,4.33,0,0,1,.76,2.65,8.21,8.21,0,0,1,0,.84L20,12.27a5.53,5.53,0,0,1-1.48,3.41A4.45,4.45,0,0,1,15.12,16.95Z"/><path class="cls-1" d="M24.71,16.7l1.36-13-2.53.8.24-2.26c.55-.2,1.16-.47,1.84-.79a5.63,5.63,0,0,0,1.48-1h2.35l-1.7,16.19Z"/><path class="cls-1" d="M36.22,16.95a5,5,0,0,1-2-.35,2.35,2.35,0,0,1-1.17-1A4.14,4.14,0,0,1,32.54,14a5.34,5.34,0,0,1,0-.81,11,11,0,0,1,0-1.19h3c0,.46-.06.86-.06,1.21a1.77,1.77,0,0,0,0,.23,1.44,1.44,0,0,0,.3.93,1,1,0,0,0,.82.31h0a1.52,1.52,0,0,0,.48-.1,1.31,1.31,0,0,0,.36-.23,1.33,1.33,0,0,0,.28-.42,4.67,4.67,0,0,0,.19-.51,3.9,3.9,0,0,0,.14-.65,4.19,4.19,0,0,1,.11-.73,5.81,5.81,0,0,1,.09-.86c0-.54.08-1,.08-1.43V9.65a1.76,1.76,0,0,0-.29-1.05,1,1,0,0,0-.88-.39c-.72,0-1.25.48-1.56,1.43H33L34.16.51h7.46l-.28,2.66H36.4l-.55,3.58a2.2,2.2,0,0,1,.89-.52A4.62,4.62,0,0,1,38,6h.33a2.48,2.48,0,0,1,2.33,1.21,5.16,5.16,0,0,1,.59,2.64A7,7,0,0,1,41.18,11a19.55,19.55,0,0,1-.3,1.94,8.84,8.84,0,0,1-.55,1.62,4.28,4.28,0,0,1-.89,1.29,3.78,3.78,0,0,1-1.34.81A5.45,5.45,0,0,1,36.22,16.95Z"/><path class="cls-1" d="M.5,16.64.72,14.5,5.27,8.41q.12-.18.45-.6l.49-.64c.11-.15.24-.35.41-.61A5.88,5.88,0,0,0,7,5.88a5,5,0,0,0,.25-.67,3.35,3.35,0,0,0,.16-.75,2.82,2.82,0,0,0,0-.4,1.66,1.66,0,0,0-.21-.9.87.87,0,0,0-.79-.39H6.29c-.88.07-1.41.88-1.58,2.43l-.08.73h-3l.08-.77a8.2,8.2,0,0,1,.45-2,5.35,5.35,0,0,1,.92-1.55,3.71,3.71,0,0,1,1.46-1,5.19,5.19,0,0,1,2-.37A3.86,3.86,0,0,1,9.69,1.35a3.57,3.57,0,0,1,.78,2.43,6,6,0,0,1,0,.71,4.31,4.31,0,0,1-.1.61,2.11,2.11,0,0,1-.13.55,3.42,3.42,0,0,1-.2.55l-.22.49a3.5,3.5,0,0,1-.28.49l-.28.45-.33.47-.32.43L8.21,9l-.35.44L4.19,14.23H9l-.26,2.41Z"/><path class="cls-1" d="M15.49,14.25q1.22,0,1.44-2.1L17.67,5V4a1.33,1.33,0,0,0-.07-.47,2.11,2.11,0,0,0-.17-.38A.63.63,0,0,0,17.16,3,1.29,1.29,0,0,0,16.1,3a1.26,1.26,0,0,0-.4.35,1.75,1.75,0,0,0-.24.53,4.91,4.91,0,0,0-.15.57c0,.16-.05.36-.07.59l-.75,7.09v.58C14.46,13.74,14.81,14.25,15.49,14.25Zm-.28,2.64a3.6,3.6,0,0,1-3.06-1.27,4.21,4.21,0,0,1-.79-2.6,7,7,0,0,1,0-.78L12.15,5A5.79,5.79,0,0,1,13.6,1.5,4.42,4.42,0,0,1,17,.23,3.61,3.61,0,0,1,20,1.5a4.33,4.33,0,0,1,.76,2.65,6.19,6.19,0,0,1,0,.84L20,12.2a5.51,5.51,0,0,1-1.48,3.41A4.39,4.39,0,0,1,15.21,16.89Z"/><path class="cls-1" d="M24.8,16.64l1.35-13-2.53.8.24-2.27a18.48,18.48,0,0,0,1.84-.79,5.25,5.25,0,0,0,1.48-1h2.35l-1.7,16.19Z"/><path class="cls-1" d="M36.3,16.89a5.16,5.16,0,0,1-2-.35,2.49,2.49,0,0,1-1.17-1A4.2,4.2,0,0,1,32.66,14a7,7,0,0,1,0-.81,9.14,9.14,0,0,1,.09-1.23h3a11.19,11.19,0,0,0-.07,1.21v.23a1.44,1.44,0,0,0,.3.92,1,1,0,0,0,.82.32h0a1.21,1.21,0,0,0,.48-.11,1.51,1.51,0,0,0,.37-.22,1.27,1.27,0,0,0,.27-.42,3.65,3.65,0,0,0,.19-.51,4.81,4.81,0,0,0,.15-.66,5.43,5.43,0,0,1,.1-.72c0-.19,0-.49.09-.86a12.94,12.94,0,0,0,.08-1.43V9.59a1.74,1.74,0,0,0-.28-1.05,1,1,0,0,0-.88-.39c-.73,0-1.25.48-1.56,1.43H33.09L34.24.45H41.7L41.43,3.1H36.49l-.56,3.59a2.28,2.28,0,0,1,.89-.53,4.62,4.62,0,0,1,1.27-.25h.32a2.48,2.48,0,0,1,2.33,1.21,5.15,5.15,0,0,1,.59,2.63,10.08,10.08,0,0,1-.07,1.19,18.86,18.86,0,0,1-.3,1.93,7.74,7.74,0,0,1-.55,1.62,4.21,4.21,0,0,1-.89,1.3,3.78,3.78,0,0,1-1.34.81A5.41,5.41,0,0,1,36.3,16.89Z"/><path class="cls-1" d="M.58,16.58l.23-2.14,4.54-6.1.45-.6.49-.64a7,7,0,0,0,.42-.6,5.62,5.62,0,0,0,.38-.68c.09-.19.17-.42.26-.67a4,4,0,0,0,.16-.75V4a1.66,1.66,0,0,0-.22-.9.87.87,0,0,0-.79-.39H6.37c-.88.07-1.41.88-1.58,2.43l-.08.72h-3l.07-.76a7.65,7.65,0,0,1,.46-2A5.19,5.19,0,0,1,3.2,1.57a3.67,3.67,0,0,1,1.47-1,5.19,5.19,0,0,1,2-.37,3.84,3.84,0,0,1,3.1,1.08,3.53,3.53,0,0,1,.78,2.43,6,6,0,0,1,0,.72,1.46,1.46,0,0,1-.09.61,2.85,2.85,0,0,0-.13.55,5.54,5.54,0,0,1-.2.55c-.1.2-.17.36-.22.48a4.89,4.89,0,0,1-.28.5l-.29.45c-.05.09-.17.25-.33.47l-.32.43c-.05.07-.17.23-.36.46L8,9.38,4.27,14.16H9.06l-.25,2.42Z"/><path class="cls-1" d="M15.57,14.18q1.23,0,1.44-2.1L17.75,5v-1a2,2,0,0,0-.07-.47,2.59,2.59,0,0,0-.17-.38.71.71,0,0,0-.32-.27,1.14,1.14,0,0,0-.48-.09,1.11,1.11,0,0,0-.58.14,1.38,1.38,0,0,0-.4.35,2,2,0,0,0-.24.53,3.12,3.12,0,0,0-.14.57,5.28,5.28,0,0,1-.08.58l-.74,7.09v.59C14.55,13.68,14.89,14.18,15.57,14.18Zm-.28,2.65a3.6,3.6,0,0,1-3.06-1.27,4.28,4.28,0,0,1-.79-2.65v-.77l.75-7.21a5.79,5.79,0,0,1,1.45-3.49A4.42,4.42,0,0,1,17,.17a3.58,3.58,0,0,1,3.08,1.27,4.3,4.3,0,0,1,.77,2.65,5,5,0,0,1,0,.84l-.75,7.21a5.56,5.56,0,0,1-1.48,3.41A4.47,4.47,0,0,1,15.29,16.83Z"/><path class="cls-1" d="M24.88,16.58l1.36-13-2.53.8.23-2.27a17.53,17.53,0,0,0,1.84-.79,5.1,5.1,0,0,0,1.48-1h2.36l-1.7,16.2Z"/><path class="cls-1" d="M36.38,16.83a5,5,0,0,1-2-.36,2.35,2.35,0,0,1-1.16-1,4.26,4.26,0,0,1-.48-1.57,7,7,0,0,1,0-.81,9,9,0,0,1,.09-1.23h3c0,.45-.07.86-.07,1.21v.22a1.45,1.45,0,0,0,.3.93,1,1,0,0,0,.83.31h0a1.21,1.21,0,0,0,.48-.1,1.23,1.23,0,0,0,.37-.23,1.21,1.21,0,0,0,.27-.41c.08-.19.15-.36.2-.51a5.11,5.11,0,0,0,.14-.66,5.61,5.61,0,0,1,.1-.73c0-.2.06-.48.09-.85a13,13,0,0,0,.08-1.44V9.52a1.73,1.73,0,0,0-.28-1,1,1,0,0,0-.88-.39c-.73,0-1.25.47-1.56,1.43H33.17L34.32.38h7.46L41.51,3H36.57L36,6.62a2.4,2.4,0,0,1,.89-.52,4.7,4.7,0,0,1,1.27-.26h.32A2.53,2.53,0,0,1,40.83,7a5.22,5.22,0,0,1,.58,2.64,8,8,0,0,1-.06,1.18,16.49,16.49,0,0,1-.35,2,7.71,7.71,0,0,1-.54,1.62,4.38,4.38,0,0,1-.89,1.3,3.88,3.88,0,0,1-1.35.81A5.41,5.41,0,0,1,36.38,16.83Z"/><path class="cls-1" d="M.67,16.51l.22-2.14L5.43,8.28l.46-.6L6.37,7a7,7,0,0,0,.42-.6,6.85,6.85,0,0,0,.39-.68c.08-.2.17-.42.25-.67a3.6,3.6,0,0,0,.16-.75v-.4A1.66,1.66,0,0,0,7.4,3a.89.89,0,0,0-.8-.39H6.46c-.89.07-1.41.88-1.58,2.43l-.08.72h-3L1.92,5a7.66,7.66,0,0,1,.45-2,5.47,5.47,0,0,1,.91-1.56,3.93,3.93,0,0,1,1.47-1,5.38,5.38,0,0,1,2-.36A3.85,3.85,0,0,1,9.86,1.22a3.62,3.62,0,0,1,.78,2.43v.71a4.44,4.44,0,0,1-.1.62,2.33,2.33,0,0,1-.13.55,3.34,3.34,0,0,1-.2.54L10,6.56a4.89,4.89,0,0,1-.28.5l-.28.44c-.06.1-.17.25-.33.47l-.33.44-.35.46L8,9.32,4.36,14.1H9.14l-.25,2.41Z"/><path class="cls-1" d="M15.66,14.12c.81,0,1.29-.7,1.43-2.1l.74-7.09V4a1.53,1.53,0,0,0-.07-.46,1.84,1.84,0,0,0-.17-.38.68.68,0,0,0-.31-.27,1.06,1.06,0,0,0-.48-.1,1.15,1.15,0,0,0-.59.15,1.11,1.11,0,0,0-.39.35,1.8,1.8,0,0,0-.25.52,4.35,4.35,0,0,0-.14.58,5.62,5.62,0,0,1-.08.58L14.66,12v.59C14.63,13.62,15,14.12,15.66,14.12Zm-.29,2.65a3.62,3.62,0,0,1-3-1.27,4.22,4.22,0,0,1-.79-2.65,6.85,6.85,0,0,1,0-.77l.75-7.22a5.73,5.73,0,0,1,1.44-3.48A4.42,4.42,0,0,1,17.12.11a3.59,3.59,0,0,1,3.09,1.27A4.28,4.28,0,0,1,21,4a8.21,8.21,0,0,1,0,.84l-.75,7.22a5.53,5.53,0,0,1-1.48,3.41A4.45,4.45,0,0,1,15.37,16.77Z"/><path class="cls-1" d="M25,16.51l1.36-13-2.53.81L24,2.08c.55-.2,1.16-.47,1.84-.79a5.63,5.63,0,0,0,1.48-1H29.7L28,16.51Z"/><path class="cls-1" d="M36.47,16.77a5,5,0,0,1-2-.36,2.35,2.35,0,0,1-1.17-1,4.15,4.15,0,0,1-.47-1.56,5.34,5.34,0,0,1,0-.81,10.71,10.71,0,0,1,.08-1.23h3c0,.45-.06.86-.06,1.21a1.61,1.61,0,0,0,0,.22,1.4,1.4,0,0,0,.3.93,1,1,0,0,0,.82.31h0a1.29,1.29,0,0,0,.48-.1,1.31,1.31,0,0,0,.36-.23,1.39,1.39,0,0,0,.28-.41c.08-.19.14-.36.19-.51a4.31,4.31,0,0,0,.14-.66,4.19,4.19,0,0,1,.11-.73,5.7,5.7,0,0,1,.09-.85c0-.54.08-1,.08-1.44V9.46a1.73,1.73,0,0,0-.29-1,1,1,0,0,0-1-.44c-.72,0-1.25.47-1.56,1.42H33.25L34.41.32h7.46L41.59,3H36.65L36.1,6.56A2.2,2.2,0,0,1,37,6a4.62,4.62,0,0,1,1.26-.26h.33A2.48,2.48,0,0,1,40.91,7a5.19,5.19,0,0,1,.59,2.6,7,7,0,0,1-.07,1.18,19.09,19.09,0,0,1-.3,1.94,8.36,8.36,0,0,1-.55,1.62,4.15,4.15,0,0,1-.89,1.29,3.78,3.78,0,0,1-1.34.81A5.22,5.22,0,0,1,36.47,16.77Z"/><path class="cls-1" d="M.75,16.45,1,14.31,5.52,8.22A4.55,4.55,0,0,1,6,7.62L6.46,7c.11-.15.24-.35.41-.61a5.15,5.15,0,0,0,.39-.68A5,5,0,0,0,7.51,5a3.35,3.35,0,0,0,.16-.75,2.75,2.75,0,0,0,0-.4A1.71,1.71,0,0,0,7.48,3a.87.87,0,0,0-.79-.39H6.54C5.66,2.67,5.13,3.48,5,5l-.08.73h-3L2,5a8.17,8.17,0,0,1,.45-2,5.35,5.35,0,0,1,.92-1.55,3.71,3.71,0,0,1,1.46-1,5.38,5.38,0,0,1,2-.37A3.89,3.89,0,0,1,9.94,1.16a3.52,3.52,0,0,1,.78,2.43,5.85,5.85,0,0,1,0,.71,4.31,4.31,0,0,1-.1.61,2.11,2.11,0,0,1-.13.55,3.1,3.1,0,0,1-.2.55c-.09.2-.16.37-.22.49A3.5,3.5,0,0,1,9.75,7l-.28.45c-.06.1-.17.25-.33.47s-.27.36-.32.44l-.36.46-.35.44L4.44,14H9.23L9,16.45Z"/><path class="cls-1" d="M15.74,14q1.22,0,1.44-2.1l.74-7.09v-1a1.33,1.33,0,0,0-.07-.47A1.76,1.76,0,0,0,17.72,3a.71.71,0,0,0-.31-.28,1.21,1.21,0,0,0-.48-.09,1.11,1.11,0,0,0-.58.15,1.24,1.24,0,0,0-.4.34,1.87,1.87,0,0,0-.24.53,4.91,4.91,0,0,0-.15.57c0,.17-.05.36-.07.59l-.75,7.09v.58C14.71,13.55,15.06,14,15.74,14Zm-.28,2.64A3.63,3.63,0,0,1,12.4,15.4a4.24,4.24,0,0,1-.79-2.65,6.74,6.74,0,0,1,0-.77l.75-7.22a5.79,5.79,0,0,1,1.45-3.49A4.42,4.42,0,0,1,17.21,0a3.61,3.61,0,0,1,3.08,1.27A4.33,4.33,0,0,1,21,3.94a6.1,6.1,0,0,1,0,.84L20.25,12a5.53,5.53,0,0,1-1.48,3.41,4.42,4.42,0,0,1-3.31,1.27Z"/><path class="cls-1" d="M25,16.45l1.35-13-2.52.8L24.11,2c.55-.2,1.17-.47,1.84-.79a5.47,5.47,0,0,0,1.48-1h2.35l-1.7,16.19Z"/><path class="cls-1" d="M36.55,16.7a5,5,0,0,1-2-.35,2.44,2.44,0,0,1-1.17-1,4.14,4.14,0,0,1-.47-1.57,7,7,0,0,1,0-.81A9.14,9.14,0,0,1,33,11.74h3a11.19,11.19,0,0,0-.07,1.21v.23a1.56,1.56,0,0,0,.3.93,1,1,0,0,0,.82.31h0a1.41,1.41,0,0,0,.48-.1,1.54,1.54,0,0,0,.37-.23,1.17,1.17,0,0,0,.27-.42,3.24,3.24,0,0,0,.19-.51,5,5,0,0,0,.15-.65,5.61,5.61,0,0,1,.1-.73c0-.2,0-.49.09-.86,0-.54.08-1,.08-1.43V9.4a1.76,1.76,0,0,0-.28-1.05A1,1,0,0,0,37.62,8c-.73,0-1.25.48-1.56,1.43H33.34L34.49.26H42l-.32,2.66H36.74L36.18,6.5A2.28,2.28,0,0,1,37.07,6a4.62,4.62,0,0,1,1.27-.26h.32A2.48,2.48,0,0,1,41,6.92a5.16,5.16,0,0,1,.59,2.64,9.92,9.92,0,0,1-.07,1.18,19.55,19.55,0,0,1-.3,1.94,8.15,8.15,0,0,1-.55,1.62,4.28,4.28,0,0,1-.89,1.29,3.78,3.78,0,0,1-1.34.81A5.41,5.41,0,0,1,36.55,16.7Z"/><path class="cls-2" d="M.75,16.44,1,14.3,5.55,8.2,6,7.6,6.49,7c.11-.14.24-.34.41-.6a5.88,5.88,0,0,0,.39-.68A5.61,5.61,0,0,0,7.51,5a3.35,3.35,0,0,0,.16-.75,2.82,2.82,0,0,0,0-.4A1.66,1.66,0,0,0,7.46,3a.87.87,0,0,0-.79-.39H6.54C5.66,2.65,5.13,3.46,5,5l-.08.72h-3L2,5a8.09,8.09,0,0,1,.45-2,5.22,5.22,0,0,1,.92-1.55,3.71,3.71,0,0,1,1.46-1,5.19,5.19,0,0,1,2-.37,3.89,3.89,0,0,1,3.11,1,3.53,3.53,0,0,1,.78,2.43,6,6,0,0,1,0,.72,4.55,4.55,0,0,1-.1.61,2.22,2.22,0,0,1-.13.55,3.8,3.8,0,0,1-.2.55c-.09.2-.16.36-.22.48a3.5,3.5,0,0,1-.28.5l-.28.45-.33.47-.32.43c-.06.07-.17.23-.36.46l-.35.45L4.44,14H9.23L9,16.44Z"/><path class="cls-2" d="M15.46,16.69a3.6,3.6,0,0,1-3.06-1.27,4.22,4.22,0,0,1-.79-2.65,7,7,0,0,1,0-.77l.75-7.21A5.79,5.79,0,0,1,13.81,1.3,4.39,4.39,0,0,1,17.21,0a3.58,3.58,0,0,1,3.08,1.27A4.31,4.31,0,0,1,21,3.94a6.28,6.28,0,0,1,0,.84L20.25,12a5.51,5.51,0,0,1-1.48,3.41A4.43,4.43,0,0,1,15.46,16.69ZM15.74,14q1.22,0,1.44-2.1l.74-7.09v-1a1.33,1.33,0,0,0-.07-.47A1.84,1.84,0,0,0,17.72,3a.63.63,0,0,0-.31-.27,1.29,1.29,0,0,0-1.06,0,1.26,1.26,0,0,0-.4.35,1.75,1.75,0,0,0-.24.53,4.91,4.91,0,0,0-.15.57c0,.16-.05.36-.07.58l-.75,7.09v.59C14.71,13.54,15.06,14,15.74,14Z"/><path class="cls-2" d="M25,16.44l1.35-13-2.52.8L24.11,2A18.48,18.48,0,0,0,26,1.21a5.24,5.24,0,0,0,1.48-1h2.35l-1.7,16.2Z"/><path class="cls-2" d="M36.55,16.69a5,5,0,0,1-2-.36,2.42,2.42,0,0,1-1.17-1,4.26,4.26,0,0,1-.47-1.57,7,7,0,0,1,0-.81A9.14,9.14,0,0,1,33,11.72h3a11.06,11.06,0,0,0-.07,1.21v.22a1.51,1.51,0,0,0,.3.93,1,1,0,0,0,.82.32h0a1.41,1.41,0,0,0,.48-.11A1.54,1.54,0,0,0,37.8,14a1.21,1.21,0,0,0,.27-.41,4.18,4.18,0,0,0,.19-.51,4.81,4.81,0,0,0,.15-.66,5.61,5.61,0,0,1,.1-.73c0-.2,0-.48.09-.85,0-.54.08-1,.08-1.44v0a1.74,1.74,0,0,0-.28-1A1,1,0,0,0,37.52,8c-.73,0-1.25.47-1.56,1.43H33.34L34.49.24H42L41.73,2.9h-5l-.56,3.58A2.4,2.4,0,0,1,37.07,6a5,5,0,0,1,1.27-.26h.32A2.5,2.5,0,0,1,41,6.9a5.21,5.21,0,0,1,.59,2.64,9.8,9.8,0,0,1-.07,1.18,19.09,19.09,0,0,1-.3,1.94,7.74,7.74,0,0,1-.55,1.62,4.21,4.21,0,0,1-.89,1.3,3.78,3.78,0,0,1-1.34.81A5.41,5.41,0,0,1,36.55,16.69Z"/></g></g></g></g></svg>