<svg xmlns="http://www.w3.org/2000/svg" viewBox="0 0 42.09 17.28"><defs><style>.cls-1{fill:#cf4137;}.cls-2{fill:#fff;}</style></defs><title>Asset 20</title><g id="Layer_2" data-name="Layer 2"><g id="Layer_1-2" data-name="Layer 1"><g id="Layer_2-2" data-name="Layer 2"><g id="Layer_1-2-2" data-name="Layer 1-2"><path class="cls-1" d="M0,17l.22-2.14,4.55-6.1q.12-.18.45-.6l.49-.64c.11-.15.24-.35.41-.61a5.88,5.88,0,0,0,.39-.68,5,5,0,0,0,.25-.67,3.35,3.35,0,0,0,.16-.75,2.82,2.82,0,0,0,0-.4,1.66,1.66,0,0,0-.21-.9.87.87,0,0,0-.79-.39H5.79c-.88.08-1.41.88-1.58,2.44l-.08.73h-3l.08-.77a8.2,8.2,0,0,1,.45-2A5.35,5.35,0,0,1,2.62,2,3.71,3.71,0,0,1,4.08,1a5.19,5.19,0,0,1,2-.37A3.86,3.86,0,0,1,9.19,1.72,3.52,3.52,0,0,1,10,4.15a6,6,0,0,1,0,.71,4.31,4.31,0,0,1-.1.61A2.11,2.11,0,0,1,9.77,6a3.42,3.42,0,0,1-.2.55L9.28,7A3.5,3.5,0,0,1,9,7.55L8.72,8l-.33.47-.32.43-.36.47-.35.44L3.69,14.6H8.48L8.22,17Z"/><path class="cls-1" d="M15,14.62q1.22,0,1.44-2.1l.74-7.09v-1a1.33,1.33,0,0,0,0-.44A2.11,2.11,0,0,0,17,3.61a.63.63,0,0,0-.31-.27,1.21,1.21,0,0,0-.48-.09,1.11,1.11,0,0,0-.58.15,1.13,1.13,0,0,0-.4.34,1.75,1.75,0,0,0-.24.53,4.91,4.91,0,0,0-.15.57c0,.16-.05.36-.07.59L14,12.52v.58C14,14.11,14.31,14.62,15,14.62Zm-.28,2.64A3.6,3.6,0,0,1,11.65,16a4.21,4.21,0,0,1-.79-2.64,7,7,0,0,1,0-.78l.75-7.21A5.79,5.79,0,0,1,13.1,1.87,4.42,4.42,0,0,1,16.46.6a3.61,3.61,0,0,1,3.08,1.27,4.33,4.33,0,0,1,.76,2.65,6.19,6.19,0,0,1,0,.84l-.75,7.21A5.51,5.51,0,0,1,18,16a4.39,4.39,0,0,1-3.29,1.24Z"/><path class="cls-1" d="M24.3,17,25.65,4l-2.53.8.24-2.27a18.48,18.48,0,0,0,1.84-.79,5.25,5.25,0,0,0,1.48-1H29L27.33,17Z"/><path class="cls-1" d="M36.15,14.92a1.19,1.19,0,0,0,.66-.19,1.31,1.31,0,0,0,.44-.59,5.1,5.1,0,0,0,.27-.86c.06-.31.12-.69.17-1.14s.08-1,.1-1.44v-.16a1.62,1.62,0,0,0-.22-.88,1,1,0,0,0-.84-.4,1.49,1.49,0,0,0-.81.25,1.93,1.93,0,0,0-.57.57l-.26,2.52a5.76,5.76,0,0,0,0,.69C35,14.37,35.42,14.92,36.15,14.92Zm-.27,2.3a4.26,4.26,0,0,1-1.88-.4,2.92,2.92,0,0,1-1.24-1.14A4.9,4.9,0,0,1,32.13,14,6,6,0,0,1,32,12.88a7,7,0,0,1,0-1l.59-5.6A14.1,14.1,0,0,1,33,4.45a7.73,7.73,0,0,1,.58-1.54,4.28,4.28,0,0,1,.91-1.23A3.87,3.87,0,0,1,35.81.9,5.33,5.33,0,0,1,37.62.61a3.74,3.74,0,0,1,3,1A3.63,3.63,0,0,1,41.33,4V4.7a.85.85,0,0,1,0,.13,1,1,0,0,0,0,.13h-2.9V3.84a1,1,0,0,0-.28-.68,1.06,1.06,0,0,0-.76-.23,1.13,1.13,0,0,0-1.08.72,8.56,8.56,0,0,0-.55,2.58l-.17,1.71a1.92,1.92,0,0,1,.88-.72,3.35,3.35,0,0,1,1.3-.28h.07a3.54,3.54,0,0,1,1.28.21,2.17,2.17,0,0,1,.88.67,3.13,3.13,0,0,1,.56,1,4.1,4.1,0,0,1,.23,1.29v1.5Q40.17,17.22,35.88,17.22Z"/><path class="cls-1" d="M.08,17l.23-2.14,4.54-6.1.45-.6.49-.64a7,7,0,0,0,.42-.6,5.62,5.62,0,0,0,.38-.68c.09-.19.17-.42.26-.67A4,4,0,0,0,7,4.77v-.4a1.66,1.66,0,0,0-.22-.9A.87.87,0,0,0,6,3.08H5.87C5,3.16,4.46,4,4.29,5.52l-.08.72h-3l.07-.76a7.75,7.75,0,0,1,.46-2A5.19,5.19,0,0,1,2.7,1.94a3.67,3.67,0,0,1,1.47-1,5.19,5.19,0,0,1,2-.37,3.84,3.84,0,0,1,3.1,1.08,3.55,3.55,0,0,1,.78,2.43,6,6,0,0,1,0,.72,1.46,1.46,0,0,1-.09.61A2.85,2.85,0,0,0,9.83,6a4.76,4.76,0,0,1-.2.55c-.1.2-.17.36-.22.49a3.5,3.5,0,0,1-.28.49l-.29.45c-.05.09-.17.25-.33.47l-.32.43c-.05.07-.17.23-.36.46l-.34.45L3.77,14.53H8.56L8.31,17Z"/><path class="cls-1" d="M15.07,14.55q1.23,0,1.44-2.1l.74-7.09v-1a2,2,0,0,0-.07-.47A2.59,2.59,0,0,0,17,3.55a.71.71,0,0,0-.32-.27,1.14,1.14,0,0,0-.48-.09,1.21,1.21,0,0,0-.58.14,1.38,1.38,0,0,0-.4.35,2,2,0,0,0-.24.53,3.33,3.33,0,0,0-.14.57,5.28,5.28,0,0,1-.08.58L14,12.45V13C14.05,14,14.39,14.55,15.07,14.55Zm-.28,2.65a3.6,3.6,0,0,1-3.06-1.27,4.28,4.28,0,0,1-.79-2.65v-.77l.75-7.21a5.79,5.79,0,0,1,1.45-3.49A4.42,4.42,0,0,1,16.54.54a3.58,3.58,0,0,1,3.08,1.27,4.32,4.32,0,0,1,.77,2.65,5,5,0,0,1,0,.84l-.75,7.21a5.56,5.56,0,0,1-1.48,3.41A4.47,4.47,0,0,1,14.79,17.2Z"/><path class="cls-1" d="M24.38,17,25.74,4l-2.53.8.23-2.27a17.53,17.53,0,0,0,1.84-.79,5.1,5.1,0,0,0,1.48-1h2.36L27.42,17Z"/><path class="cls-1" d="M36.24,14.86a1.16,1.16,0,0,0,.65-.19,1.37,1.37,0,0,0,.44-.59,3.76,3.76,0,0,0,.27-.86,8.74,8.74,0,0,0,.17-1.14c0-.53.08-1,.11-1.44v-.16a1.62,1.62,0,0,0-.23-.88,1,1,0,0,0-.84-.4,1.35,1.35,0,0,0-.8.25,1.86,1.86,0,0,0-.58.57l-.26,2.52v.69C35.13,14.31,35.5,14.86,36.24,14.86ZM36,17.16a4.26,4.26,0,0,1-1.93-.4,2.89,2.89,0,0,1-1.27-1.14,4.9,4.9,0,0,1-.59-1.69,7,7,0,0,1-.08-1.14v-1l.59-5.61A12.35,12.35,0,0,1,33,4.37a7.13,7.13,0,0,1,.57-1.54,4.31,4.31,0,0,1,.92-1.23A3.82,3.82,0,0,1,35.89.84,5.33,5.33,0,0,1,37.7.55a3.77,3.77,0,0,1,3,1A3.67,3.67,0,0,1,41.41,4V4.7a.93.93,0,0,1,0,.13.89.89,0,0,1,0,.13h-2.9V4.13a2.71,2.71,0,0,0,0-.29,1,1,0,0,0-.28-.68,1,1,0,0,0-.75-.24,1.17,1.17,0,0,0-1.09.73,8.87,8.87,0,0,0-.54,2.57l-.18,1.71a2,2,0,0,1,.88-.71,3.19,3.19,0,0,1,1.31-.28h.07a3.52,3.52,0,0,1,1.27.21,2.2,2.2,0,0,1,.93.65,3.31,3.31,0,0,1,.55,1A3.79,3.79,0,0,1,40.9,10v1.5Q40.27,17.16,36,17.16Z"/><path class="cls-1" d="M.17,16.88l.22-2.13,4.54-6.1L5.39,8l.48-.64a7,7,0,0,0,.42-.6,5.88,5.88,0,0,0,.39-.68c.08-.19.17-.42.25-.67a3.6,3.6,0,0,0,.16-.75v-.4a1.66,1.66,0,0,0-.21-.9A.89.89,0,0,0,6.1,3H6c-.89.07-1.41.88-1.58,2.43l-.08.72h-3l.08-.76a7.66,7.66,0,0,1,.45-2,5.47,5.47,0,0,1,.91-1.56,4,4,0,0,1,1.47-1,5.38,5.38,0,0,1,2-.36,3.85,3.85,0,0,1,3.11,1.1A3.62,3.62,0,0,1,10.14,4v.72a4.55,4.55,0,0,1-.1.61,2.22,2.22,0,0,1-.13.55,3.34,3.34,0,0,1-.2.54l-.22.49a4.89,4.89,0,0,1-.28.5l-.28.45c-.06.09-.17.25-.33.46l-.33.44-.35.46-.35.45L3.86,14.47H8.64l-.25,2.41Z"/><path class="cls-1" d="M15.16,14.49c.81,0,1.29-.7,1.43-2.1l.74-7.09v-1a1.55,1.55,0,0,0-.07-.47,1.84,1.84,0,0,0-.17-.38.68.68,0,0,0-.31-.27,1.21,1.21,0,0,0-.48-.1,1.15,1.15,0,0,0-.59.15,1.11,1.11,0,0,0-.39.35,1.75,1.75,0,0,0-.25.53,3.91,3.91,0,0,0-.07.57,5.62,5.62,0,0,1-.08.58l-.74,7.09V13C14.13,14,14.47,14.49,15.16,14.49Zm-.29,2.65a3.62,3.62,0,0,1-3-1.27A4.22,4.22,0,0,1,11,13.22a6.85,6.85,0,0,1,0-.77l.75-7.22a5.75,5.75,0,0,1,1.44-3.48A4.42,4.42,0,0,1,16.62.48a3.59,3.59,0,0,1,3.09,1.27,4.28,4.28,0,0,1,.76,2.64,8.21,8.21,0,0,1,0,.84l-.75,7.22a5.51,5.51,0,0,1-1.48,3.41A4.45,4.45,0,0,1,14.87,17.14Z"/><path class="cls-1" d="M24.46,16.88l1.36-13-2.53.8.24-2.27a19.54,19.54,0,0,0,1.84-.79,5.63,5.63,0,0,0,1.48-1H29.2L27.5,16.88Z"/><path class="cls-1" d="M36.32,14.79A1.08,1.08,0,0,0,37,14.6a1.29,1.29,0,0,0,.45-.58,5.41,5.41,0,0,0,.27-.86A11.17,11.17,0,0,0,37.85,12c0-.53.08-1,.11-1.44v-.16a1.6,1.6,0,0,0-.22-.88.93.93,0,0,0-.84-.4,1.43,1.43,0,0,0-.81.24,2,2,0,0,0-.57.58l-.27,2.52v.68C35.22,14.25,35.58,14.79,36.32,14.79ZM36,17.1a4.23,4.23,0,0,1-1.93-.41,3,3,0,0,1-1.24-1.13,4.76,4.76,0,0,1-.58-1.69,6,6,0,0,1-.08-1.15,8.19,8.19,0,0,1,0-1l.58-5.61a13.85,13.85,0,0,1,.31-1.81,7,7,0,0,1,.58-1.54,4.28,4.28,0,0,1,.91-1.23A3.87,3.87,0,0,1,36,.78,5,5,0,0,1,37.8.49a3.74,3.74,0,0,1,3,1,3.62,3.62,0,0,1,.71,2.4v.68a1.09,1.09,0,0,0,0,.13,1.09,1.09,0,0,0,0,.12h-2.9V4a2.71,2.71,0,0,0,0-.29,1,1,0,0,0-.3-.69,1.07,1.07,0,0,0-.76-.24,1.13,1.13,0,0,0-1.08.73,8.4,8.4,0,0,0-.55,2.57l-.18,1.71a2.12,2.12,0,0,1,.88-.72,3.4,3.4,0,0,1,1.31-.27H38A3.58,3.58,0,0,1,39.28,7a2.3,2.3,0,0,1,.92.64,3.39,3.39,0,0,1,.56,1A4,4,0,0,1,41,10v.31a9.56,9.56,0,0,1,0,1.18Q40.34,17.11,36,17.1Z"/><path class="cls-1" d="M.25,16.82l.22-2.14L5,8.59q.12-.18.45-.6L6,7.35c.11-.14.24-.35.41-.61a5.86,5.86,0,0,0,.39-.67A6.34,6.34,0,0,0,7,5.4a3.56,3.56,0,0,0,.16-.76,2.75,2.75,0,0,0,0-.4A1.65,1.65,0,0,0,7,3.35.87.87,0,0,0,6.21,3H6C5.12,3,4.59,3.85,4.42,5.4l-.08.72h-3l.08-.76a8.09,8.09,0,0,1,.45-2A5.27,5.27,0,0,1,2.79,1.8,3.81,3.81,0,0,1,4.25.8a5.2,5.2,0,0,1,2-.36A3.85,3.85,0,0,1,9.44,1.53,3.57,3.57,0,0,1,10.22,4a5.74,5.74,0,0,1,0,.71,4.09,4.09,0,0,1-.1.61,2.3,2.3,0,0,1-.13.56,3.34,3.34,0,0,1-.2.54c-.09.2-.16.37-.22.49a3.5,3.5,0,0,1-.28.49L9,7.81c-.06.1-.17.25-.33.47l-.32.44L8,9.18l-.35.45L3.94,14.41H8.73l-.26,2.41Z"/><path class="cls-1" d="M15.24,14.43q1.22,0,1.44-2.1l.74-7.09v-1a1.37,1.37,0,0,0-.07-.47,1.76,1.76,0,0,0-.17-.37.63.63,0,0,0-.31-.27,1.06,1.06,0,0,0-.48-.1,1.11,1.11,0,0,0-.58.15,1.15,1.15,0,0,0-.4.35,1.68,1.68,0,0,0-.24.52,4.91,4.91,0,0,0-.15.57,5.34,5.34,0,0,0,0,.59l-.75,7.09v.59C14.21,13.93,14.56,14.43,15.24,14.43ZM15,17.08a3.63,3.63,0,0,1-3.06-1.27,4.24,4.24,0,0,1-.79-2.65,6.85,6.85,0,0,1,0-.77l.75-7.22a5.73,5.73,0,0,1,1.45-3.48A4.39,4.39,0,0,1,16.71.42a3.58,3.58,0,0,1,3.08,1.27,4.28,4.28,0,0,1,.76,2.64,6.1,6.1,0,0,1,0,.84l-.75,7.22a5.53,5.53,0,0,1-1.48,3.41A4.43,4.43,0,0,1,15,17.08Z"/><path class="cls-1" d="M24.55,16.82l1.35-13-2.52.8.23-2.26c.55-.2,1.17-.47,1.84-.79a5.47,5.47,0,0,0,1.48-1h2.35l-1.7,16.25Z"/><path class="cls-1" d="M36.4,14.73a1.12,1.12,0,0,0,.66-.19A1.28,1.28,0,0,0,37.5,14a5.41,5.41,0,0,0,.27-.86c.06-.31.12-.69.17-1.14s.08-1,.1-1.45v-.15a1.6,1.6,0,0,0-.22-.88.93.93,0,0,0-.84-.4,1.47,1.47,0,0,0-.81.24,2.09,2.09,0,0,0-.57.58l-.26,2.52a5.6,5.6,0,0,0,0,.68C35.3,14.19,35.67,14.73,36.4,14.73ZM36.13,17a4.26,4.26,0,0,1-1.93-.41A2.92,2.92,0,0,1,33,15.49a4.82,4.82,0,0,1-.58-1.69,6.8,6.8,0,0,1-.08-1.14,7,7,0,0,1,0-1L33,6.05a13.93,13.93,0,0,1,.3-1.81,7.51,7.51,0,0,1,.58-1.54,4,4,0,0,1,.91-1.23A4,4,0,0,1,36.06.71,5.33,5.33,0,0,1,37.87.43a3.74,3.74,0,0,1,3,1,3.64,3.64,0,0,1,.71,2.39v.69a1,1,0,0,1,0,.13.83.83,0,0,0,0,.12h-2.9V3.65A1,1,0,0,0,38.39,3a1.11,1.11,0,0,0-.76-.23,1.13,1.13,0,0,0-1.08.73A8.4,8.4,0,0,0,36,6l-.17,1.71A1.92,1.92,0,0,1,36.71,7,3.54,3.54,0,0,1,38,6.77h.07A3.53,3.53,0,0,1,39.36,7a2.15,2.15,0,0,1,.92.64,3.18,3.18,0,0,1,.56,1A4,4,0,0,1,41.07,10v1.49Q40.42,17,36.13,17Z"/><path class="cls-1" d="M.33,16.76l.23-2.14L5.1,8.53q.12-.18.45-.6L6,7.29c.11-.15.25-.35.42-.61A5,5,0,0,0,6.84,6a6.77,6.77,0,0,0,.26-.67,4,4,0,0,0,.16-.75V4.2A1.69,1.69,0,0,0,7,3.3a.87.87,0,0,0-.79-.39H6.12C5.24,3,4.71,3.8,4.54,5.34L4.46,6h-3l.07-.76a7.73,7.73,0,0,1,.46-2A5.32,5.32,0,0,1,3,1.75a3.67,3.67,0,0,1,1.47-1,5.38,5.38,0,0,1,2-.37A3.88,3.88,0,0,1,9.52,1.47,3.52,3.52,0,0,1,10.3,3.9a5.85,5.85,0,0,1,0,.71,1.44,1.44,0,0,1-.09.61L10,5.77a4.17,4.17,0,0,1-.2.55c-.1.2-.17.37-.22.49a4.94,4.94,0,0,1-.28.49L9,7.75a5,5,0,0,1-.33.47l-.32.43c-.05.08-.17.23-.36.47l-.34.44L4,14.35H8.81l-.25,2.41Z"/><path class="cls-1" d="M15.32,14.37q1.23,0,1.44-2.1l.74-7.09v-1a2,2,0,0,0-.07-.47,2.48,2.48,0,0,0-.17-.37A.8.8,0,0,0,17,3.09,1.14,1.14,0,0,0,16.51,3a1.11,1.11,0,0,0-.58.15,1.22,1.22,0,0,0-.4.34,2.2,2.2,0,0,0-.24.53,3.33,3.33,0,0,0-.14.57,5.42,5.42,0,0,1-.08.59l-.74,7.09v.58C14.3,13.86,14.64,14.37,15.32,14.37ZM15,17a3.6,3.6,0,0,1-3-1.28,4.27,4.27,0,0,1-.79-2.64v-.77L12,5.11a5.79,5.79,0,0,1,1.43-3.49A4.45,4.45,0,0,1,16.79.35a3.61,3.61,0,0,1,3.08,1.27,4.34,4.34,0,0,1,.77,2.65,8.21,8.21,0,0,1,0,.84l-.75,7.22a5.59,5.59,0,0,1-1.48,3.41A4.46,4.46,0,0,1,15,17Z"/><path class="cls-1" d="M24.63,16.76,26,3.79l-2.53.8.23-2.26a19.94,19.94,0,0,0,1.84-.79A5.31,5.31,0,0,0,27,.57h2.36l-1.7,16.19Z"/><path class="cls-1" d="M36.49,14.67a1.08,1.08,0,0,0,.65-.19,1.31,1.31,0,0,0,.44-.59,3.76,3.76,0,0,0,.27-.86A8.31,8.31,0,0,0,38,11.9c0-.54.08-1,.11-1.45V10.3a1.57,1.57,0,0,0-.23-.88A.93.93,0,0,0,37,9a1.35,1.35,0,0,0-.8.24,1.89,1.89,0,0,0-.58.58l-.26,2.52V13C35.38,14.13,35.75,14.67,36.49,14.67ZM36.21,17a4.26,4.26,0,0,1-1.93-.41A2.89,2.89,0,0,1,33,15.47a4.9,4.9,0,0,1-.59-1.69,7,7,0,0,1-.08-1.14v-1L33,6a12.12,12.12,0,0,1,.31-1.81,7.21,7.21,0,0,1,.57-1.55,4.31,4.31,0,0,1,.92-1.23A3.82,3.82,0,0,1,36.14.65,5.33,5.33,0,0,1,38,.36a3.74,3.74,0,0,1,3,1,3.64,3.64,0,0,1,.71,2.39v.69a1,1,0,0,1,0,.13.84.84,0,0,1,0,.12h-2.9V3.87a2.62,2.62,0,0,0,0-.29,1,1,0,0,0-.28-.69,1.08,1.08,0,0,0-.75-.23,1.15,1.15,0,0,0-1.09.73A8.79,8.79,0,0,0,36.09,6l-.18,1.71A1.92,1.92,0,0,1,36.79,7a3.36,3.36,0,0,1,1.31-.28h.07A3.31,3.31,0,0,1,39.44,7a2.18,2.18,0,0,1,.93.64,3.37,3.37,0,0,1,.55,1,3.79,3.79,0,0,1,.23,1.29v1.49C40.71,15.1,39.08,17,36.21,17Z"/><path class="cls-1" d="M.42,16.7l.22-2.14L5.18,8.47l.46-.6.48-.64c.1-.14.25-.35.42-.61a5.88,5.88,0,0,0,.39-.68,6.94,6.94,0,0,0,.25-.67,3.35,3.35,0,0,0,.16-.75v-.4a1.66,1.66,0,0,0-.21-.9.89.89,0,0,0-.8-.39H6.21c-.89.07-1.41.88-1.58,2.43L4.55,6h-3l.08-.77a7.76,7.76,0,0,1,.45-2A5.55,5.55,0,0,1,3,1.69a3.82,3.82,0,0,1,1.5-1,5.19,5.19,0,0,1,2-.37A3.86,3.86,0,0,1,9.61,1.41a3.62,3.62,0,0,1,.78,2.43v.71a4.31,4.31,0,0,1-.1.61,2.11,2.11,0,0,1-.13.55,3.42,3.42,0,0,1-.2.55c-.09.2-.17.36-.22.49a4.94,4.94,0,0,1-.28.49l-.28.45-.33.47-.33.43L8.13,9l-.35.44L4.11,14.29H8.89L8.64,16.7Z"/><path class="cls-1" d="M15.41,14.31c.81,0,1.29-.7,1.43-2.1l.74-7.09v-1a1.61,1.61,0,0,0-.07-.47,2.11,2.11,0,0,0-.17-.38A.68.68,0,0,0,17.08,3a1.21,1.21,0,0,0-.48-.09,1.15,1.15,0,0,0-.59.15,1.09,1.09,0,0,0-.39.34,1.87,1.87,0,0,0-.25.53,4.65,4.65,0,0,0-.14.57,5.77,5.77,0,0,1-.08.59l-.74,7.09v.58C14.38,13.8,14.72,14.31,15.41,14.31ZM15.12,17a3.6,3.6,0,0,1-3-1.27A4.21,4.21,0,0,1,11.28,13a7,7,0,0,1,0-.78L12.07,5a5.78,5.78,0,0,1,1.44-3.49A4.45,4.45,0,0,1,16.87.29,3.62,3.62,0,0,1,20,1.56a4.33,4.33,0,0,1,.76,2.65,8.21,8.21,0,0,1,0,.84L20,12.26a5.51,5.51,0,0,1-1.48,3.41A4.41,4.41,0,0,1,15.12,17Z"/><path class="cls-1" d="M24.71,16.7l1.36-13-2.53.8.24-2.27a19.54,19.54,0,0,0,1.84-.79,5.4,5.4,0,0,0,1.48-1h2.35l-1.7,16.19Z"/><path class="cls-1" d="M36.57,14.61a1.08,1.08,0,0,0,.65-.19,1.33,1.33,0,0,0,.45-.59,5.1,5.1,0,0,0,.27-.86,11.35,11.35,0,0,0,.16-1.13c0-.54.08-1,.11-1.45v-.16A1.62,1.62,0,0,0,38,9.35a1,1,0,0,0-.84-.4,1.44,1.44,0,0,0-.81.25,1.82,1.82,0,0,0-.57.57l-.27,2.52V13C35.47,14.07,35.83,14.61,36.57,14.61Zm-.27,2.3a4.23,4.23,0,0,1-1.93-.4,2.92,2.92,0,0,1-1.24-1.14,4.7,4.7,0,0,1-.58-1.69,6,6,0,0,1-.08-1.14,8.36,8.36,0,0,1,0-1l.58-5.6a14,14,0,0,1,.31-1.82A7.17,7.17,0,0,1,34,2.6a4.28,4.28,0,0,1,.91-1.23A3.87,3.87,0,0,1,36.23.59,5.27,5.27,0,0,1,38,.3a3.74,3.74,0,0,1,3,1,3.57,3.57,0,0,1,.71,2.39v.68a1.38,1.38,0,0,0,0,.14.83.83,0,0,0,0,.12H38.8V3.81a2.91,2.91,0,0,0,0-.3,1,1,0,0,0-.27-.68,1.06,1.06,0,0,0-.76-.23,1.13,1.13,0,0,0-1.08.72,8.56,8.56,0,0,0-.55,2.58L36,7.65a2,2,0,0,1,.88-.72,3.4,3.4,0,0,1,1.31-.28h.07a3.58,3.58,0,0,1,1.28.21,2.23,2.23,0,0,1,.92.65,3.33,3.33,0,0,1,.56,1,4.16,4.16,0,0,1,.23,1.29v.32a9.64,9.64,0,0,1,0,1.18Q40.59,16.91,36.3,16.91Z"/><path class="cls-1" d="M.5,16.64.72,14.5,5.27,8.4l.45-.6.49-.64c.11-.14.24-.34.41-.6A5.88,5.88,0,0,0,7,5.88a5.61,5.61,0,0,0,.25-.67,3.35,3.35,0,0,0,.16-.75,2.82,2.82,0,0,0,0-.4,1.66,1.66,0,0,0-.21-.9.87.87,0,0,0-.79-.39H6.29c-.88.07-1.41.88-1.58,2.43l-.08.72h-3l.08-.76a8.2,8.2,0,0,1,.45-2,5.22,5.22,0,0,1,.92-1.55,3.71,3.71,0,0,1,1.46-1,5.19,5.19,0,0,1,2-.37,3.85,3.85,0,0,1,3.15,1.1,3.61,3.61,0,0,1,.78,2.44,6,6,0,0,1,0,.71,4.55,4.55,0,0,1-.1.61,2.22,2.22,0,0,1-.13.55,3.42,3.42,0,0,1-.2.55l-.22.49a4.18,4.18,0,0,1-.28.49l-.28.45-.33.47-.32.43c-.06.07-.17.23-.36.46l-.35.45L4.19,14.22H9l-.26,2.42Z"/><path class="cls-1" d="M15.49,14.24q1.22,0,1.44-2.1L17.67,5v-1a1.33,1.33,0,0,0-.07-.47,1.84,1.84,0,0,0-.17-.38A.63.63,0,0,0,17.16,3,1.29,1.29,0,0,0,16.1,3a1.26,1.26,0,0,0-.4.35,1.75,1.75,0,0,0-.24.53,4.91,4.91,0,0,0-.15.57c0,.16-.05.36-.07.58l-.75,7.09v.59C14.46,13.74,14.81,14.24,15.49,14.24Zm-.28,2.65a3.6,3.6,0,0,1-3.06-1.27,4.22,4.22,0,0,1-.79-2.6,7,7,0,0,1,0-.77L12.15,5A5.79,5.79,0,0,1,13.6,1.5,4.39,4.39,0,0,1,17,.23,3.58,3.58,0,0,1,20,1.5a4.31,4.31,0,0,1,.76,2.65,6.28,6.28,0,0,1,0,.84L20,12.2a5.51,5.51,0,0,1-1.48,3.41A4.43,4.43,0,0,1,15.21,16.89Z"/><path class="cls-1" d="M24.8,16.64l1.35-13-2.53.8.24-2.27a18.48,18.48,0,0,0,1.84-.79,5.47,5.47,0,0,0,1.48-1h2.35l-1.7,16.19Z"/><path class="cls-1" d="M36.65,14.55a1.19,1.19,0,0,0,.66-.19,1.37,1.37,0,0,0,.44-.59,5.1,5.1,0,0,0,.27-.86c.06-.31.12-.69.17-1.14s.08-1,.1-1.44v-.16a1.62,1.62,0,0,0-.22-.88,1,1,0,0,0-.84-.4,1.41,1.41,0,0,0-.81.25,1.93,1.93,0,0,0-.57.57l-.26,2.52a5.76,5.76,0,0,0,0,.69C35.55,14,35.92,14.55,36.65,14.55Zm-.27,2.3a4.26,4.26,0,0,1-1.93-.4,2.92,2.92,0,0,1-1.24-1.14,4.9,4.9,0,0,1-.58-1.69,7,7,0,0,1-.08-1.14,7,7,0,0,1,0-1l.59-5.61a13.93,13.93,0,0,1,.3-1.81,7.73,7.73,0,0,1,.58-1.54A4.28,4.28,0,0,1,35,1.31,3.87,3.87,0,0,1,36.31.53,5.33,5.33,0,0,1,38.12.24a3.74,3.74,0,0,1,3,1,3.63,3.63,0,0,1,.71,2.39v.68a.93.93,0,0,1,0,.13,1,1,0,0,0,0,.13h-2.9V3.45a1,1,0,0,0-.28-.68,1.07,1.07,0,0,0-.76-.24,1.14,1.14,0,0,0-1.08.73,8.48,8.48,0,0,0-.55,2.57l-.17,1.71A2,2,0,0,1,37,6.87a3.18,3.18,0,0,1,1.3-.28h.07a3.54,3.54,0,0,1,1.28.21,2.17,2.17,0,0,1,.92.65,3.13,3.13,0,0,1,.56,1,4,4,0,0,1,.23,1.29v1.47Q40.67,16.85,36.38,16.85Z"/><path class="cls-1" d="M.58,16.57l.23-2.13,4.54-6.1q.12-.18.45-.6l.49-.64a7,7,0,0,0,.42-.6,5.62,5.62,0,0,0,.38-.68c.09-.19.17-.42.26-.67a4.39,4.39,0,0,0,.16-.75V4a1.66,1.66,0,0,0-.22-.9.87.87,0,0,0-.79-.39H6.37c-.88.07-1.41.88-1.58,2.43l-.08.72h-3l.07-.76a7.65,7.65,0,0,1,.46-2A5.25,5.25,0,0,1,3.2,1.56a3.88,3.88,0,0,1,1.47-1,5.38,5.38,0,0,1,2-.36,3.84,3.84,0,0,1,3.1,1.12,3.52,3.52,0,0,1,.78,2.43,6,6,0,0,1,0,.72,1.46,1.46,0,0,1-.09.61,2.85,2.85,0,0,0-.13.55,5.54,5.54,0,0,1-.2.55c-.1.2-.17.36-.22.48a4.89,4.89,0,0,1-.28.5l-.29.45A5.25,5.25,0,0,1,9,8l-.32.44c-.05.07-.17.23-.36.46L8,9.38,4.27,14.16H9.06l-.25,2.41Z"/><path class="cls-1" d="M15.57,14.18q1.23,0,1.44-2.1L17.75,5v-1a2,2,0,0,0-.07-.47,2.59,2.59,0,0,0-.17-.38.71.71,0,0,0-.32-.27,1.14,1.14,0,0,0-.48-.1,1.11,1.11,0,0,0-.58.15,1.25,1.25,0,0,0-.4.35,2,2,0,0,0-.24.53,2.94,2.94,0,0,0-.14.57,5.62,5.62,0,0,1-.08.58l-.74,7.09v.59C14.55,13.68,14.89,14.18,15.57,14.18Zm-.28,2.65a3.6,3.6,0,0,1-3.06-1.27,4.28,4.28,0,0,1-.79-2.65v-.77l.75-7.22a5.76,5.76,0,0,1,1.45-3.48A4.42,4.42,0,0,1,17,.17a3.58,3.58,0,0,1,3.08,1.27,4.29,4.29,0,0,1,.77,2.64,8.21,8.21,0,0,1,0,.84l-.75,7.22a5.56,5.56,0,0,1-1.48,3.41A4.47,4.47,0,0,1,15.29,16.83Z"/><path class="cls-1" d="M24.88,16.57l1.36-13-2.53.8.23-2.27a17.53,17.53,0,0,0,1.84-.79,5.31,5.31,0,0,0,1.48-1h2.36L27.92,16.5Z"/><path class="cls-1" d="M36.74,14.48a1.08,1.08,0,0,0,.65-.19,1.28,1.28,0,0,0,.44-.58,3.92,3.92,0,0,0,.27-.86,8.74,8.74,0,0,0,.17-1.14c0-.53.08-1,.11-1.44v-.16a1.6,1.6,0,0,0-.23-.88.93.93,0,0,0-.84-.4,1.42,1.42,0,0,0-.8.24,2,2,0,0,0-.58.58l-.26,2.52v.68C35.63,13.94,36,14.48,36.74,14.48Zm-.28,2.31a4.26,4.26,0,0,1-1.93-.41,2.93,2.93,0,0,1-1.23-1.13,4.9,4.9,0,0,1-.59-1.69,7,7,0,0,1-.08-1.15v-1l.59-5.61A12.35,12.35,0,0,1,33.58,4a6.94,6.94,0,0,1,.57-1.54,4.31,4.31,0,0,1,.92-1.23A3.82,3.82,0,0,1,36.39.47,5.09,5.09,0,0,1,38.2.18a3.74,3.74,0,0,1,3,1,3.67,3.67,0,0,1,.71,2.4v.68a.93.93,0,0,1,0,.13.55.55,0,0,1,0,.12H39V3.69a2.71,2.71,0,0,0,0-.29,1,1,0,0,0-.28-.68A1,1,0,0,0,38,2.51a1.15,1.15,0,0,0-1.09.73,8.79,8.79,0,0,0-.54,2.57l-.21,1.71A2.06,2.06,0,0,1,37,6.8a3.36,3.36,0,0,1,1.31-.27h.07a3.52,3.52,0,0,1,1.27.21,2.2,2.2,0,0,1,.93.65,3.2,3.2,0,0,1,.55,1,3.79,3.79,0,0,1,.23,1.29v1.49Q40.77,16.79,36.46,16.79Z"/><path class="cls-1" d="M.67,16.51l.22-2.14L5.43,8.28l.46-.6L6.37,7c.11-.14.25-.35.42-.61a5.86,5.86,0,0,0,.39-.67c.08-.2.17-.42.25-.67a3.56,3.56,0,0,0,.16-.76v-.4A1.65,1.65,0,0,0,7.4,3a.89.89,0,0,0-.8-.39H6.46c-.89.07-1.41.88-1.58,2.43l-.08.72h-3L1.92,5a7.66,7.66,0,0,1,.45-2,5.47,5.47,0,0,1,.91-1.56,3.93,3.93,0,0,1,1.47-1,5.2,5.2,0,0,1,2-.36A3.85,3.85,0,0,1,9.86,1.22a3.62,3.62,0,0,1,.78,2.43v.71a4.09,4.09,0,0,1-.1.61,2.3,2.3,0,0,1-.13.56,3.34,3.34,0,0,1-.2.54L10,6.56A4.94,4.94,0,0,1,9.67,7l-.28.45c-.06.1-.17.25-.33.47l-.33.44-.35.46L8,9.32,4.36,14.1H9.14l-.25,2.41Z"/><path class="cls-1" d="M15.66,14.12c.81,0,1.29-.7,1.43-2.1l.74-7.09V4a1.53,1.53,0,0,0-.07-.46,1.63,1.63,0,0,0-.17-.38.68.68,0,0,0-.31-.27,1.06,1.06,0,0,0-.48-.1,1.15,1.15,0,0,0-.59.15,1.11,1.11,0,0,0-.39.35,1.8,1.8,0,0,0-.25.52,4.65,4.65,0,0,0-.14.57,5.42,5.42,0,0,1-.08.59L14.66,12v.59C14.63,13.62,15,14.12,15.66,14.12Zm-.29,2.65a3.62,3.62,0,0,1-3-1.27,4.24,4.24,0,0,1-.79-2.65,6.85,6.85,0,0,1,0-.77l.75-7.22a5.73,5.73,0,0,1,1.44-3.48A4.42,4.42,0,0,1,17.12.11a3.59,3.59,0,0,1,3.09,1.27A4.28,4.28,0,0,1,21,4a8.21,8.21,0,0,1,0,.84l-.75,7.22a5.53,5.53,0,0,1-1.48,3.41A4.45,4.45,0,0,1,15.37,16.77Z"/><path class="cls-1" d="M25,16.51l1.36-13-2.53.8L24,2.08c.55-.2,1.16-.47,1.84-.79a5.63,5.63,0,0,0,1.48-1H29.7L28,16.51Z"/><path class="cls-1" d="M36.82,14.42a1.08,1.08,0,0,0,.65-.19,1.29,1.29,0,0,0,.45-.58,5.41,5.41,0,0,0,.27-.86,11.17,11.17,0,0,0,.16-1.14c0-.53.08-1,.11-1.45V10a1.6,1.6,0,0,0-.22-.88.93.93,0,0,0-.84-.4,1.43,1.43,0,0,0-.81.24,2,2,0,0,0-.57.58l-.27,2.52v.68C35.72,13.88,36.08,14.42,36.82,14.42Zm-.27,2.31a4.23,4.23,0,0,1-1.93-.41,2.92,2.92,0,0,1-1.24-1.14,4.64,4.64,0,0,1-.58-1.68,6,6,0,0,1-.08-1.15,8.09,8.09,0,0,1,0-1l.58-5.61a13.85,13.85,0,0,1,.31-1.81,7,7,0,0,1,.58-1.54,4,4,0,0,1,.91-1.23A4,4,0,0,1,36.48.4a5.27,5.27,0,0,1,1.8-.28,3.74,3.74,0,0,1,3,1A3.61,3.61,0,0,1,42,3.54v.69a.89.89,0,0,0,0,.13.94.94,0,0,0,0,.12H39.1V3.66a2.71,2.71,0,0,0,0-.29,1,1,0,0,0-.27-.69,1.11,1.11,0,0,0-.76-.23A1.13,1.13,0,0,0,37,3.18a8.4,8.4,0,0,0-.55,2.57l-.18,1.71a2,2,0,0,1,.88-.72,3.6,3.6,0,0,1,1.31-.28h.07a3.57,3.57,0,0,1,1.28.22,2.21,2.21,0,0,1,.92.64,3.39,3.39,0,0,1,.56,1,4,4,0,0,1,.23,1.29v.31a9.56,9.56,0,0,1,0,1.18Q40.84,16.74,36.55,16.73Z"/><path class="cls-1" d="M.75,16.45,1,14.31,5.52,8.22A4.55,4.55,0,0,1,6,7.62L6.46,7c.11-.15.24-.35.41-.61a5.15,5.15,0,0,0,.39-.68A5,5,0,0,0,7.51,5a3.35,3.35,0,0,0,.16-.75,2.75,2.75,0,0,0,0-.4A1.71,1.71,0,0,0,7.48,3a.87.87,0,0,0-.79-.39H6.54C5.66,2.67,5.13,3.48,5,5l-.08.73h-3L2,5a8.17,8.17,0,0,1,.45-2,5.35,5.35,0,0,1,.92-1.55,3.71,3.71,0,0,1,1.46-1,5.38,5.38,0,0,1,2-.37A3.89,3.89,0,0,1,9.94,1.16a3.52,3.52,0,0,1,.78,2.43,5.85,5.85,0,0,1,0,.71,4.31,4.31,0,0,1-.1.61,2.11,2.11,0,0,1-.13.55,3.1,3.1,0,0,1-.2.55c-.09.2-.16.37-.22.49A3.5,3.5,0,0,1,9.75,7l-.28.45c-.06.1-.17.25-.33.47s-.27.36-.32.44l-.36.46-.35.44L4.44,14H9.23L9,16.45Z"/><path class="cls-1" d="M15.74,14q1.22,0,1.44-2.1l.74-7.09v-1a1.33,1.33,0,0,0-.07-.47A1.76,1.76,0,0,0,17.72,3a.71.71,0,0,0-.31-.28,1.21,1.21,0,0,0-.48-.09,1.11,1.11,0,0,0-.58.15,1.24,1.24,0,0,0-.4.34,1.87,1.87,0,0,0-.24.53,4.91,4.91,0,0,0-.15.57c0,.17-.05.36-.07.59l-.75,7.09v.58C14.71,13.55,15.06,14,15.74,14Zm-.28,2.64A3.63,3.63,0,0,1,12.4,15.4a4.24,4.24,0,0,1-.79-2.65,6.74,6.74,0,0,1,0-.77l.75-7.22a5.79,5.79,0,0,1,1.45-3.49A4.42,4.42,0,0,1,17.21,0a3.61,3.61,0,0,1,3.08,1.27A4.33,4.33,0,0,1,21,3.94a6.1,6.1,0,0,1,0,.84L20.25,12a5.53,5.53,0,0,1-1.48,3.41,4.42,4.42,0,0,1-3.31,1.27Z"/><path class="cls-1" d="M25,16.45l1.35-13-2.52.8L24.11,2c.55-.2,1.17-.47,1.84-.79a5.47,5.47,0,0,0,1.48-1h2.35l-1.7,16.19Z"/><path class="cls-1" d="M36.9,14.36a1.12,1.12,0,0,0,.66-.19,1.31,1.31,0,0,0,.44-.59,5.29,5.29,0,0,0,.27-.85c.06-.31.12-.69.17-1.14s.08-1,.1-1.45V10a1.57,1.57,0,0,0-.22-.88.93.93,0,0,0-.84-.4,1.47,1.47,0,0,0-.81.24,2,2,0,0,0-.57.58L35.84,12a5.49,5.49,0,0,0,0,.68C35.8,13.82,36.17,14.36,36.9,14.36Zm-.27,2.31a4.26,4.26,0,0,1-1.93-.41,2.92,2.92,0,0,1-1.24-1.14,4.9,4.9,0,0,1-.58-1.69,6,6,0,0,1-.08-1.14,7,7,0,0,1,0-1l.59-5.6a13.65,13.65,0,0,1,.3-1.81,7.82,7.82,0,0,1,.58-1.55,4.28,4.28,0,0,1,.91-1.23A3.87,3.87,0,0,1,36.56.34,5.33,5.33,0,0,1,38.37,0a3.74,3.74,0,0,1,3,1,3.64,3.64,0,0,1,.71,2.39V4.1a1,1,0,0,1,0,.13.83.83,0,0,0,0,.12h-2.9V3.24a1,1,0,0,0-.28-.69,1.11,1.11,0,0,0-.76-.23,1.13,1.13,0,0,0-1.08.73,8.4,8.4,0,0,0-.55,2.57l-.17,1.71a1.92,1.92,0,0,1,.88-.72,3.54,3.54,0,0,1,1.3-.28h.07a3.33,3.33,0,0,1,1.28.22,2.15,2.15,0,0,1,.92.64,3.18,3.18,0,0,1,.56,1,4,4,0,0,1,.23,1.29V11C41.12,14.79,39.49,16.67,36.63,16.67Z"/><path class="cls-2" d="M.75,16.44,1,14.3,5.55,8.2,6,7.6,6.49,7c.11-.14.24-.34.41-.6a5.88,5.88,0,0,0,.39-.68A5.61,5.61,0,0,0,7.51,5a3.35,3.35,0,0,0,.16-.75,2.82,2.82,0,0,0,0-.4A1.66,1.66,0,0,0,7.46,3a.87.87,0,0,0-.79-.39H6.54C5.66,2.65,5.13,3.46,5,5l-.08.72h-3L2,5a8.09,8.09,0,0,1,.45-2,5.22,5.22,0,0,1,.92-1.55,3.71,3.71,0,0,1,1.46-1,5.19,5.19,0,0,1,2-.37,3.89,3.89,0,0,1,3.11,1,3.53,3.53,0,0,1,.78,2.43,6,6,0,0,1,0,.72,4.55,4.55,0,0,1-.1.61,2.22,2.22,0,0,1-.13.55,3.8,3.8,0,0,1-.2.55c-.09.2-.16.36-.22.48a3.5,3.5,0,0,1-.28.5l-.28.45-.33.47-.32.43c-.06.07-.17.23-.36.46l-.35.45L4.44,14H9.23L9,16.44Z"/><path class="cls-2" d="M15.46,16.69a3.6,3.6,0,0,1-3.06-1.27,4.22,4.22,0,0,1-.79-2.65,7,7,0,0,1,0-.77l.75-7.21A5.79,5.79,0,0,1,13.81,1.3,4.39,4.39,0,0,1,17.21,0a3.58,3.58,0,0,1,3.08,1.27A4.31,4.31,0,0,1,21,3.94a6.28,6.28,0,0,1,0,.84L20.25,12a5.51,5.51,0,0,1-1.48,3.41A4.43,4.43,0,0,1,15.46,16.69ZM15.74,14q1.22,0,1.44-2.1l.74-7.09v-1a1.33,1.33,0,0,0-.07-.47A1.84,1.84,0,0,0,17.72,3a.63.63,0,0,0-.31-.27,1.29,1.29,0,0,0-1.06,0,1.26,1.26,0,0,0-.4.35,1.75,1.75,0,0,0-.24.53,4.91,4.91,0,0,0-.15.57c0,.16-.05.36-.07.58l-.75,7.09v.59C14.71,13.54,15.06,14,15.74,14Z"/><path class="cls-2" d="M25,16.44l1.35-13-2.52.8L24.11,2A18.48,18.48,0,0,0,26,1.21a5.24,5.24,0,0,0,1.48-1h2.35l-1.7,16.2Z"/><path class="cls-2" d="M36.63,16.65a4.26,4.26,0,0,1-1.93-.4,2.92,2.92,0,0,1-1.24-1.14,4.9,4.9,0,0,1-.58-1.69,6,6,0,0,1-.08-1.14,7,7,0,0,1,0-1l.59-5.61a13.93,13.93,0,0,1,.3-1.81,7.73,7.73,0,0,1,.58-1.54,4.28,4.28,0,0,1,.91-1.23A3.87,3.87,0,0,1,36.56.33,5.33,5.33,0,0,1,38.37,0a3.74,3.74,0,0,1,3,1,3.67,3.67,0,0,1,.71,2.4V4.1a.93.93,0,0,1,0,.13,1.09,1.09,0,0,0,0,.12h-2.9V3.24a1,1,0,0,0-.28-.68,1.07,1.07,0,0,0-.76-.24,1.14,1.14,0,0,0-1.08.73,8.48,8.48,0,0,0-.55,2.57l-.17,1.71a2,2,0,0,1,.88-.71,3.18,3.18,0,0,1,1.3-.28h.07a3.54,3.54,0,0,1,1.28.21,2.17,2.17,0,0,1,.92.65,3.13,3.13,0,0,1,.56,1,4,4,0,0,1,.23,1.29V11Q40.92,16.65,36.63,16.65Zm.27-2.3a1.19,1.19,0,0,0,.66-.19,1.37,1.37,0,0,0,.44-.59,5.1,5.1,0,0,0,.27-.86c.06-.31.12-.69.17-1.14s.08-1,.1-1.44V10a1.62,1.62,0,0,0-.22-.88,1,1,0,0,0-.84-.4,1.41,1.41,0,0,0-.81.25,1.93,1.93,0,0,0-.57.57L35.84,12a5.76,5.76,0,0,0,0,.69C35.8,13.8,36.17,14.35,36.9,14.35Z"/></g></g></g></g></svg>