<svg xmlns="http://www.w3.org/2000/svg" viewBox="0 0 41.56 17.13"><defs><style>.cls-1{fill:#cf4137;}.cls-2{fill:#fff;}</style></defs><title>Asset 22</title><g id="Layer_2" data-name="Layer 2"><g id="Layer_1-2" data-name="Layer 1"><g id="Layer_2-2" data-name="Layer 2"><g id="Layer_1-2-2" data-name="Layer 1-2"><path class="cls-1" d="M0,16.86l.22-2.14L4.77,8.63q.12-.18.45-.6l.49-.64c.11-.14.24-.35.41-.61a5.15,5.15,0,0,0,.39-.68,5.41,5.41,0,0,0,.25-.66,3.56,3.56,0,0,0,.16-.76,2.75,2.75,0,0,0,0-.4,1.65,1.65,0,0,0-.21-.89A.86.86,0,0,0,5.94,3H5.79c-.88.08-1.41.89-1.58,2.44l-.08.72h-3l.08-.76a8.17,8.17,0,0,1,.45-2,5.35,5.35,0,0,1,.92-1.55A3.81,3.81,0,0,1,4,.87,5.38,5.38,0,0,1,6,.51,3.85,3.85,0,0,1,9.19,1.57,3.52,3.52,0,0,1,10,4a5.74,5.74,0,0,1,0,.71,4.09,4.09,0,0,1-.1.61,2.3,2.3,0,0,1-.13.56,3.34,3.34,0,0,1-.2.54c-.09.2-.16.37-.22.49A3.5,3.5,0,0,1,9,7.4l-.28.45c-.06.1-.17.25-.33.47l-.32.44-.36.46c-.19.24-.3.39-.35.44L3.69,14.45H8.48l-.26,2.41Z"/><path class="cls-1" d="M15,14.47q1.22,0,1.44-2.1l.74-7.09v-1a1.33,1.33,0,0,0-.07-.47A1.76,1.76,0,0,0,17,3.47a.71.71,0,0,0-.31-.28,1.21,1.21,0,0,0-.48-.09,1.11,1.11,0,0,0-.58.15,1.15,1.15,0,0,0-.4.35,1.68,1.68,0,0,0-.23.52,4.91,4.91,0,0,0-.15.57c0,.17-.05.36-.07.59L14,12.37V13C14,14,14.31,14.47,15,14.47Zm-.28,2.65a3.63,3.63,0,0,1-3.06-1.27,4.24,4.24,0,0,1-.79-2.65,6.74,6.74,0,0,1,0-.77l.75-7.22A5.73,5.73,0,0,1,13.1,1.73,4.39,4.39,0,0,1,16.46.46a3.58,3.58,0,0,1,3.08,1.27,4.28,4.28,0,0,1,.76,2.64,6.1,6.1,0,0,1,0,.84l-.75,7.22A5.53,5.53,0,0,1,18,15.84a4.43,4.43,0,0,1-3.29,1.28Z"/><path class="cls-1" d="M24.3,16.86l1.35-13-2.53.8.24-2.26c.55-.2,1.17-.47,1.84-.79a5.47,5.47,0,0,0,1.48-1H29L27.3,16.8Z"/><path class="cls-1" d="M36.84,7.16c.77,0,1.25-.83,1.42-2.49a3.83,3.83,0,0,0,0-.47,2.07,2.07,0,0,0-.17-.92.82.82,0,0,0-.82-.53,1.06,1.06,0,0,0-.94.52,3,3,0,0,0-.44,1.39c0,.31,0,.59,0,.83C35.87,6.61,36.19,7.16,36.84,7.16Zm-1,9.94c-2.57,0-3.86-1.31-3.86-3.91a10.64,10.64,0,0,1,0-1.09,5.72,5.72,0,0,1,.72-2.29,3.8,3.8,0,0,1,1.55-1.48,3.57,3.57,0,0,1-1.28-3,5.78,5.78,0,0,1,0-.58,4.87,4.87,0,0,1,1.35-3.19A4.36,4.36,0,0,1,37.55.47a3.51,3.51,0,0,1,2.91,1.14A3.7,3.7,0,0,1,41.17,4a6,6,0,0,1,0,.83,4.65,4.65,0,0,1-2,3.54,2.83,2.83,0,0,1,1.24,1.48,4.64,4.64,0,0,1,.28,1.67v.62q-.46,5-4.84,5Zm-.47-2.52a1,1,0,0,0,.71.24,1.26,1.26,0,0,0,.75-.23,1.43,1.43,0,0,0,.48-.64,4.75,4.75,0,0,0,.25-.79c0-.25.09-.55.13-.88a5.25,5.25,0,0,0,.06-.79v-.16a4.1,4.1,0,0,0-.1-.83,1,1,0,0,0-1-.81,1.28,1.28,0,0,0-.73.22,1.49,1.49,0,0,0-.48.61,4,4,0,0,0-.28.8,9.52,9.52,0,0,0-.15,1A4.17,4.17,0,0,0,35,13v.16A6.34,6.34,0,0,0,35,14a1.08,1.08,0,0,0,.33.56Z"/><path class="cls-1" d="M0,16.81l.23-2.13,4.54-6.1q.12-.18.45-.6l.49-.64a7,7,0,0,0,.42-.6A7.44,7.44,0,0,0,6.55,6a5.61,5.61,0,0,0,.25-.67A3.65,3.65,0,0,0,7,4.64v-.4a1.66,1.66,0,0,0-.22-.9A.87.87,0,0,0,6,2.95H5.83C5,3,4.42,3.84,4.25,5.39l-.08.72h-3l.08-.76a7.65,7.65,0,0,1,.46-2,5.25,5.25,0,0,1,.91-1.56,3.92,3.92,0,0,1,1.46-1A5.47,5.47,0,0,1,6.17.4,3.84,3.84,0,0,1,9.23,1.52,3.52,3.52,0,0,1,10,3.95a6,6,0,0,1,0,.72,3.33,3.33,0,0,1-.09.61,4.86,4.86,0,0,1-.14.55,2.89,2.89,0,0,1-.2.55c-.09.2-.16.36-.22.48a3.26,3.26,0,0,1-.27.5l-.29.45c-.06.09-.17.25-.33.46l-.32.44-.36.46-.34.45L3.73,14.4H8.52l-.26,2.41Z"/><path class="cls-1" d="M15,14.42c.82,0,1.29-.7,1.44-2.1l.74-7.09V4.74a3.66,3.66,0,0,0,0-.47,1.58,1.58,0,0,0-.06-.47A1.88,1.88,0,0,0,17,3.42a.63.63,0,0,0-.31-.27,1,1,0,0,0-.48-.1,1.11,1.11,0,0,0-.58.15,1.38,1.38,0,0,0-.4.35,2,2,0,0,0-.24.53,2.94,2.94,0,0,0-.14.57,5.83,5.83,0,0,0-.08.58L14,12.32v.59C14,13.92,14.35,14.42,15,14.42Zm-.28,2.65a3.6,3.6,0,0,1-3.06-1.27,4.28,4.28,0,0,1-.79-2.65,7,7,0,0,1,0-.77l.75-7.22a5.76,5.76,0,0,1,1.45-3.48A4.42,4.42,0,0,1,16.5.41a3.58,3.58,0,0,1,3.08,1.27,4.28,4.28,0,0,1,.76,2.64,8.13,8.13,0,0,1,0,.84l-.76,7.22a5.51,5.51,0,0,1-1.48,3.41,4.43,4.43,0,0,1-3.35,1.28Z"/><path class="cls-1" d="M24.34,16.81l1.36-13-2.53.8.23-2.27a18.48,18.48,0,0,0,1.84-.79,5.31,5.31,0,0,0,1.48-1h2.36l-1.7,16.19Z"/><path class="cls-1" d="M36.88,7.12c.77,0,1.25-.83,1.42-2.49a4.12,4.12,0,0,0,0-.48,2.26,2.26,0,0,0-.16-.92.84.84,0,0,0-.82-.53,1.09,1.09,0,0,0-1,.52A3.21,3.21,0,0,0,36,4.62c0,.3,0,.58,0,.83C35.91,6.56,36.23,7.12,36.88,7.12Zm-1,9.93Q32,17,32,13.14A10.52,10.52,0,0,1,32,12a5.77,5.77,0,0,1,.72-2.29,3.8,3.8,0,0,1,1.55-1.48A3.6,3.6,0,0,1,33,5.32a5.78,5.78,0,0,1,0-.58,4.84,4.84,0,0,1,1.35-3.18A4.28,4.28,0,0,1,37.59.42,3.48,3.48,0,0,1,40.5,1.56a3.64,3.64,0,0,1,.71,2.35,8.07,8.07,0,0,1,0,.83,4.69,4.69,0,0,1-2,3.54,2.79,2.79,0,0,1,1.24,1.48,4.68,4.68,0,0,1,.29,1.67V12q-.53,5-4.9,5Zm-.47-2.52a1,1,0,0,0,.71.24,1.19,1.19,0,0,0,.75-.23,1.38,1.38,0,0,0,.48-.64,4,4,0,0,0,.25-.79,7.22,7.22,0,0,1,.13-.88,7,7,0,0,0,.07-.79v-.15a3.88,3.88,0,0,0-.11-.83,1.07,1.07,0,0,0-.34-.59,1,1,0,0,0-.69-.22,1.22,1.22,0,0,0-.72.21,1.43,1.43,0,0,0-.49.61,4.06,4.06,0,0,0-.27.81,8.89,8.89,0,0,0-.16,1A5.55,5.55,0,0,0,35,13a.75.75,0,0,0,0,.15,4,4,0,0,0,.09.82,1.08,1.08,0,0,0,.26.56Z"/><path class="cls-1" d="M.08,16.77l.23-2.14,4.54-6.1.45-.6c.22-.28.39-.49.49-.64s.25-.34.42-.6A4.52,4.52,0,0,0,6.59,6a5,5,0,0,0,.26-.67A4,4,0,0,0,7,4.59v-.4a1.58,1.58,0,0,0-.22-.9A.87.87,0,0,0,6,2.9H5.88Q4.55,3,4.29,5.34L4.22,6h-3l.07-.76a7.75,7.75,0,0,1,.46-2,5.19,5.19,0,0,1,1-1.5,3.75,3.75,0,0,1,1.47-1,5.19,5.19,0,0,1,2-.37,3.83,3.83,0,0,1,3.1,1.12,3.62,3.62,0,0,1,.79,2.44v.71a2.78,2.78,0,0,1-.1.61c0,.21-.09.39-.13.55a4.76,4.76,0,0,1-.2.55c-.09.2-.17.36-.22.49a3.5,3.5,0,0,1-.28.49c-.13.21-.23.35-.28.45a4,4,0,0,1-.34.47l-.32.43-.36.47-.34.44L3.78,14.36H8.56l-.25,2.41Z"/><path class="cls-1" d="M15.07,14.37q1.23,0,1.44-2.1l.74-7.08v-1a2,2,0,0,0-.07-.47A1.84,1.84,0,0,0,17,3.37a.66.66,0,0,0-.32-.27A1.13,1.13,0,0,0,16.27,3a1.22,1.22,0,0,0-.59.14,1.38,1.38,0,0,0-.4.35A2,2,0,0,0,15,4a3.33,3.33,0,0,0-.14.57,5.77,5.77,0,0,1-.08.59L14,12.26v.59C14.05,13.87,14.39,14.37,15.07,14.37ZM14.79,17a3.62,3.62,0,0,1-3.06-1.27,4.27,4.27,0,0,1-.79-2.64v-.78l.75-7.21a5.79,5.79,0,0,1,1.45-3.49A4.42,4.42,0,0,1,16.54.36a3.6,3.6,0,0,1,3.09,1.27,4.38,4.38,0,0,1,.76,2.65,5,5,0,0,1,0,.84l-.75,7.21a5.56,5.56,0,0,1-1.48,3.41A4.45,4.45,0,0,1,14.79,17Z"/><path class="cls-1" d="M24.38,16.77l1.36-13-2.53.8.23-2.27a17.53,17.53,0,0,0,1.84-.79,5.1,5.1,0,0,0,1.48-1h2.36L27.42,16.7Z"/><path class="cls-1" d="M36.92,7.07c.78,0,1.25-.83,1.43-2.49a4.12,4.12,0,0,0,0-.48,2.29,2.29,0,0,0-.17-.92.83.83,0,0,0-.82-.52,1.09,1.09,0,0,0-1,.51A3.21,3.21,0,0,0,36,4.57V5.4C36,6.51,36.28,7.07,36.92,7.07Zm-1,9.93c-2.58,0-3.86-1.3-3.86-3.9a8.55,8.55,0,0,1,0-1.08,5.76,5.76,0,0,1,.71-2.29,3.8,3.8,0,0,1,1.55-1.48,3.59,3.59,0,0,1-1.28-3,5.44,5.44,0,0,1,0-.57,4.92,4.92,0,0,1,1.35-3.19A4.32,4.32,0,0,1,37.63.37a3.51,3.51,0,0,1,2.91,1.14,3.67,3.67,0,0,1,.72,2.36V4.7a4.66,4.66,0,0,1-2,3.53,2.9,2.9,0,0,1,1.21,1.49,4.83,4.83,0,0,1,.28,1.67V12q-.5,5-4.86,5Zm-.48-2.51a1,1,0,0,0,.71.24,1.26,1.26,0,0,0,.75-.23,1.56,1.56,0,0,0,.49-.65A4.67,4.67,0,0,0,37.6,13a8.13,8.13,0,0,0,.13-.87,5.39,5.39,0,0,0,.07-.79V11.2a4.84,4.84,0,0,0-.1-.83,1.08,1.08,0,0,0-.35-.59,1,1,0,0,0-.68-.22,1.26,1.26,0,0,0-.73.21,1.49,1.49,0,0,0-.49.61,4.28,4.28,0,0,0-.27.81c-.06.27-.1.59-.15,1a4.08,4.08,0,0,0-.06.71V13a4.12,4.12,0,0,0,.09.82,1.17,1.17,0,0,0,.35.65Z"/><path class="cls-1" d="M.13,16.72l.22-2.14L4.89,8.49l.46-.6.48-.64c.1-.14.25-.35.42-.61A5.88,5.88,0,0,0,6.64,6a6.94,6.94,0,0,0,.25-.67A3.35,3.35,0,0,0,7,4.54v-.4a1.66,1.66,0,0,0-.21-.9A.89.89,0,0,0,6,2.85H5.92c-.89.07-1.41.88-1.58,2.43L4.26,6h-3l.08-.76a7.74,7.74,0,0,1,.45-2A5.55,5.55,0,0,1,2.7,1.71a3.82,3.82,0,0,1,1.47-1,5.38,5.38,0,0,1,2-.37A3.86,3.86,0,0,1,9.32,1.43a3.62,3.62,0,0,1,.78,2.43v.71a4.31,4.31,0,0,1-.1.61,2.11,2.11,0,0,1-.13.55,3.1,3.1,0,0,1-.2.55c-.09.2-.17.36-.22.49a4.94,4.94,0,0,1-.28.49l-.28.45-.33.47-.33.43c0,.08-.17.23-.35.47l-.35.44L3.82,14.31H8.6l-.25,2.41Z"/><path class="cls-1" d="M15.12,14.33c.81,0,1.29-.7,1.43-2.1l.74-7.09v-1a1.61,1.61,0,0,0-.07-.47A1.76,1.76,0,0,0,17,3.33.77.77,0,0,0,16.79,3a1.21,1.21,0,0,0-.48-.09,1.15,1.15,0,0,0-.59.15,1.09,1.09,0,0,0-.39.34,1.87,1.87,0,0,0-.25.53,4.65,4.65,0,0,0-.14.57,1.69,1.69,0,0,1-.08.59l-.74,7.09v.58C14.09,13.82,14.43,14.33,15.12,14.33ZM14.83,17a3.6,3.6,0,0,1-3.05-1.27A4.21,4.21,0,0,1,11,13a6.74,6.74,0,0,1,0-.77L11.75,5a5.78,5.78,0,0,1,1.44-3.49A4.45,4.45,0,0,1,16.58.31a3.62,3.62,0,0,1,3.09,1.27,4.33,4.33,0,0,1,.76,2.65,8.21,8.21,0,0,1,0,.84l-.75,7.22a5.48,5.48,0,0,1-1.48,3.4A4.41,4.41,0,0,1,14.83,17Z"/><path class="cls-1" d="M24.42,16.72l1.36-13-2.53.8.24-2.26c.55-.21,1.16-.47,1.84-.79a5.63,5.63,0,0,0,1.48-1h2.35l-1.7,16.25Z"/><path class="cls-1" d="M37,7c.78,0,1.25-.83,1.43-2.49a4.12,4.12,0,0,0,0-.48,2.21,2.21,0,0,0-.17-.91.82.82,0,0,0-.82-.53,1.08,1.08,0,0,0-1,.52A3.3,3.3,0,0,0,36,4.52v.83C36,6.47,36.32,7,37,7Zm-1,9.93q-3.85,0-3.86-3.9a8.55,8.55,0,0,1,.07-1.1,5.82,5.82,0,0,1,.72-2.29A3.85,3.85,0,0,1,34.4,8.18a3.58,3.58,0,0,1-1.28-2.95,5.63,5.63,0,0,1,0-.58A5,5,0,0,1,34.5,1.46,4.35,4.35,0,0,1,37.68.32a3.55,3.55,0,0,1,2.91,1.15,3.68,3.68,0,0,1,.71,2.35,8.19,8.19,0,0,1,0,.83,4.62,4.62,0,0,1-2,3.53,2.86,2.86,0,0,1,1.24,1.49,4.61,4.61,0,0,1,.28,1.67v.61c-.36,3.34-2,5-4.89,5Zm-.48-2.51a1,1,0,0,0,.71.24,1.24,1.24,0,0,0,.75-.23,1.5,1.5,0,0,0,.49-.65,5.5,5.5,0,0,0,.25-.79c0-.25.08-.54.12-.87a5.39,5.39,0,0,0,.07-.79v-.16a4,4,0,0,0-.1-.83,1.05,1.05,0,0,0-.35-.58,1,1,0,0,0-.68-.23,1.21,1.21,0,0,0-.73.22,1.44,1.44,0,0,0-.49.61,4,4,0,0,0-.27.8c-.06.28-.1.6-.15,1a5.51,5.51,0,0,0-.06.71V13a4.09,4.09,0,0,0,.1.82,1.06,1.06,0,0,0,.27.6Z"/><path class="cls-1" d="M.17,16.67l.22-2.14L4.93,8.44l.46-.6.49-.64c.1-.14.24-.34.41-.61a5.86,5.86,0,0,0,.39-.67,6.34,6.34,0,0,0,.25-.67,3.56,3.56,0,0,0,.16-.76,2.75,2.75,0,0,0,0-.4,1.65,1.65,0,0,0-.21-.89.88.88,0,0,0-.79-.39H6c-.89.07-1.41.88-1.58,2.43L4.3,6h-3l.08-.76a8.09,8.09,0,0,1,.45-2A5.27,5.27,0,0,1,2.75,1.7,3.81,3.81,0,0,1,4.25.62a5.2,5.2,0,0,1,2-.36A3.85,3.85,0,0,1,9.36,1.38a3.57,3.57,0,0,1,.78,2.43,5.74,5.74,0,0,1,0,.71,4.09,4.09,0,0,1-.1.61,2.3,2.3,0,0,1-.13.56,3.34,3.34,0,0,1-.2.54c-.09.21-.16.37-.22.49a3,3,0,0,1-.28.49l-.28.45c-.06.1-.17.25-.33.47l-.32.44L7.88,9l-.35.45L3.86,14.26H8.65l-.26,2.41Z"/><path class="cls-1" d="M15.16,14.28c.81,0,1.29-.7,1.43-2.1l.75-7.09v-1a1.33,1.33,0,0,0-.07-.47,2,2,0,0,0-.17-.37A.63.63,0,0,0,16.83,3a1.06,1.06,0,0,0-.48-.1,1.15,1.15,0,0,0-.59.15,1.21,1.21,0,0,0-.39.35,1.48,1.48,0,0,0-.24.52,4.91,4.91,0,0,0-.15.57c0,.17-.05.36-.07.59l-.75,7.09v.59C14.13,13.78,14.48,14.28,15.16,14.28Zm-.28,2.65a3.63,3.63,0,0,1-3.06-1.27A4.24,4.24,0,0,1,11,13a6.85,6.85,0,0,1,0-.77L11.82,5a5.79,5.79,0,0,1,1.44-3.48A4.42,4.42,0,0,1,16.62.27a3.59,3.59,0,0,1,3.09,1.27,4.28,4.28,0,0,1,.76,2.64,6.1,6.1,0,0,1,0,.84l-.75,7.22a5.53,5.53,0,0,1-1.48,3.41A4.43,4.43,0,0,1,14.88,16.93Z"/><path class="cls-1" d="M24.47,16.67l1.35-13-2.53.8.24-2.26c.55-.2,1.17-.47,1.84-.79a5.47,5.47,0,0,0,1.48-1H29.2L27.5,16.67Z"/><path class="cls-1" d="M37,7c.78,0,1.25-.83,1.43-2.49a4.12,4.12,0,0,0,0-.48,2.26,2.26,0,0,0-.17-.92.83.83,0,0,0-.82-.53,1,1,0,0,0-.94.52,3,3,0,0,0-.44,1.4,6.24,6.24,0,0,0,0,.83C36,6.42,36.36,7,37,7Zm-1,9.93q-3.86,0-3.86-3.91a10.64,10.64,0,0,1,.07-1.09,5.77,5.77,0,0,1,.69-2.33,3.8,3.8,0,0,1,1.55-1.48,3.57,3.57,0,0,1-1.28-3,5.78,5.78,0,0,1,0-.58,4.94,4.94,0,0,1,1.34-3.19A4.36,4.36,0,0,1,37.72.28a3.51,3.51,0,0,1,2.91,1.14,3.7,3.7,0,0,1,.71,2.35,8.19,8.19,0,0,1,0,.83,4.65,4.65,0,0,1-2,3.54,2.83,2.83,0,0,1,1.26,1.48,4.64,4.64,0,0,1,.28,1.67v.62q-.48,5-4.83,5Zm-.47-2.52a1,1,0,0,0,.7.24,1.27,1.27,0,0,0,.76-.23,1.51,1.51,0,0,0,.48-.64,4.75,4.75,0,0,0,.25-.79c0-.25.08-.55.13-.88a7.18,7.18,0,0,0,.06-.79v-.15a3.37,3.37,0,0,0-.1-.83,1,1,0,0,0-1-.82,1.28,1.28,0,0,0-.81.18,1.49,1.49,0,0,0-.48.61,3.38,3.38,0,0,0-.28.81c-.06.27-.1.59-.15,1a5.52,5.52,0,0,0-.06.72V13a5,5,0,0,0,.1.82,1.08,1.08,0,0,0,.37.56Z"/><path class="cls-1" d="M.21,16.63l.23-2.14L5,8.39l.45-.6.49-.64c.11-.14.24-.34.41-.6a5.88,5.88,0,0,0,.39-.68A5.61,5.61,0,0,0,7,5.2a3.51,3.51,0,0,0,.17-.75V4A1.66,1.66,0,0,0,7,3.15a.87.87,0,0,0-.79-.39H6c-.88.07-1.41.88-1.58,2.43l-.08.72h-3l.08-.76a7.65,7.65,0,0,1,.46-2,4.88,4.88,0,0,1,.95-1.53,3.71,3.71,0,0,1,1.46-1,5.26,5.26,0,0,1,2-.37A3.85,3.85,0,0,1,9.4,1.33a3.53,3.53,0,0,1,.78,2.43,6,6,0,0,1,0,.72,3.33,3.33,0,0,1-.09.61,4.86,4.86,0,0,1-.14.55,3.8,3.8,0,0,1-.2.55c-.09.2-.16.36-.22.48a3.26,3.26,0,0,1-.27.5c-.14.2-.23.35-.29.45l-.33.47-.32.43c0,.07-.17.23-.36.46l-.35.45L3.9,14.21H8.69l-.26,2.42Z"/><path class="cls-1" d="M15.2,14.23c.82,0,1.29-.7,1.44-2.1L17.38,5v-1a1.29,1.29,0,0,0-.07-.47,1.43,1.43,0,0,0-.17-.38.63.63,0,0,0-.31-.27,1.17,1.17,0,0,0-.48-.09,1.11,1.11,0,0,0-.58.14,1.38,1.38,0,0,0-.4.35,2,2,0,0,0-.24.53,2.94,2.94,0,0,0-.14.57c0,.18,0,.38,0,.58l-.74,7.09v.59C14.18,13.73,14.52,14.23,15.2,14.23Zm-.28,2.65a3.6,3.6,0,0,1-3.06-1.27A4.22,4.22,0,0,1,11.07,13a7,7,0,0,1,0-.77L11.86,5a5.79,5.79,0,0,1,1.45-3.48A4.39,4.39,0,0,1,16.67.22a3.58,3.58,0,0,1,3.08,1.27,4.29,4.29,0,0,1,.76,2.65,8.07,8.07,0,0,1,0,.83l-.76,7.22a5.51,5.51,0,0,1-1.48,3.41A4.43,4.43,0,0,1,14.92,16.88Z"/><path class="cls-1" d="M24.51,16.63l1.36-13-2.53.8.23-2.27a18.48,18.48,0,0,0,1.84-.79,5.1,5.1,0,0,0,1.48-1h2.35l-1.69,16.2Z"/><path class="cls-1" d="M37,6.93c.77,0,1.25-.83,1.42-2.49a4.12,4.12,0,0,0,0-.48A2.26,2.26,0,0,0,38.34,3a.84.84,0,0,0-.82-.53,1.09,1.09,0,0,0-1,.52,3.09,3.09,0,0,0-.44,1.4c0,.3,0,.58,0,.83C36.08,6.37,36.4,6.93,37,6.93Zm-1,9.93q-3.85,0-3.86-3.91a10.64,10.64,0,0,1,.07-1.09A5.77,5.77,0,0,1,33,9.57a3.8,3.8,0,0,1,1.55-1.48,3.6,3.6,0,0,1-1.28-3,5.78,5.78,0,0,1,0-.58A4.84,4.84,0,0,1,34.6,1.33,4.32,4.32,0,0,1,37.76.23a3.5,3.5,0,0,1,2.91,1.14,3.66,3.66,0,0,1,.71,2.35,6,6,0,0,1,0,.83,4.65,4.65,0,0,1-2,3.54,2.83,2.83,0,0,1,1.24,1.48,4.68,4.68,0,0,1,.29,1.67v.62q-.47,5-4.86,5Zm-.47-2.52a1,1,0,0,0,.71.24,1.19,1.19,0,0,0,.75-.23,1.38,1.38,0,0,0,.48-.64,4,4,0,0,0,.25-.79c0-.25.08-.54.13-.87a7.41,7.41,0,0,0,.07-.8V11.1a4,4,0,0,0-.11-.83,1.07,1.07,0,0,0-.34-.59,1,1,0,0,0-.69-.22,1.22,1.22,0,0,0-.72.21,1.49,1.49,0,0,0-.49.61,4.86,4.86,0,0,0-.28.81c-.06.27-.1.59-.15,1a5.22,5.22,0,0,0-.06.71v.15a4.84,4.84,0,0,0,.1.82,1.08,1.08,0,0,0,.31.57Z"/><path class="cls-1" d="M.25,16.58l.23-2.14L5,8.35c.08-.12.23-.32.45-.61L6,7.11c.11-.15.25-.35.42-.61a5.62,5.62,0,0,0,.38-.68A6.77,6.77,0,0,0,7,5.15a4,4,0,0,0,.16-.75V4A1.58,1.58,0,0,0,7,3.1a.87.87,0,0,0-.79-.39H6c-.88.07-1.41.88-1.58,2.43l-.08.72H1.43L1.5,5.1a7.75,7.75,0,0,1,.5-2,5.19,5.19,0,0,1,.91-1.55,3.67,3.67,0,0,1,1.47-1,5.19,5.19,0,0,1,2-.37A3.88,3.88,0,0,1,9.44,1.28a3.56,3.56,0,0,1,.78,2.44v.71a2.78,2.78,0,0,1-.1.61c0,.21-.09.39-.13.55a4.76,4.76,0,0,1-.2.55c-.1.2-.17.36-.22.49a3.5,3.5,0,0,1-.28.49L9,7.57c-.05.09-.17.25-.33.47l-.32.43L8,8.94l-.34.44L3.94,14.17H8.73l-.25,2.41Z"/><path class="cls-1" d="M15.24,14.19q1.23,0,1.44-2.1L17.42,5V4a2,2,0,0,0-.07-.47,3.17,3.17,0,0,0-.17-.38.71.71,0,0,0-.32-.27,1.13,1.13,0,0,0-.47-.09A1.22,1.22,0,0,0,15.8,3a1.38,1.38,0,0,0-.4.35,2,2,0,0,0-.24.53,3.33,3.33,0,0,0-.14.57,5.77,5.77,0,0,1-.08.59l-.74,7.09v.58C14.22,13.68,14.56,14.19,15.24,14.19ZM15,16.83a3.6,3.6,0,0,1-3.06-1.27,4.27,4.27,0,0,1-.79-2.64v-.78l.75-7.21a5.79,5.79,0,0,1,1.45-3.49A4.42,4.42,0,0,1,16.71.17a3.58,3.58,0,0,1,3.08,1.27,4.32,4.32,0,0,1,.77,2.65v.84l-.75,7.21a5.56,5.56,0,0,1-1.48,3.41A4.43,4.43,0,0,1,15,16.83Z"/><path class="cls-1" d="M24.55,16.58l1.36-13-2.53.8.23-2.27a17.53,17.53,0,0,0,1.84-.79,5.1,5.1,0,0,0,1.48-1h2.36l-1.7,16.19Z"/><path class="cls-1" d="M37.09,6.88c.77,0,1.25-.83,1.43-2.49V3.91A2.3,2.3,0,0,0,38.38,3a.83.83,0,0,0-.82-.52,1.08,1.08,0,0,0-1,.51,3.21,3.21,0,0,0-.44,1.4c0,.31,0,.58,0,.83C36.12,6.32,36.44,6.88,37.09,6.88Zm-1,9.93q-3.86,0-3.85-3.9a8.55,8.55,0,0,1,.07-1.1A5.76,5.76,0,0,1,33,9.52,3.8,3.8,0,0,1,34.53,8a3.59,3.59,0,0,1-1.28-3,5.59,5.59,0,0,1,0-.57,4.87,4.87,0,0,1,1.38-3.13A4.32,4.32,0,0,1,37.8.18a3.51,3.51,0,0,1,2.91,1.14,3.67,3.67,0,0,1,.72,2.36v.83a4.67,4.67,0,0,1-2,3.53,2.81,2.81,0,0,1,1.24,1.49A4.6,4.6,0,0,1,41,11.2v.61c-.38,3.34-2,5-4.91,5Zm-.47-2.51a1,1,0,0,0,.71.24,1.26,1.26,0,0,0,.75-.23,1.41,1.41,0,0,0,.48-.65,3.78,3.78,0,0,0,.25-.79A8.13,8.13,0,0,0,37.9,12a5.39,5.39,0,0,0,.07-.79V11a4.84,4.84,0,0,0-.1-.83,1.14,1.14,0,0,0-.35-.59,1.07,1.07,0,0,0-.68-.22,1.26,1.26,0,0,0-.73.21,1.46,1.46,0,0,0-.49.62,4,4,0,0,0-.27.8c-.07.27-.1.6-.16,1a5.39,5.39,0,0,0,0,.71v.16a4.12,4.12,0,0,0,.09.82,1.17,1.17,0,0,0,.3.6Z"/><path class="cls-1" d="M.3,16.53l.22-2.14L5.06,8.3l.46-.6L6,7c.11-.15.25-.35.42-.61a4.08,4.08,0,0,0,.38-.68,5,5,0,0,0,.26-.67,3.35,3.35,0,0,0,.16-.75v-.4A1.6,1.6,0,0,0,7,3a.87.87,0,0,0-.79-.39H6.09c-.89.07-1.42.89-1.59,2.43l-.07.73h-3L1.51,5A7.74,7.74,0,0,1,2,3a5.32,5.32,0,0,1,1-1.51,3.82,3.82,0,0,1,1.47-1,5.38,5.38,0,0,1,2-.37A3.89,3.89,0,0,1,9.49,1.24a3.62,3.62,0,0,1,.78,2.43v.71a4.31,4.31,0,0,1-.1.61L10,5.54a3.1,3.1,0,0,1-.2.55l-.22.49a4.94,4.94,0,0,1-.28.49L9,7.52a5.71,5.71,0,0,1-.32.5c-.16.22-.27.36-.32.44L8,8.89l-.35.44L4,14.12H8.77l-.25,2.41Z"/><path class="cls-1" d="M15.29,14.14c.81,0,1.29-.7,1.43-2.1l.74-7.09V4a2,2,0,0,0-.07-.47,1.76,1.76,0,0,0-.17-.37A.77.77,0,0,0,17,2.86a1.21,1.21,0,0,0-.48-.09,1.15,1.15,0,0,0-.59.15,1.2,1.2,0,0,0-.39.34,1.87,1.87,0,0,0-.25.53,4.65,4.65,0,0,0-.14.57,1.66,1.66,0,0,1-.08.59L14.29,12v.58C14.26,13.63,14.6,14.14,15.29,14.14ZM15,16.78a3.62,3.62,0,0,1-3-1.26,4.26,4.26,0,0,1-.79-2.65V12.1L12,4.88a5.72,5.72,0,0,1,1.44-3.49A4.45,4.45,0,0,1,16.75.12a3.62,3.62,0,0,1,3.09,1.27A4.4,4.4,0,0,1,20.6,4a8.21,8.21,0,0,1,0,.84l-.75,7.22a5.59,5.59,0,0,1-1.48,3.41A4.45,4.45,0,0,1,15,16.78Z"/><path class="cls-1" d="M24.59,16.53,26,3.56l-2.53.8.24-2.26c.55-.21,1.16-.47,1.84-.79A5.63,5.63,0,0,0,27,.34h2.35l-1.7,16.19Z"/><path class="cls-1" d="M37.13,6.83c.78,0,1.25-.83,1.43-2.49a4.12,4.12,0,0,0,0-.48,2.21,2.21,0,0,0-.17-.91.84.84,0,0,0-.82-.53,1.08,1.08,0,0,0-1,.52,3.3,3.3,0,0,0-.44,1.39c0,.31,0,.59,0,.83C36.16,6.28,36.49,6.83,37.13,6.83Zm-1,9.94c-2.58,0-3.86-1.31-3.86-3.91a8.29,8.29,0,0,1,.07-1.09A5.66,5.66,0,0,1,33,9.47,3.76,3.76,0,0,1,34.57,8a3.6,3.6,0,0,1-1.28-3,5.78,5.78,0,0,1,0-.58,5,5,0,0,1,1.35-3.19A4.34,4.34,0,0,1,37.84.13a3.52,3.52,0,0,1,2.91,1.15,3.62,3.62,0,0,1,.72,2.35,8.19,8.19,0,0,1,0,.83,4.65,4.65,0,0,1-2,3.54,2.8,2.8,0,0,1,1.24,1.48A4.61,4.61,0,0,1,41,11.15v.62q-.54,5-4.9,5Zm-.48-2.52a1,1,0,0,0,.71.24,1.26,1.26,0,0,0,.75-.23,1.52,1.52,0,0,0,.49-.64,6,6,0,0,0,.25-.8c0-.25.08-.54.12-.87a5.39,5.39,0,0,0,.07-.79V11a4.84,4.84,0,0,0-.1-.83,1.05,1.05,0,0,0-.35-.58,1,1,0,0,0-.68-.23,1.21,1.21,0,0,0-.73.22,1.44,1.44,0,0,0-.49.61,4,4,0,0,0-.27.8c-.06.28-.1.6-.15,1a5.51,5.51,0,0,0-.06.71v.16a4.09,4.09,0,0,0,.1.82,1.06,1.06,0,0,0,.31.55Z"/><path class="cls-1" d="M.34,16.48l.22-2.14L5.1,8.25l.46-.6L6.05,7c.1-.14.24-.34.41-.6a6.85,6.85,0,0,0,.39-.68c.08-.19.17-.42.25-.67a3.6,3.6,0,0,0,.16-.75,2.89,2.89,0,0,0,0-.4A1.66,1.66,0,0,0,7.07,3a.88.88,0,0,0-.79-.39H6.13c-.89.07-1.41.88-1.58,2.43l-.08.72h-3L1.59,5A8.09,8.09,0,0,1,2,3,5.27,5.27,0,0,1,3,1.47a3.81,3.81,0,0,1,1.46-1,5.38,5.38,0,0,1,2-.36A3.85,3.85,0,0,1,9.53,1.19a3.62,3.62,0,0,1,.78,2.43v.71a4.44,4.44,0,0,1-.1.62,2.33,2.33,0,0,1-.13.55,3.34,3.34,0,0,1-.2.54c-.09.21-.16.37-.22.49a3.5,3.5,0,0,1-.28.5l-.28.44c-.06.1-.17.25-.33.47l-.33.44-.35.46-.35.45L4,14.07H8.81l-.25,2.41Z"/><path class="cls-1" d="M15.33,14.09c.81,0,1.29-.7,1.43-2.1l.75-7.09v-1a1.53,1.53,0,0,0-.07-.46,1.84,1.84,0,0,0-.17-.38A.68.68,0,0,0,17,2.82a1.06,1.06,0,0,0-.48-.1,1.15,1.15,0,0,0-.59.15,1.11,1.11,0,0,0-.39.35,1.8,1.8,0,0,0-.25.52c-.06.22-.11.41-.14.58s-.05.35-.08.58L14.33,12v.59C14.3,13.59,14.64,14.09,15.33,14.09Zm-.28,2.65A3.63,3.63,0,0,1,12,15.47a4.22,4.22,0,0,1-.79-2.65,6.85,6.85,0,0,1,0-.77L12,4.83a5.75,5.75,0,0,1,1.44-3.48A4.42,4.42,0,0,1,16.79.08a3.59,3.59,0,0,1,3.09,1.27A4.28,4.28,0,0,1,20.64,4a8.21,8.21,0,0,1,0,.84L19.84,12a5.51,5.51,0,0,1-1.48,3.41A4.44,4.44,0,0,1,15.05,16.74Z"/><path class="cls-1" d="M24.63,16.48,26,3.51l-2.53.81L23.7,2c.55-.2,1.16-.47,1.84-.79A5.47,5.47,0,0,0,27,.29h2.35l-1.7,16.19Z"/><path class="cls-1" d="M37.17,6.79c.78,0,1.25-.83,1.43-2.49a4.12,4.12,0,0,0,0-.48,2.26,2.26,0,0,0-.17-.92.83.83,0,0,0-.82-.53,1,1,0,0,0-.94.52,3,3,0,0,0-.44,1.4,6.24,6.24,0,0,0,0,.83C36.21,6.23,36.53,6.79,37.17,6.79Zm-1,9.93q-3.86,0-3.86-3.91a10.64,10.64,0,0,1,.07-1.09,5.77,5.77,0,0,1,.72-2.29,3.74,3.74,0,0,1,1.55-1.48,3.57,3.57,0,0,1-1.28-3,5.78,5.78,0,0,1,0-.58,4.94,4.94,0,0,1,1.34-3.15A4.36,4.36,0,0,1,37.89.09,3.51,3.51,0,0,1,40.8,1.23a3.7,3.7,0,0,1,.71,2.35,8.19,8.19,0,0,1,0,.83,4.65,4.65,0,0,1-2,3.54,2.83,2.83,0,0,1,1.24,1.48A4.64,4.64,0,0,1,41,11.1v.62q-.48,5-4.86,5ZM35.7,14.2a1,1,0,0,0,.7.24,1.2,1.2,0,0,0,.76-.23,1.52,1.52,0,0,0,.48-.64,4.75,4.75,0,0,0,.25-.79c0-.25.08-.55.12-.88a5.27,5.27,0,0,0,.07-.79V11a3.37,3.37,0,0,0-.1-.83,1,1,0,0,0-1-.81,1.28,1.28,0,0,0-.73.21,1.51,1.51,0,0,0-.49.61,3.85,3.85,0,0,0-.27.81c-.06.27-.1.59-.15,1a5.52,5.52,0,0,0-.06.72v.15a4.84,4.84,0,0,0,.1.82,1.08,1.08,0,0,0,.29.56Z"/><path class="cls-1" d="M.38,16.44.6,14.3,5.15,8.2l.45-.6L6.09,7c.11-.14.24-.34.41-.6a5.88,5.88,0,0,0,.39-.68A5.61,5.61,0,0,0,7.14,5a3.35,3.35,0,0,0,.16-.75,2.89,2.89,0,0,0,0-.4A1.66,1.66,0,0,0,7.09,3a.87.87,0,0,0-.79-.39H6.17c-.88.07-1.41.88-1.58,2.43l-.08.72h-3L1.63,5a8.09,8.09,0,0,1,.45-2A5.22,5.22,0,0,1,3,1.43a3.71,3.71,0,0,1,1.46-1A5.23,5.23,0,0,1,6.5,0,3.89,3.89,0,0,1,9.57,1.14a3.55,3.55,0,0,1,.78,2.43,6,6,0,0,1,0,.72,4.55,4.55,0,0,1-.1.61,2.22,2.22,0,0,1-.13.55,3.8,3.8,0,0,1-.2.55c-.09.2-.16.36-.22.48a3.5,3.5,0,0,1-.28.5l-.28.45-.33.47-.32.43c-.06.07-.17.23-.36.46l-.35.45L4.07,14H8.86L8.6,16.44Z"/><path class="cls-1" d="M15.37,14q1.22,0,1.44-2.1l.74-7.09v-1a1.29,1.29,0,0,0-.07-.47A1.84,1.84,0,0,0,17.35,3,.63.63,0,0,0,17,2.77a1.29,1.29,0,0,0-1,0,1.26,1.26,0,0,0-.4.35,1.75,1.75,0,0,0-.24.53,4.44,4.44,0,0,0-.15.57,1.82,1.82,0,0,1-.07.58l-.75,7.09v.59C14.35,13.54,14.69,14,15.37,14Zm-.28,2.65A3.6,3.6,0,0,1,12,15.42a4.22,4.22,0,0,1-.79-2.65,7,7,0,0,1,0-.77L12,4.79A5.79,5.79,0,0,1,13.45,1.3,4.39,4.39,0,0,1,16.84,0a3.58,3.58,0,0,1,3.08,1.27,4.29,4.29,0,0,1,.76,2.65,6.28,6.28,0,0,1,0,.84L19.88,12a5.51,5.51,0,0,1-1.48,3.41,4.43,4.43,0,0,1-3.31,1.26Z"/><path class="cls-1" d="M24.68,16.44,26,3.47l-2.52.8L23.74,2a18.48,18.48,0,0,0,1.84-.79,5.24,5.24,0,0,0,1.48-1h2.35l-1.7,16.2Z"/><path class="cls-1" d="M37.22,6.74c.77,0,1.25-.83,1.42-2.49a4.12,4.12,0,0,0,0-.48,2.3,2.3,0,0,0-.16-.92.84.84,0,0,0-.83-.53,1.08,1.08,0,0,0-.94.52,3.09,3.09,0,0,0-.44,1.4v.83C36.25,6.18,36.57,6.74,37.22,6.74Zm-1,9.93q-3.85,0-3.86-3.91a10.64,10.64,0,0,1,.07-1.09,5.77,5.77,0,0,1,.72-2.29A3.8,3.8,0,0,1,34.7,7.9a3.57,3.57,0,0,1-1.28-3,5.44,5.44,0,0,1,0-.57,4.87,4.87,0,0,1,1.35-3.19A4.32,4.32,0,0,1,37.93,0a3.57,3.57,0,0,1,2.91,1.14,3.73,3.73,0,0,1,.71,2.36,6.14,6.14,0,0,1,0,.83,4.65,4.65,0,0,1-2,3.53,2.82,2.82,0,0,1,1.24,1.49A4.61,4.61,0,0,1,41,11v.61q-.44,5-4.82,5Zm-.47-2.51a1,1,0,0,0,.71.24,1.26,1.26,0,0,0,.75-.23,1.46,1.46,0,0,0,.48-.65,4.75,4.75,0,0,0,.25-.79c0-.25.09-.54.13-.87a5.4,5.4,0,0,0,.07-.8v-.15a4.78,4.78,0,0,0-.11-.83,1.07,1.07,0,0,0-.34-.59A1,1,0,0,0,37,9.27a1.28,1.28,0,0,0-.73.21,1.56,1.56,0,0,0-.48.61,5.19,5.19,0,0,0-.28.81,8.9,8.9,0,0,0-.15,1,4,4,0,0,0-.06.71v.16a6.57,6.57,0,0,0,.1.82,1.11,1.11,0,0,0,.31.57Z"/><path class="cls-2" d="M.38,16.44.6,14.3,5.15,8.21q.12-.18.45-.6L6.09,7c.11-.15.24-.35.41-.61a5.15,5.15,0,0,0,.39-.68A5.41,5.41,0,0,0,7.14,5a3.56,3.56,0,0,0,.16-.76,2.75,2.75,0,0,0,0-.4A1.69,1.69,0,0,0,7.09,3a.87.87,0,0,0-.79-.39H6.17c-.88.07-1.41.89-1.58,2.44l-.08.72h-3L1.63,5a8.17,8.17,0,0,1,.45-2A5.35,5.35,0,0,1,3,1.43a3.81,3.81,0,0,1,1.46-1A5.42,5.42,0,0,1,6.5,0,3.89,3.89,0,0,1,9.57,1.15a3.52,3.52,0,0,1,.78,2.43,5.74,5.74,0,0,1,0,.71,4.31,4.31,0,0,1-.1.61,2.11,2.11,0,0,1-.13.55,3.1,3.1,0,0,1-.2.55c-.09.2-.16.37-.22.49A3.5,3.5,0,0,1,9.38,7l-.28.45c-.06.1-.17.25-.33.47s-.27.36-.32.44l-.36.46c-.19.24-.3.39-.35.44L4.07,14H8.86L8.6,16.44Z"/><path class="cls-2" d="M15.09,16.69A3.63,3.63,0,0,1,12,15.43a4.26,4.26,0,0,1-.79-2.65,6.74,6.74,0,0,1,0-.77L12,4.79A5.79,5.79,0,0,1,13.45,1.3,4.42,4.42,0,0,1,16.84,0a3.61,3.61,0,0,1,3.08,1.27,4.33,4.33,0,0,1,.76,2.65,6.1,6.1,0,0,1,0,.84L19.88,12a5.53,5.53,0,0,1-1.48,3.4A4.42,4.42,0,0,1,15.09,16.69ZM15.37,14q1.22,0,1.44-2.1l.74-7.09v-1a1.33,1.33,0,0,0-.07-.47A1.76,1.76,0,0,0,17.35,3,.71.71,0,0,0,17,2.77a1.21,1.21,0,0,0-.48-.09,1.11,1.11,0,0,0-.58.15,1.24,1.24,0,0,0-.4.34,1.87,1.87,0,0,0-.24.53,4.91,4.91,0,0,0-.15.57,1.88,1.88,0,0,1-.07.59l-.75,7.09v.58C14.35,13.54,14.69,14,15.37,14Z"/><path class="cls-2" d="M24.68,16.44,26,3.47l-2.52.8L23.74,2c.55-.2,1.17-.47,1.84-.79a5.47,5.47,0,0,0,1.48-1h2.35l-1.7,16.19Z"/><path class="cls-2" d="M36.18,16.68c-2.57,0-3.86-1.31-3.86-3.91a10.47,10.47,0,0,1,.07-1.09,5.72,5.72,0,0,1,.72-2.29,3.74,3.74,0,0,1,1.55-1.48,3.57,3.57,0,0,1-1.28-3,5.78,5.78,0,0,1,0-.58,4.87,4.87,0,0,1,1.35-3.19A4.32,4.32,0,0,1,37.93,0a3.55,3.55,0,0,1,2.91,1.15,3.7,3.7,0,0,1,.71,2.35,6,6,0,0,1,0,.83,4.65,4.65,0,0,1-2,3.54,2.8,2.8,0,0,1,1.24,1.48A4.64,4.64,0,0,1,41,11v.62Q40.56,16.68,36.18,16.68Zm-.47-2.52a1,1,0,0,0,.71.24,1.26,1.26,0,0,0,.75-.23,1.43,1.43,0,0,0,.48-.64,4.85,4.85,0,0,0,.25-.8c0-.25.09-.54.13-.87a5.39,5.39,0,0,0,.07-.79v-.16a4.78,4.78,0,0,0-.11-.83,1,1,0,0,0-1-.81,1.21,1.21,0,0,0-.73.22,1.43,1.43,0,0,0-.48.61,4.75,4.75,0,0,0-.28.8,9.52,9.52,0,0,0-.15,1,4.17,4.17,0,0,0-.06.71v.16a6.34,6.34,0,0,0,.1.82A1.08,1.08,0,0,0,35.71,14.16Zm1.51-7.42c.77,0,1.25-.83,1.42-2.49a4.12,4.12,0,0,0,0-.48,2.21,2.21,0,0,0-.16-.91.84.84,0,0,0-.83-.53,1.06,1.06,0,0,0-.94.52,3,3,0,0,0-.44,1.39v.83C36.25,6.19,36.57,6.74,37.22,6.74Z"/></g></g></g></g></svg>