<svg xmlns="http://www.w3.org/2000/svg" viewBox="0 0 187 37"><defs><style>.cls-1{fill:#cf4137;}.cls-2{fill:#fff;}</style></defs><title>Asset 4</title><g id="Layer_2" data-name="Layer 2"><g id="Layer_2-2" data-name="Layer 2"><polygon class="cls-1" points="0 29 187 29 94 0 0 29"/><polygon class="cls-1" points="0 29.38 187 29.38 94 0.38 0 29.38"/><polygon class="cls-1" points="0 29.76 187 29.76 94 0.76 0 29.76"/><polygon class="cls-1" points="0 30.14 187 30.14 94 1.14 0 30.14"/><polygon class="cls-1" points="0 30.52 187 30.52 94 1.52 0 30.52"/><polygon class="cls-1" points="0 30.91 187 30.91 94 1.91 0 30.91"/><polygon class="cls-1" points="0 31.29 187 31.29 94 2.29 0 31.29"/><polygon class="cls-1" points="0 31.67 187 31.67 94 2.67 0 31.67"/><polygon class="cls-1" points="0 32.05 187 32.05 94 3.05 0 32.05"/><polygon class="cls-1" points="0 32.43 187 32.43 94 3.43 0 32.43"/><polygon class="cls-1" points="0 32.81 187 32.81 94 3.81 0 32.81"/><polygon class="cls-1" points="0 33.19 187 33.19 94 4.19 0 33.19"/><polygon class="cls-1" points="0 33.57 187 33.57 94 4.57 0 33.57"/><polygon class="cls-1" points="0 33.95 187 33.95 94 4.95 0 33.95"/><polygon class="cls-1" points="0 34.33 187 34.33 94 5.33 0 34.33"/><polygon class="cls-1" points="0 34.71 187 34.71 94 5.71 0 34.71"/><polygon class="cls-1" points="0 35.09 187 35.09 94 6.09 0 35.09"/><polygon class="cls-1" points="0 35.48 187 35.48 94 6.48 0 35.48"/><polygon class="cls-1" points="0 35.86 187 35.86 94 6.86 0 35.86"/><polygon class="cls-1" points="0 36.24 187 36.24 94 7.24 0 36.24"/><polygon class="cls-1" points="0 36.62 187 36.62 94 7.62 0 36.62"/><polygon class="cls-1" points="0 37 187 37 94 8 0 37"/><polygon class="cls-2" points="0 37 187 37 94 8 0 37"/></g></g></svg>