<svg xmlns="http://www.w3.org/2000/svg" viewBox="0 0 37 187"><defs><style>.cls-1{fill:#cf4137;}.cls-2{fill:#fff;}</style></defs><title>Asset 1</title><g id="Layer_2" data-name="Layer 2"><g id="Layer_2-2" data-name="Layer 2"><polygon class="cls-1" points="29 0 29 187 0 94 29 0"/><polygon class="cls-1" points="29.38 0 29.38 187 0.38 94 29.38 0"/><polygon class="cls-1" points="29.76 0 29.76 187 0.76 94 29.76 0"/><polygon class="cls-1" points="30.14 0 30.14 187 1.14 94 30.14 0"/><polygon class="cls-1" points="30.52 0 30.52 187 1.52 94 30.52 0"/><polygon class="cls-1" points="30.91 0 30.91 187 1.91 94 30.91 0"/><polygon class="cls-1" points="31.29 0 31.29 187 2.29 94 31.29 0"/><polygon class="cls-1" points="31.67 0 31.67 187 2.67 94 31.67 0"/><polygon class="cls-1" points="32.05 0 32.05 187 3.05 94 32.05 0"/><polygon class="cls-1" points="32.43 0 32.43 187 3.43 94 32.43 0"/><polygon class="cls-1" points="32.81 0 32.81 187 3.81 94 32.81 0"/><polygon class="cls-1" points="33.19 0 33.19 187 4.19 94 33.19 0"/><polygon class="cls-1" points="33.57 0 33.57 187 4.57 94 33.57 0"/><polygon class="cls-1" points="33.95 0 33.95 187 4.95 94 33.95 0"/><polygon class="cls-1" points="34.33 0 34.33 187 5.33 94 34.33 0"/><polygon class="cls-1" points="34.71 0 34.71 187 5.71 94 34.71 0"/><polygon class="cls-1" points="35.09 0 35.09 187 6.09 94 35.09 0"/><polygon class="cls-1" points="35.48 0 35.48 187 6.48 94 35.48 0"/><polygon class="cls-1" points="35.86 0 35.86 187 6.86 94 35.86 0"/><polygon class="cls-1" points="36.24 0 36.24 187 7.24 94 36.24 0"/><polygon class="cls-1" points="36.62 0 36.62 187 7.62 94 36.62 0"/><polygon class="cls-1" points="37 0 37 187 8 94 37 0"/><polygon class="cls-2" points="37 0 37 187 8 94 37 0"/></g></g></svg>