<svg xmlns="http://www.w3.org/2000/svg" viewBox="0 0 37 187"><defs><style>.cls-1{fill:#cf4137;}.cls-2{fill:#fff;}</style></defs><title>Asset 2</title><g id="Layer_2" data-name="Layer 2"><g id="Layer_2-2" data-name="Layer 2"><polygon class="cls-1" points="8 0 8 187 37 94 8 0"/><polygon class="cls-1" points="7.62 0 7.62 187 36.62 94 7.62 0"/><polygon class="cls-1" points="7.24 0 7.24 187 36.24 94 7.24 0"/><polygon class="cls-1" points="6.86 0 6.86 187 35.86 94 6.86 0"/><polygon class="cls-1" points="6.48 0 6.48 187 35.48 94 6.48 0"/><polygon class="cls-1" points="6.09 0 6.09 187 35.09 94 6.09 0"/><polygon class="cls-1" points="5.71 0 5.71 187 34.71 94 5.71 0"/><polygon class="cls-1" points="5.33 0 5.33 187 34.33 94 5.33 0"/><polygon class="cls-1" points="4.95 0 4.95 187 33.95 94 4.95 0"/><polygon class="cls-1" points="4.57 0 4.57 187 33.57 94 4.57 0"/><polygon class="cls-1" points="4.19 0 4.19 187 33.19 94 4.19 0"/><polygon class="cls-1" points="3.81 0 3.81 187 32.81 94 3.81 0"/><polygon class="cls-1" points="3.43 0 3.43 187 32.43 94 3.43 0"/><polygon class="cls-1" points="3.05 0 3.05 187 32.05 94 3.05 0"/><polygon class="cls-1" points="2.67 0 2.67 187 31.67 94 2.67 0"/><polygon class="cls-1" points="2.29 0 2.29 187 31.29 94 2.29 0"/><polygon class="cls-1" points="1.91 0 1.91 187 30.91 94 1.91 0"/><polygon class="cls-1" points="1.52 0 1.52 187 30.52 94 1.52 0"/><polygon class="cls-1" points="1.14 0 1.14 187 30.14 94 1.14 0"/><polygon class="cls-1" points="0.76 0 0.76 187 29.76 94 0.76 0"/><polygon class="cls-1" points="0.38 0 0.38 187 29.38 94 0.38 0"/><polygon class="cls-1" points="0 0 0 187 29 94 0 0"/><polygon class="cls-2" points="0 0 0 187 29 94 0 0"/></g></g></svg>