<svg xmlns="http://www.w3.org/2000/svg" viewBox="0 0 1291.32 360.52"><defs><style>.cls-1{fill:#fff;}</style></defs><title>The Path</title><g id="Layer_2" data-name="Layer 2"><g id="Layer_2-2" data-name="Layer 2"><path d="M115.57,17.84c0,7.52-3.51,20.38-34.74,20.38a155.34,155.34,0,0,1-18-.84,30.39,30.39,0,0,1,4.68,14.87c0,14.7-20,52.61-26.55,70-3.34,8.86.16,12.86-4,12.86-4,0-10.69-8.85-10.69-15.69,0-14.37,29.56-56.12,29.56-74.49a16.43,16.43,0,0,0-3-8.35,128,128,0,0,0-13.52-.84c-27.06,0-32.4,11.53-32.4,17.87,0,7,3.34,6.68,3.34,9.69A2.88,2.88,0,0,1,8,65.78c-4.18,0-8-16.2-8-20.38,0-8.68,6.51-18,21-23,14-4.84,43.09-2.33,63.3-2.33,22.88,0,25-8,28.72-8C114.73,12,115.57,15,115.57,17.84Z"/><path d="M137.44,78.47c0,8-20.54,47.26-33.9,47.26C95,125.73,92,119.22,92,115.38c0-8,5.34-23.22,15.53-43.76-8.69,5.85-31.4,42.59-31.4,49.44,0,1,.17,2.33.17,3.34a10,10,0,0,1-4.68,1.33c-8.52,0-11.52-6.51-11.52-10.35,0-11.86,20.71-61.46,38.24-93.69,0,0,2-4,4-4,3.17,0,10.19,5.68,10.19,9.18a2.74,2.74,0,0,1-.5,1.51c-3.34,3.5-23.72,41.92-32.23,70.47C95,72.46,110.56,58.09,114.06,55.76c3-2,4.68-2,4.68-2,3.17,0,9,5.68,9,9.19a1.81,1.81,0,0,1-.67,1.5c-5.35,5.68-19.54,37.74-19.54,48.1,6.18,0,22-21.38,27.89-37.75a.76.76,0,0,1,.5-.16C136.44,74.63,137.44,75.13,137.44,78.47Z"/><path d="M186.71,78.3c0,5.18-13.53,48.27-42.26,48.27-13,0-19.54-11.36-19.54-18.87,0-21.38,17.87-55.45,35.24-55.45,9.52,0,18,7.35,18,13.53,0,19.2-19.37,34.73-31.06,34.73a17.38,17.38,0,0,1-5.35-.66,39.06,39.06,0,0,0-1.5,7.85c0,6.68,2.5,9.51,7.51,9.51,15.37,0,32.74-30.89,36.91-42.42C186.54,74.79,186.71,76.46,186.71,78.3ZM143.62,94.83c11.86-2.5,21.88-16.7,22.38-29.22C154.81,65.61,147.29,85.48,143.62,94.83Z"/><path d="M320.27,49.41c0,38.91-46.43,63.3-68.31,66.47-2.5,6-4,11-4,16.87,0,2.33-2,2.5-3.51,2.5-3.34,0-10.19-4-10.19-9.18,0-3.68,1.84-8.19,3.34-12.53-4.34-1.67-6.68-6.85-6.68-10.52,0-2.17,1.84-5.68,3.51-5.68,1.5,0,.16,4.18,8.18,4.68A227.17,227.17,0,0,1,255.8,76.63c6.68-11.35,18.38-32.06,18.71-33.4a2.16,2.16,0,0,1,2-1.34c1.67,0,7,7,7,10.69,0,5.35-15.37,29.06-21.38,40.75-3.17,6.18-3.67,7.35-3.67,7.35,16.2-2.67,54.61-26.05,54.61-51.6,0-10.53-14.87-14.87-24.89-14.87-27.89,0-70.14,19-70.14,39.75,0,3.67,1.5,10.85,8.85,10.85,1.67,0,2.51.51,2.51,1.34S227.58,88,224.24,88c-9,0-17.54-8.35-17.54-20,0-34.41,54.62-49.6,72.82-49.6C301.06,18.35,320.27,26,320.27,49.41Z"/><path d="M387.57,78.47c0,8-20.54,47.43-33.9,47.43-8.52,0-11.53-6.51-11.53-10.36,0-3.67,1-8.85,3.17-15.19-7.68,11.19-17.87,24.71-21.87,24.71-8.52,0-12-6.68-12-16.2,0-21.37,18-56.61,35.41-56.61,6.51,0,12.36,6.18,15.7,10.19.5-1,3.17-8.52,6.34-8.52s9,5.68,9,9.18a2.74,2.74,0,0,1-.5,1.51c-5.68,5.68-19.71,37.74-19.71,48.1,6.18,0,22.05-21.55,27.89-37.92a.76.76,0,0,1,.5-.16C386.57,74.63,387.57,75.13,387.57,78.47ZM355.5,76.3c1.17-2.34,2.34-5,3.68-7.52-1.34-1.5-3.68-3.17-8.35-3.17-9.69,0-24.05,34.4-24.05,41.58,0,.84.16,1.34.66,1.34C331.29,108.53,347.65,86.82,355.5,76.3Z"/><path d="M386.56,66.28c5.68-14.37,19.38-48.6,24.39-48.6,3.17,0,10.18,5.68,10.18,9.18a2.67,2.67,0,0,1-.5,1.51c-2.17,2.17-10.52,19-18,38.41,1.51,0,3,.17,4.35.17,3.67,0,6.51-.34,7.35-1.17,0,0,1.16.5,1.16,1.17,0,2.33-3.67,7.68-9,7.68h-6.85c-5,13.53-9.52,27.39-11,37.91,6.68-1.84,21.21-22.21,26.88-37.91a.74.74,0,0,1,.51-.17c.5,0,1.5.5,1.5,3.84,0,8-20.54,47.43-33.9,47.43-8.52,0-11.53-6.51-11.53-10.35,0-6,4.51-22.21,11.36-40.92h-.5c-3.51,0-5,1-6.18,1a.94.94,0,0,1-1-1c0-2.34,1.33-7.35,7-8A29.57,29.57,0,0,1,386.56,66.28Z"/><path d="M479.25,78.47c0,8-20.54,47.26-33.91,47.26-8.51,0-11.52-6.51-11.52-10.35,0-8,5.35-23.22,15.53-43.76C440.67,77.47,418,114.21,418,121.06c0,1,.16,2.33.16,3.34a10,10,0,0,1-4.67,1.33c-8.52,0-11.53-6.51-11.53-10.35,0-11.86,20.71-61.46,38.25-93.69,0,0,2-4,4-4,3.17,0,10.18,5.68,10.18,9.18a2.67,2.67,0,0,1-.5,1.51c-3.34,3.5-23.71,41.92-32.23,70.47,15.2-26.38,30.73-40.75,34.24-43.08,3-2,4.67-2,4.67-2,3.18,0,9,5.68,9,9.19a1.81,1.81,0,0,1-.67,1.5c-5.34,5.68-19.54,37.74-19.54,48.1,6.18,0,22-21.38,27.89-37.75a.76.76,0,0,1,.5-.16C478.25,74.63,479.25,75.13,479.25,78.47Z"/><path d="M518.24,66.28c5.68-14.37,19.37-48.6,24.38-48.6,3.18,0,10.19,5.68,10.19,9.18a2.67,2.67,0,0,1-.5,1.51c-2.17,2.17-10.52,19-18,38.41,1.51,0,3,.17,4.35.17,3.67,0,6.51-.34,7.34-1.17,0,0,1.17.5,1.17,1.17,0,2.33-3.67,7.68-9,7.68h-6.85c-5,13.53-9.52,27.39-11,37.91,6.68-1.84,21.21-22.21,26.88-37.91a.73.73,0,0,1,.5-.17c.51,0,1.51.5,1.51,3.84,0,8-20.54,47.43-33.9,47.43-8.52,0-11.53-6.51-11.53-10.35,0-6,4.51-22.21,11.36-40.92h-.5c-3.51,0-5,1-6.18,1a.94.94,0,0,1-1-1c0-2.34,1.33-7.35,7-8A29.57,29.57,0,0,1,518.24,66.28Z"/><path d="M585.37,87c-6,19-19.87,40.41-32.56,40.41-6.35,0-13.7-7.85-14.36-12.52a54.43,54.43,0,0,1-.84-9.19C537.44,84.81,550,64.27,564.5,54.92a14.77,14.77,0,0,1,7.68-2.34c6.18,0,13,3,16.2,8.52a39.56,39.56,0,0,1,.5,6.35,52.36,52.36,0,0,1-1,11c11.52-1,16.37-3.17,19.87-11a16.35,16.35,0,0,1,4-.84C612.26,78.47,596.4,89.83,585.37,87Zm-7.51-3.34a29.21,29.21,0,0,1-7.35-10.86c-11.19,11.19-19,27.06-19,39.92a26.21,26.21,0,0,0,.5,5.17C559.49,116.88,571.35,99.34,577.86,83.65Z"/><path d="M101.11,357.86,121.25,166h48.37a125.28,125.28,0,0,1,18.92,1.27,58.13,58.13,0,0,1,15.57,4.63,32.11,32.11,0,0,1,11.74,8.85A34.38,34.38,0,0,1,222.28,195a52.51,52.51,0,0,1,1.15,11.35,74.79,74.79,0,0,1-.58,9.14q-4,34.71-32.28,39.11,29.51,5,29.51,38.54a80.29,80.29,0,0,1-.47,8.44q-2.78,28.13-18.57,42.18t-43,14.07Zm41.2-27h11q14.94,0,21.41-7t8.1-22.74a67.1,67.1,0,0,0,.47-7.64q0-11-4.17-16.54-5.45-7.29-20.6-7.3h-9.83Zm9.14-87.37h9.61q14.7,0,20.77-6.42t7.58-21c.15-1.62.23-3.17.23-4.63q0-10-5.32-14.12-6.48-5.1-21.76-5.09h-5.67Z"/><path d="M226.33,357.86,284.3,166H326l17.48,191.87H307.91L305.13,315H274.24l-11.69,42.82Zm54.15-66.78h23.38l-3.59-76.84Z"/><path d="M362.42,357.86,382.55,166h47.79a138.51,138.51,0,0,1,21.3,1.44,60.67,60.67,0,0,1,16.66,5,33.44,33.44,0,0,1,12,9.26,34.3,34.3,0,0,1,6.48,14.58,50.62,50.62,0,0,1,1,11.69c0,2.85-.16,5.82-.46,8.91q-1.86,18-8.91,29.74a43.11,43.11,0,0,1-20.6,17.47l18.51,93.74H438.33l-14.58-86.8H409.86l-9.14,86.8Zm49.87-110.17h9.49q14.36,0,21.06-6.6t8.33-21.52c.24-2.39.35-4.63.35-6.71q.12-9.37-3.35-14.24-4.64-6.48-18.29-6.59H418.19Z"/><path d="M545.72,360.52q-14.12,0-23.84-4.69a32.34,32.34,0,0,1-14.58-13.25,57.72,57.72,0,0,1-6.6-21.06,86.82,86.82,0,0,1-.81-12,122.54,122.54,0,0,1,1.05-15.5l6.59-63.07a154.66,154.66,0,0,1,4.11-23.15,77,77,0,0,1,7.58-18.63,48.85,48.85,0,0,1,11.8-14,49.71,49.71,0,0,1,16.9-8.56,78.2,78.2,0,0,1,22.68-3q15,0,25.23,3.76t15.74,11.22a40.45,40.45,0,0,1,7.29,17.54,75.64,75.64,0,0,1,.92,12.26q0,5.32-.58,11.46l-1.15,10.65H581l1.27-12.39q.57-6.94.58-12.26v-1.86q-.12-6-3.65-9.37t-11.05-3.36a18.78,18.78,0,0,0-8.39,1.74,17.42,17.42,0,0,0-5.61,4.17,19.28,19.28,0,0,0-3.47,6.77,54.07,54.07,0,0,0-2,7.87c-.39,2.35-.77,5.42-1.16,9.2l-8.68,82q-.46,5-.46,9.26c.08,2.24.19,4.32.35,6.25q.69,6.6,4.45,10.3t11,3.7q10.89,0,15.92-7.93t6.65-23.08l1.85-18.4H559.49L562,259.38h53.81l-10.42,98.48H580.32l-.58-17.94Q569.09,360.52,545.72,360.52Z"/><path d="M622,357.86,680,166h41.66l17.47,191.87H703.57L700.79,315h-30.9L658.2,357.86Zm54.16-66.78h23.38l-3.59-76.84Z"/><path d="M758.88,357.86,779,166h38L796.84,357.86Z"/><path d="M825.88,357.86,846,166h26.73l32.87,101.26L916.26,166h31.83L928,357.86H902.49L869.86,250.35,858.52,357.86Z"/><path d="M957.23,357.86,977.37,166h38L995.19,357.86Z"/><path d="M1024.23,357.86,1044.37,166h26.73L1104,267.25,1114.61,166h31.83L1126.3,357.86h-25.46l-32.63-107.51-11.34,107.51Z"/><path d="M1203.26,360.52q-14.13,0-23.84-4.69a32.34,32.34,0,0,1-14.58-13.25,57.72,57.72,0,0,1-6.6-21.06,86.82,86.82,0,0,1-.81-12,124.34,124.34,0,0,1,1-15.5l6.6-63.07a152.15,152.15,0,0,1,4.11-23.15,77,77,0,0,1,7.58-18.63,48.85,48.85,0,0,1,11.8-14,49.71,49.71,0,0,1,16.9-8.56,78.2,78.2,0,0,1,22.68-3q15,0,25.22,3.76t15.74,11.22a40.33,40.33,0,0,1,7.29,17.54,74.47,74.47,0,0,1,.93,12.26q0,5.32-.58,11.46l-1.16,10.65h-37l1.27-12.39q.59-6.94.58-12.26v-1.86q-.11-6-3.64-9.37t-11-3.36a18.78,18.78,0,0,0-8.39,1.74,17.36,17.36,0,0,0-5.62,4.17,19.45,19.45,0,0,0-3.47,6.77,56.79,56.79,0,0,0-2,7.87c-.38,2.35-.77,5.42-1.15,9.2l-8.68,82q-.47,5-.47,9.26.12,3.36.35,6.25.7,6.6,4.46,10.3t11,3.7q10.88,0,15.91-7.93t6.65-23.08l1.86-18.4H1217l2.54-23.72h53.81L1263,357.86h-25.11l-.58-17.94Q1226.63,360.52,1203.26,360.52Z"/><path class="cls-1" d="M129.57,5.84c0,7.52-3.51,20.38-34.74,20.38a155.34,155.34,0,0,1-18-.84,30.39,30.39,0,0,1,4.68,14.87c0,14.7-20,52.61-26.55,70-3.34,8.86.16,12.86-4,12.86-4,0-10.69-8.85-10.69-15.69C40.22,93,69.78,51.27,69.78,32.9a16.43,16.43,0,0,0-3-8.35,128,128,0,0,0-13.52-.84c-27.06,0-32.4,11.53-32.4,17.87,0,7,3.34,6.68,3.34,9.69A2.88,2.88,0,0,1,22,53.78c-4.18,0-8-16.2-8-20.38,0-8.68,6.51-18,21-23C49.07,5.51,78.13,8,98.34,8c22.88,0,25-8,28.72-8C128.73,0,129.57,3,129.57,5.84Z"/><path class="cls-1" d="M151.44,66.47c0,8-20.54,47.26-33.9,47.26-8.52,0-11.52-6.51-11.52-10.35,0-8,5.34-23.22,15.53-43.76-8.69,5.85-31.4,42.59-31.4,49.44,0,1,.17,2.33.17,3.34a10,10,0,0,1-4.68,1.33c-8.52,0-11.52-6.51-11.52-10.35,0-11.86,20.71-61.46,38.24-93.69,0,0,2-4,4-4,3.17,0,10.19,5.68,10.19,9.18a2.74,2.74,0,0,1-.5,1.51c-3.34,3.5-23.72,41.92-32.23,70.47C109,60.46,124.56,46.09,128.06,43.76c3-2,4.68-2,4.68-2,3.17,0,9,5.68,9,9.19a1.81,1.81,0,0,1-.67,1.5c-5.35,5.68-19.54,37.74-19.54,48.1,6.18,0,22-21.38,27.89-37.75a.76.76,0,0,1,.5-.16C150.44,62.63,151.44,63.13,151.44,66.47Z"/><path class="cls-1" d="M200.71,66.3c0,5.18-13.53,48.27-42.26,48.27-13,0-19.54-11.36-19.54-18.87,0-21.38,17.87-55.45,35.24-55.45,9.52,0,18,7.35,18,13.53,0,19.2-19.37,34.73-31.06,34.73a17.38,17.38,0,0,1-5.35-.66,39.06,39.06,0,0,0-1.5,7.85c0,6.68,2.5,9.51,7.51,9.51,15.37,0,32.74-30.89,36.91-42.42C200.54,62.79,200.71,64.46,200.71,66.3ZM157.62,82.83c11.86-2.5,21.88-16.7,22.38-29.22C168.81,53.61,161.29,73.48,157.62,82.83Z"/><path class="cls-1" d="M334.27,37.41c0,38.91-46.43,63.3-68.31,66.47-2.5,6-4,11-4,16.87,0,2.33-2,2.5-3.51,2.5-3.34,0-10.19-4-10.19-9.18,0-3.68,1.84-8.19,3.34-12.53-4.34-1.67-6.68-6.85-6.68-10.52,0-2.17,1.84-5.68,3.51-5.68,1.5,0,.16,4.18,8.18,4.68A227.17,227.17,0,0,1,269.8,64.63c6.68-11.35,18.38-32.06,18.71-33.4a2.16,2.16,0,0,1,2-1.34c1.67,0,7,7,7,10.69,0,5.35-15.37,29.06-21.38,40.75-3.17,6.18-3.67,7.35-3.67,7.35,16.2-2.67,54.61-26.05,54.61-51.6,0-10.53-14.87-14.87-24.89-14.87-27.89,0-70.14,19-70.14,39.75,0,3.67,1.5,10.85,8.85,10.85,1.67,0,2.51.51,2.51,1.34S241.58,76,238.24,76c-9,0-17.54-8.35-17.54-20,0-34.41,54.62-49.6,72.82-49.6C315.06,6.35,334.27,14,334.27,37.41Z"/><path class="cls-1" d="M401.57,66.47c0,8-20.54,47.43-33.9,47.43-8.52,0-11.53-6.51-11.53-10.36,0-3.67,1-8.85,3.17-15.19-7.68,11.19-17.87,24.71-21.87,24.71-8.52,0-12-6.68-12-16.2,0-21.37,18-56.61,35.41-56.61,6.51,0,12.36,6.18,15.7,10.19.5-1,3.17-8.52,6.34-8.52s9,5.68,9,9.18a2.74,2.74,0,0,1-.5,1.51c-5.68,5.68-19.71,37.74-19.71,48.1,6.18,0,22.05-21.55,27.89-37.92a.76.76,0,0,1,.5-.16C400.57,62.63,401.57,63.13,401.57,66.47ZM369.5,64.3c1.17-2.34,2.34-5,3.68-7.52-1.34-1.5-3.68-3.17-8.35-3.17-9.69,0-24.05,34.4-24.05,41.58,0,.84.16,1.34.66,1.34C345.29,96.53,361.65,74.82,369.5,64.3Z"/><path class="cls-1" d="M400.56,54.28c5.68-14.37,19.38-48.6,24.39-48.6,3.17,0,10.18,5.68,10.18,9.18a2.67,2.67,0,0,1-.5,1.51c-2.17,2.17-10.52,19-18,38.41,1.51,0,3,.17,4.35.17,3.67,0,6.51-.34,7.35-1.17,0,0,1.16.5,1.16,1.17,0,2.33-3.67,7.68-9,7.68h-6.85c-5,13.53-9.52,27.39-11,37.91,6.68-1.84,21.21-22.21,26.88-37.91a.74.74,0,0,1,.51-.17c.5,0,1.5.5,1.5,3.84,0,8-20.54,47.43-33.9,47.43-8.52,0-11.53-6.51-11.53-10.35,0-6,4.51-22.21,11.36-40.92h-.5c-3.51,0-5,1-6.18,1a.94.94,0,0,1-1-1c0-2.34,1.33-7.35,7-8A29.57,29.57,0,0,1,400.56,54.28Z"/><path class="cls-1" d="M493.25,66.47c0,8-20.54,47.26-33.91,47.26-8.51,0-11.52-6.51-11.52-10.35,0-8,5.35-23.22,15.53-43.76C454.67,65.47,432,102.21,432,109.06c0,1,.16,2.33.16,3.34a10,10,0,0,1-4.67,1.33c-8.52,0-11.53-6.51-11.53-10.35,0-11.86,20.71-61.46,38.25-93.69,0,0,2-4,4-4,3.17,0,10.18,5.68,10.18,9.18a2.67,2.67,0,0,1-.5,1.51c-3.34,3.5-23.71,41.92-32.23,70.47,15.2-26.38,30.73-40.75,34.24-43.08,3-2,4.67-2,4.67-2,3.18,0,9,5.68,9,9.19a1.81,1.81,0,0,1-.67,1.5c-5.34,5.68-19.54,37.74-19.54,48.1,6.18,0,22-21.38,27.89-37.75a.76.76,0,0,1,.5-.16C492.25,62.63,493.25,63.13,493.25,66.47Z"/><path class="cls-1" d="M532.24,54.28c5.68-14.37,19.37-48.6,24.38-48.6,3.18,0,10.19,5.68,10.19,9.18a2.67,2.67,0,0,1-.5,1.51c-2.17,2.17-10.52,19-18,38.41,1.51,0,3,.17,4.35.17,3.67,0,6.51-.34,7.34-1.17,0,0,1.17.5,1.17,1.17,0,2.33-3.67,7.68-9,7.68h-6.85c-5,13.53-9.52,27.39-11,37.91,6.68-1.84,21.21-22.21,26.88-37.91a.73.73,0,0,1,.5-.17c.51,0,1.51.5,1.51,3.84,0,8-20.54,47.43-33.9,47.43-8.52,0-11.53-6.51-11.53-10.35,0-6,4.51-22.21,11.36-40.92h-.5c-3.51,0-5,1-6.18,1a.94.94,0,0,1-1-1c0-2.34,1.33-7.35,7-8A29.57,29.57,0,0,1,532.24,54.28Z"/><path class="cls-1" d="M599.37,75c-6,19-19.87,40.41-32.56,40.41-6.35,0-13.7-7.85-14.36-12.52a54.43,54.43,0,0,1-.84-9.19C551.44,72.81,564,52.27,578.5,42.92a14.77,14.77,0,0,1,7.68-2.34c6.18,0,13,3,16.2,8.52a39.56,39.56,0,0,1,.5,6.35,52.36,52.36,0,0,1-1,11c11.52-1,16.37-3.17,19.87-11a16.35,16.35,0,0,1,4-.84C626.26,66.47,610.4,77.83,599.37,75Zm-7.51-3.34a29.21,29.21,0,0,1-7.35-10.86c-11.19,11.19-19,27.06-19,39.92a26.21,26.21,0,0,0,.5,5.17C573.49,104.88,585.35,87.34,591.86,71.65Z"/><path class="cls-1" d="M115.11,345.86,135.25,154h48.37a125.28,125.28,0,0,1,18.92,1.27,58.13,58.13,0,0,1,15.57,4.63,32.11,32.11,0,0,1,11.74,8.85A34.38,34.38,0,0,1,236.28,183a52.51,52.51,0,0,1,1.15,11.35,74.79,74.79,0,0,1-.58,9.14q-4,34.71-32.28,39.11,29.51,5,29.51,38.54a80.29,80.29,0,0,1-.47,8.44q-2.78,28.13-18.57,42.18t-43,14.07Zm41.2-27h11q14.94,0,21.41-7t8.1-22.74a67.1,67.1,0,0,0,.47-7.64q0-11-4.17-16.54-5.45-7.29-20.6-7.3h-9.83Zm9.14-87.37h9.61q14.69,0,20.77-6.42t7.58-21c.15-1.62.23-3.17.23-4.63q0-10-5.32-14.12-6.48-5.1-21.76-5.09h-5.67Z"/><path class="cls-1" d="M240.33,345.86,298.3,154H340l17.48,191.87H321.91L319.13,303h-30.9l-11.68,42.82Zm54.15-66.78h23.38l-3.59-76.84Z"/><path class="cls-1" d="M376.42,345.86,396.55,154h47.79a138.51,138.51,0,0,1,21.3,1.44,60.67,60.67,0,0,1,16.66,5,33.44,33.44,0,0,1,12,9.26,34.3,34.3,0,0,1,6.48,14.58,50.62,50.62,0,0,1,1,11.69c0,2.85-.16,5.82-.46,8.91q-1.86,18-8.91,29.74a43.11,43.11,0,0,1-20.6,17.47l18.51,93.74H452.33l-14.58-86.8H423.86l-9.14,86.8Zm49.87-110.17h9.49q14.36,0,21.06-6.6t8.33-21.52c.24-2.39.35-4.63.35-6.71q.12-9.37-3.35-14.24-4.64-6.48-18.29-6.59H432.19Z"/><path class="cls-1" d="M559.72,348.52q-14.12,0-23.84-4.69a32.34,32.34,0,0,1-14.58-13.25,57.72,57.72,0,0,1-6.6-21.06,86.82,86.82,0,0,1-.81-12,122.54,122.54,0,0,1,1.05-15.5l6.59-63.07a154.66,154.66,0,0,1,4.11-23.15,77,77,0,0,1,7.58-18.63,48.85,48.85,0,0,1,11.8-14,49.71,49.71,0,0,1,16.9-8.56,78.2,78.2,0,0,1,22.68-3q15,0,25.23,3.76t15.74,11.22a40.45,40.45,0,0,1,7.29,17.54,75.64,75.64,0,0,1,.92,12.26q0,5.32-.58,11.46l-1.15,10.65H595l1.27-12.39q.57-6.94.58-12.26v-1.86q-.12-6-3.65-9.37t-11.05-3.36a18.78,18.78,0,0,0-8.39,1.74,17.42,17.42,0,0,0-5.61,4.17,19.28,19.28,0,0,0-3.47,6.77,54.07,54.07,0,0,0-2,7.87c-.39,2.35-.77,5.42-1.16,9.2l-8.68,82q-.46,5-.46,9.26c.08,2.24.19,4.32.35,6.25q.69,6.6,4.45,10.3t11,3.7q10.88,0,15.92-7.93t6.65-23.08l1.85-18.4H573.49L576,247.38h53.81l-10.42,98.48H594.32l-.58-17.94Q583.09,348.52,559.72,348.52Z"/><path class="cls-1" d="M636,345.86,694,154h41.66l17.47,191.87H717.57L714.79,303h-30.9L672.2,345.86Zm54.16-66.78h23.38l-3.59-76.84Z"/><path class="cls-1" d="M772.88,345.86,793,154h38L810.84,345.86Z"/><path class="cls-1" d="M839.88,345.86,860,154h26.73l32.87,101.26L930.26,154h31.83L942,345.86H916.49L883.86,238.35,872.52,345.86Z"/><path class="cls-1" d="M971.23,345.86,991.37,154h37.95l-20.13,191.87Z"/><path class="cls-1" d="M1038.23,345.86,1058.37,154h26.73L1118,255.25,1128.61,154h31.83L1140.3,345.86h-25.46l-32.63-107.51-11.34,107.51Z"/><path class="cls-1" d="M1217.26,348.52q-14.13,0-23.84-4.69a32.34,32.34,0,0,1-14.58-13.25,57.72,57.72,0,0,1-6.6-21.06,86.82,86.82,0,0,1-.81-12,124.34,124.34,0,0,1,1-15.5l6.6-63.07a152.15,152.15,0,0,1,4.11-23.15,77,77,0,0,1,7.58-18.63,48.85,48.85,0,0,1,11.8-14,49.71,49.71,0,0,1,16.9-8.56,78.2,78.2,0,0,1,22.68-3q15,0,25.22,3.76t15.74,11.22a40.33,40.33,0,0,1,7.29,17.54,74.47,74.47,0,0,1,.93,12.26q0,5.32-.58,11.46l-1.16,10.65h-37l1.27-12.39q.59-6.94.58-12.26v-1.86q-.11-6-3.64-9.37t-11-3.36a18.78,18.78,0,0,0-8.39,1.74,17.36,17.36,0,0,0-5.62,4.17,19.45,19.45,0,0,0-3.47,6.77,56.79,56.79,0,0,0-2,7.87c-.38,2.35-.77,5.42-1.15,9.2l-8.68,82q-.47,5-.47,9.26.12,3.36.35,6.25.7,6.6,4.46,10.3t11,3.7q10.88,0,15.91-7.93t6.65-23.08l1.86-18.4H1231l2.54-23.72h53.81L1277,345.86h-25.11l-.58-17.94Q1240.63,348.52,1217.26,348.52Z"/></g></g></svg>