<svg xmlns="http://www.w3.org/2000/svg" viewBox="0 0 120.12 120.12"><defs><style>.cls-1{fill:#869865;}.cls-2{fill:#fff;}</style></defs><title>Theme 1</title><g id="Layer_2" data-name="Layer 2"><g id="Layer_1-2" data-name="Layer 1"><circle class="cls-1" cx="60.06" cy="60.06" r="60.06"/><path class="cls-2" d="M29.76,93.89c2.93-1.58,5.64-3.13,8.44-4.52a2.87,2.87,0,0,0,1.76-3c0-4.63-.4-5.26-4.93-6.18a3.69,3.69,0,0,0-2.22.52c-2.66,1.39-5.26,2.87-8.54,4.67A41.55,41.55,0,0,1,25,79.78a13.32,13.32,0,0,1,14.38-9.9,7.47,7.47,0,0,0,6.58-2.46q10.88-11.07,22-21.93a7.72,7.72,0,0,0,2.39-7,12.76,12.76,0,0,1,6.52-13c4.77-2.83,9.66-2.64,14.4.31a10.42,10.42,0,0,1,.8.73,76.54,76.54,0,0,1-7.07,3.81c-2.37,1-3.52,2.44-3.13,5,.16,1.11.13,2.93.7,3.17,2.06.84,4,2.85,6.63,1.2s5.2-2.89,7.88-4.35A13.18,13.18,0,0,1,83.19,50.58a9.39,9.39,0,0,0-8.1,3.19C68,61.05,60.79,68.18,53.56,75.31a6.69,6.69,0,0,0-2.13,6.1c.7,5.58-1.28,10.16-6,13.27s-9.39,3.06-14.21.41a7.48,7.48,0,0,1-.84-.54A4.91,4.91,0,0,1,29.76,93.89Z"/><path class="cls-2" d="M85.51,95.68c-3.81-1.16-6-4.4-8.61-6.82l13.19-13.2c2.65,2.87,6.34,5.22,7,9.77v2.13a1.72,1.72,0,0,0-.18.42A8.75,8.75,0,0,1,93.17,94,26.89,26.89,0,0,1,90,95.68Z"/><path class="cls-2" d="M85.49,71.09,72.33,84.24l-.64-.59Q50.48,62.43,29.27,41.2a3.4,3.4,0,0,1-.81-1.46c-1.41-5.5-2.78-11-4.19-16.63.34.05.62.06.88.12l16.17,4.05a2.22,2.22,0,0,1,1,.58Q63.75,49.3,85.2,70.76C85.31,70.87,85.41,71,85.49,71.09Z"/></g></g></svg>