<svg xmlns="http://www.w3.org/2000/svg" viewBox="0 0 120.12 120.12"><defs><style>.cls-1{fill:#729994;}.cls-2{fill:#fff;}</style></defs><title>Theme 4</title><g id="Layer_2" data-name="Layer 2"><g id="Layer_1-2" data-name="Layer 1"><circle class="cls-1" cx="60.06" cy="60.06" r="60.06"/><path class="cls-2" d="M66.07,8.67a4.9,4.9,0,0,1,2.54,1.63q8.31,8.28,16.58,16.59a4.14,4.14,0,0,1,1.31,2A4,4,0,0,1,82,33.6a4.08,4.08,0,0,1-2.35-1.23C74.5,27.1,69.26,21.86,64.05,16.61c-.49-.49-.94-1-1.43-1.5a3.78,3.78,0,0,1,.69-5.69,11.13,11.13,0,0,1,1.6-.75Z"/><path class="cls-2" d="M23.15,93a5.51,5.51,0,0,1,.57-.06H57.64v4.71H23.15Z"/><path class="cls-2" d="M60.3,16.43,79,35.12a2.49,2.49,0,0,0-.42.31Q74,40.08,69.4,44.75c-.47.48-.47.51,0,1,3.48,3.28,6.94,6.59,10.45,9.85,4.43,4.12,8.91,8.18,13.32,12.3,3.74,3.49,7.43,7,11.12,10.56a11.87,11.87,0,0,1,2.52,3,6.31,6.31,0,0,1-2.78,8.43,6.52,6.52,0,0,1-3.2.58,5.22,5.22,0,0,1-3.81-1.59c-2.48-2.54-5-5-7.47-7.58Q77.83,68.71,66.15,56c-1.22-1.31-2.48-2.59-3.72-3.88-.08-.09-.18-.17-.29-.27l-10,10L33.52,43.21C42.39,34.33,51.36,25.37,60.3,16.43Z"/><path class="cls-2" d="M54.86,89.76H26s-.06-.05-.06-.07c0-1.88,0-3.77.14-5.65a4,4,0,0,1,4.11-3.53c6,0,12.06,0,18.08,0,1,0,2,.09,3,.09,1.64,0,3.42,2,3.49,3.32.09,1.9.09,3.8.13,5.7A.56.56,0,0,1,54.86,89.76Z"/><path class="cls-2" d="M29.48,44.62a3.69,3.69,0,0,1,2.32.91c2.67,2.6,5.4,5.13,8,7.76,3.33,3.33,6.59,6.72,9.89,10.08,1.15,1.19,1,2.58.49,3.93a3.41,3.41,0,0,1-2.9,2.24c-1.61.31-2.68-.56-3.7-1.54-2.7-2.59-5.39-5.19-8-7.83-2.95-3-5.81-6-8.78-8.93a3.86,3.86,0,0,1,1-6.13A9.3,9.3,0,0,1,29.48,44.62Z"/></g></g></svg>