<svg xmlns="http://www.w3.org/2000/svg" viewBox="0 0 120.12 120.12"><defs><style>.cls-1{fill:#936b8a;}.cls-2{fill:#fff;}</style></defs><title>Theme 3</title><g id="Layer_2" data-name="Layer 2"><g id="Layer_1-2" data-name="Layer 1"><circle class="cls-1" cx="60.06" cy="60.06" r="60.06"/><path class="cls-2" d="M78.44,25.22a9,9,0,0,1,6,2.6c1.76,1.59,2.21,3.74,2.12,6.09a8.32,8.32,0,0,1,4.73,1.59,7,7,0,0,1,2.91,8.77c-1.18,2.79-2.43,5.55-3.62,8.33a2.41,2.41,0,0,0-.13,1.22c1.55,10.34-.52,19.71-7.33,27.86a1.68,1.68,0,0,0-.3,1q0,11.82,0,23.64a2.77,2.77,0,0,1-3,3.07q-14.8,0-29.6,0a2.72,2.72,0,0,1-3-3c0-5.8,0-11.6,0-17.4a1.45,1.45,0,0,0-.52-1.12c-1.66-1.71-3.28-3.46-4.88-5.21-2-2.21-4.08-4.37-5.94-6.69a32.78,32.78,0,0,1-3-4.85c-1.69-3.06-3-6.35-5-9.2a12.38,12.38,0,0,1-2.23-5,11.78,11.78,0,0,1,.75-6.91c2.18-5.17,4.32-10.35,6.54-15.49a9.78,9.78,0,0,1,6.88-5.87,1.09,1.09,0,0,0,.88-.77c1.26-3.45,2.56-6.89,3.83-10.34a10.33,10.33,0,0,1,19.12-.87c.07.16.15.31.23.46A10.47,10.47,0,0,1,78.44,25.22ZM57.3,56.72c.46.24,1,.52,1.47.76,1.49.69,3,1.39,3.84,2.88.68,1.17,1.31,2.37,1.93,3.56A2.75,2.75,0,1,1,59.7,66.5c-.42-.79-.75-1.64-1.23-2.4a3.53,3.53,0,0,0-1.25-1.21c-3.87-2-7.79-4-11.66-6a3.21,3.21,0,0,1-1.35-1.33,38.68,38.68,0,0,1-1.79-4.62,2.66,2.66,0,0,1,3.3-3.38c3.8,1,7.57,2.24,11.37,3.31a5.19,5.19,0,0,0,2.34.19c2.25-.47,3.76-2.61,3.85-5.21a5.28,5.28,0,0,0-3.42-5.35l-7-2.87a63.31,63.31,0,0,1-7.67-3.22A5.51,5.51,0,0,0,37.79,37c-2,5.17-4.28,10.25-6.42,15.38a6.34,6.34,0,0,0,.89,6.23c2.12,2.88,3.53,6.16,5.18,9.31a22.57,22.57,0,0,0,2.46,4.28c3,3.59,6.19,7,9.33,10.53A4.89,4.89,0,0,0,50.74,84a3.11,3.11,0,0,1,1.93,3.23c0,5.27,0,10.54,0,15.81v.87H77.3V83.5c0-.91,0-1.81,0-2.71a2.69,2.69,0,0,1,.86-1.94,23.12,23.12,0,0,0,4-5.53,28.32,28.32,0,0,0,3.24-12.38c0-1,0-1.92,0-2.83-4.78.55-8-1.27-10.05-5.46a6.74,6.74,0,0,1-5.87-1C66.36,55.68,61.89,56.28,57.3,56.72ZM46.15,28.89,55,32.58c1.32-3.6,2.7-7.06,3.87-10.59a4.58,4.58,0,0,0-3-5.53,4.71,4.71,0,0,0-5.94,2.43C48.6,22.15,47.44,25.47,46.15,28.89Zm21,10.91c.82-1.84,1.56-3.56,2.35-5.25.9-1.95,1.75-3.93,2.81-5.8a4.33,4.33,0,0,0,.53-3.43,4.92,4.92,0,0,0-4.46-3.55,4.65,4.65,0,0,0-4.64,3c-.72,1.87-1.4,3.75-2.1,5.62-.51,1.38-1,2.75-1.59,4.25C63,35.58,65.64,36.88,67.17,39.8ZM82,33.17c.1-1.81-1.18-2.47-2.47-3.1a2.41,2.41,0,0,0-2.82.59,4.66,4.66,0,0,0-1.1,1.5c-1.68,3.7-3.33,7.43-5,11.16-1,2.19-.52,3.38,1.53,4.59a2.37,2.37,0,0,0,3-.21A5.27,5.27,0,0,0,76.52,46c1.7-3.7,3.34-7.43,5-11.16A13.33,13.33,0,0,0,82,33.17Zm4.8,5.73a2.16,2.16,0,0,0-2.18,1.25Q82.45,45,80.36,49.91a1.91,1.91,0,0,0,.87,2.46c.32.2.65.38,1,.56a2.11,2.11,0,0,0,3.13-1c1.42-3.14,2.78-6.31,4.16-9.47a1.88,1.88,0,0,0-.11-1.94A4.7,4.7,0,0,0,86.8,38.9Z"/></g></g></svg>