<svg xmlns="http://www.w3.org/2000/svg" viewBox="0 0 41.63 17.25"><defs><style>.cls-1{fill:#cf4137;}.cls-2{fill:#fff;}</style></defs><title>Asset 18</title><g id="Layer_2" data-name="Layer 2"><g id="Layer_1-2" data-name="Layer 1"><g id="Layer_2-2" data-name="Layer 2"><g id="Layer_1-2-2" data-name="Layer 1-2"><path class="cls-1" d="M0,17l.22-2.14,4.55-6.1.45-.6.49-.64c.11-.14.24-.34.41-.6a5.88,5.88,0,0,0,.39-.68,5.61,5.61,0,0,0,.25-.67,3.35,3.35,0,0,0,.16-.75,2.82,2.82,0,0,0,0-.4,1.66,1.66,0,0,0-.21-.9.87.87,0,0,0-.79-.39H5.79c-.88.07-1.41.88-1.58,2.43l-.08.72h-3l.08-.76a8.09,8.09,0,0,1,.45-2A5.22,5.22,0,0,1,2.62,2,3.71,3.71,0,0,1,4.08,1a5.19,5.19,0,0,1,2-.37,3.89,3.89,0,0,1,3.11,1A3.53,3.53,0,0,1,10,4.12a6,6,0,0,1,0,.72,4.55,4.55,0,0,1-.1.61A2.22,2.22,0,0,1,9.77,6a3.8,3.8,0,0,1-.2.55c-.09.2-.16.36-.22.48a3.5,3.5,0,0,1-.28.5L8.72,8l-.33.47-.32.43c-.06.07-.17.23-.36.46l-.35.45L3.69,14.57H8.48L8.22,17Z"/><path class="cls-1" d="M15,14.59q1.22,0,1.44-2.1l.74-7.09v-1a1.29,1.29,0,0,0,0-.42A1.84,1.84,0,0,0,17,3.59a.63.63,0,0,0-.31-.27,1.21,1.21,0,0,0-.48-.09,1.11,1.11,0,0,0-.58.14,1.26,1.26,0,0,0-.4.35,1.75,1.75,0,0,0-.24.53,4.44,4.44,0,0,0-.15.57c0,.16-.05.36-.07.58L14,12.49v.59C14,14.09,14.31,14.59,15,14.59Zm-.28,2.65A3.6,3.6,0,0,1,11.65,16a4.22,4.22,0,0,1-.79-2.65,7,7,0,0,1,0-.77l.75-7.21A5.79,5.79,0,0,1,13.1,1.85,4.39,4.39,0,0,1,16.46.58a3.58,3.58,0,0,1,3.08,1.27A4.31,4.31,0,0,1,20.3,4.5a6.28,6.28,0,0,1,0,.84l-.75,7.21A5.51,5.51,0,0,1,18,16a4.43,4.43,0,0,1-3.29,1.28Z"/><path class="cls-1" d="M25.51,14.59c.81,0,1.29-.7,1.43-2.1l.75-7.09a4.71,4.71,0,0,0,0-.48V4.44a1.55,1.55,0,0,0,0-.42,1.84,1.84,0,0,0-.17-.38.68.68,0,0,0-.31-.27,1.21,1.21,0,0,0-.48-.09,1.15,1.15,0,0,0-.59.14,1.22,1.22,0,0,0-.39.35,1.75,1.75,0,0,0-.25.53c-.06.21-.11.41-.14.57a2.75,2.75,0,0,1-.08.58l-.74,7.09v.59C24.48,14.09,24.82,14.59,25.51,14.59Zm-.29,2.65a3.6,3.6,0,0,1-3-1.27,4.22,4.22,0,0,1-.79-2.65,7,7,0,0,1,0-.77l.75-7.21a5.78,5.78,0,0,1,1.44-3.49A4.42,4.42,0,0,1,27,.58a3.59,3.59,0,0,1,3.09,1.27,4.31,4.31,0,0,1,.76,2.65,5,5,0,0,1,0,.84L30,12.55A5.51,5.51,0,0,1,28.52,16,4.45,4.45,0,0,1,25.22,17.24Z"/><path class="cls-1" d="M34.31,10.77h2.37l.72-6.82ZM36,17l.4-3.86H31.6l.28-2.53L37,.78h3.47l-1,10h1.62l-.24,2.36H39.23L38.82,17Z"/><path class="cls-1" d="M.06,16.93l.22-2.14,4.54-6.1.46-.6c.21-.28.38-.49.48-.64s.25-.34.42-.6a5.88,5.88,0,0,0,.39-.68c.08-.19.17-.42.25-.67A3.35,3.35,0,0,0,7,4.75v-.4a1.66,1.66,0,0,0-.21-.9A.89.89,0,0,0,6,3H5.85C5,3.09,4.44,3.9,4.27,5.45l-.08.72h-3l.08-.76a7.76,7.76,0,0,1,.45-2,5.41,5.41,0,0,1,1-1.49,3.82,3.82,0,0,1,1.47-1,5.19,5.19,0,0,1,2-.37A3.85,3.85,0,0,1,9.25,1.63,3.66,3.66,0,0,1,10,4.07v.71a4.55,4.55,0,0,1-.1.61,2.22,2.22,0,0,1-.13.55,3.42,3.42,0,0,1-.2.55c-.09.2-.17.36-.22.49a3.5,3.5,0,0,1-.28.49l-.28.45-.33.47c-.17.21-.27.36-.33.43l-.35.46-.35.45L3.75,14.51H8.53l-.25,2.42Z"/><path class="cls-1" d="M15.05,14.53c.81,0,1.29-.7,1.43-2.1l.74-7.09v-1a1.61,1.61,0,0,0-.07-.47A1.84,1.84,0,0,0,17,3.53a.68.68,0,0,0-.31-.27,1.21,1.21,0,0,0-.48-.09,1.25,1.25,0,0,0-.59.14,1.22,1.22,0,0,0-.39.35,1.75,1.75,0,0,0-.25.53,4.65,4.65,0,0,0-.14.57,1.61,1.61,0,0,1-.08.58L14,12.43V13C14,14,14.36,14.53,15.05,14.53Zm-.29,2.65a3.6,3.6,0,0,1-3-1.27A4.22,4.22,0,0,1,11,13.26a7,7,0,0,1,0-.77l.75-7.21a5.78,5.78,0,0,1,1.44-3.49A4.42,4.42,0,0,1,16.51.52,3.59,3.59,0,0,1,19.6,1.79a4.31,4.31,0,0,1,.76,2.65,5,5,0,0,1,0,.84l-.75,7.21a5.51,5.51,0,0,1-1.48,3.41A4.45,4.45,0,0,1,14.76,17.18Z"/><path class="cls-1" d="M25.56,14.53q1.23,0,1.44-2.1l.74-7.09v-1a2,2,0,0,0-.07-.47,1.84,1.84,0,0,0-.17-.38.66.66,0,0,0-.32-.27,1.13,1.13,0,0,0-.47-.09,1.22,1.22,0,0,0-.59.14,1.38,1.38,0,0,0-.4.35,2,2,0,0,0-.24.53,3.33,3.33,0,0,0-.14.57,5.28,5.28,0,0,1-.08.58l-.74,7.09V13C24.54,14,24.88,14.53,25.56,14.53Zm-.28,2.65a3.62,3.62,0,0,1-3.06-1.27,4.28,4.28,0,0,1-.79-2.65v-.77l.75-7.21a5.79,5.79,0,0,1,1.45-3.49A4.42,4.42,0,0,1,27,.52a3.6,3.6,0,0,1,3.09,1.27,4.38,4.38,0,0,1,.76,2.65,5,5,0,0,1,0,.84l-.75,7.21a5.56,5.56,0,0,1-1.48,3.41A4.45,4.45,0,0,1,25.28,17.18Z"/><path class="cls-1" d="M34.36,10.72h2.38l.72-6.83Zm1.73,6.21.4-3.86H31.66l.27-2.53L37.11.73h3.46l-1,10h1.62l-.24,2.35H39.29l-.41,3.86Z"/><path class="cls-1" d="M.11,16.87l.23-2.14,4.54-6.1L5.33,8l.49-.64q.16-.21.42-.6a5.62,5.62,0,0,0,.38-.68,6.77,6.77,0,0,0,.26-.67A4,4,0,0,0,7,4.69v-.4a1.58,1.58,0,0,0-.22-.9A.87.87,0,0,0,6.05,3H5.9C5,3.09,4.49,3.9,4.32,5.45l-.08.72h-3l.07-.76a7.75,7.75,0,0,1,.46-2,5.19,5.19,0,0,1,.91-1.55A3.75,3.75,0,0,1,4.2.82a5.19,5.19,0,0,1,2-.37A3.84,3.84,0,0,1,9.3,1.57,3.56,3.56,0,0,1,10.08,4v.71a2.78,2.78,0,0,1-.1.61c0,.21-.09.39-.13.55a4.76,4.76,0,0,1-.2.55c-.1.2-.17.36-.22.49a3.5,3.5,0,0,1-.28.49l-.29.45c-.05.09-.17.25-.33.47l-.32.43-.36.47-.34.44-3.7,4.77H8.59l-.25,2.42Z"/><path class="cls-1" d="M15.1,14.47q1.23,0,1.44-2.1l.74-7.09v-1a2,2,0,0,0-.07-.47A2.59,2.59,0,0,0,17,3.47a.71.71,0,0,0-.32-.27,1.13,1.13,0,0,0-.47-.09,1.22,1.22,0,0,0-.59.14,1.38,1.38,0,0,0-.4.35,2,2,0,0,0-.24.53,3.33,3.33,0,0,0-.14.57,1.61,1.61,0,0,1-.08.58l-.74,7.09V13C14.08,14,14.42,14.47,15.1,14.47Zm-.28,2.65a3.6,3.6,0,0,1-3.06-1.27A4.28,4.28,0,0,1,11,13.2v-.77l.75-7.21A5.79,5.79,0,0,1,13.2,1.73,4.42,4.42,0,0,1,16.57.46a3.58,3.58,0,0,1,3.08,1.27,4.32,4.32,0,0,1,.77,2.65,5,5,0,0,1,0,.84l-.75,7.21a5.56,5.56,0,0,1-1.48,3.41A4.47,4.47,0,0,1,14.82,17.12Z"/><path class="cls-1" d="M25.62,14.47c.82,0,1.29-.7,1.44-2.1l.74-7.09v-1a1.33,1.33,0,0,0-.07-.47,1.43,1.43,0,0,0-.17-.38.63.63,0,0,0-.31-.27,1.17,1.17,0,0,0-.48-.09,1.21,1.21,0,0,0-.58.14,1.38,1.38,0,0,0-.4.35,2,2,0,0,0-.24.53,3.33,3.33,0,0,0-.14.57c0,.16-.06.36-.08.58l-.74,7.09V13C24.6,14,24.94,14.47,25.62,14.47Zm-.28,2.65a3.6,3.6,0,0,1-3.06-1.27,4.22,4.22,0,0,1-.79-2.65,7,7,0,0,1,0-.77l.75-7.21a5.79,5.79,0,0,1,1.45-3.49A4.39,4.39,0,0,1,27.09.46a3.58,3.58,0,0,1,3.08,1.27,4.31,4.31,0,0,1,.76,2.65,8.39,8.39,0,0,1,0,.84l-.76,7.21a5.51,5.51,0,0,1-1.48,3.41A4.43,4.43,0,0,1,25.34,17.12Z"/><path class="cls-1" d="M34.42,10.66h2.37l.73-6.83Zm1.73,6.21.4-3.86H31.72L32,10.48,37.16.67h3.47l-1,10h1.62L41,13H39.34l-.41,3.86Z"/><path class="cls-1" d="M.17,16.81.4,14.67,4.94,8.58c.08-.12.23-.32.45-.61l.49-.64c.11-.14.24-.34.41-.6A5.88,5.88,0,0,0,6.68,6a5,5,0,0,0,.25-.67,3.35,3.35,0,0,0,.16-.75,2.82,2.82,0,0,0,0-.4,1.66,1.66,0,0,0-.21-.9.87.87,0,0,0-.79-.39H6c-.88.07-1.41.88-1.58,2.43l-.08.72h-3l.08-.76a8.2,8.2,0,0,1,.45-2,5.22,5.22,0,0,1,.92-1.55,3.71,3.71,0,0,1,1.46-1,5.23,5.23,0,0,1,2-.37A3.85,3.85,0,0,1,9.36,1.51a3.61,3.61,0,0,1,.78,2.44,6,6,0,0,1,0,.71,4.55,4.55,0,0,1-.1.61,5.61,5.61,0,0,1-.13.55,3.42,3.42,0,0,1-.2.55l-.22.49a4.18,4.18,0,0,1-.28.49l-.28.45-.33.47-.32.43-.36.47-.35.44L3.86,14.4H8.65l-.26,2.41Z"/><path class="cls-1" d="M15.16,14.41c.81,0,1.29-.69,1.44-2.09l.74-7.09v-1a1.33,1.33,0,0,0-.07-.47,1.43,1.43,0,0,0-.17-.38.63.63,0,0,0-.31-.27,1.29,1.29,0,0,0-1.06,0,1.38,1.38,0,0,0-.4.35,1.75,1.75,0,0,0-.24.53,3.33,3.33,0,0,0-.14.57c0,.16-.06.36-.08.59l-.75,7.09v.58C14.14,13.91,14.48,14.41,15.16,14.41ZM14.88,17a3.6,3.6,0,0,1-3.06-1.27,4.21,4.21,0,0,1-.82-2.6,7,7,0,0,1,0-.78l.75-7.21A5.79,5.79,0,0,1,13.2,1.67,4.39,4.39,0,0,1,16.63.4a3.58,3.58,0,0,1,3.08,1.27,4.31,4.31,0,0,1,.76,2.65,6.28,6.28,0,0,1,0,.84l-.75,7.21a5.51,5.51,0,0,1-1.48,3.41A4.39,4.39,0,0,1,14.88,17Z"/><path class="cls-1" d="M25.68,14.41c.81,0,1.29-.69,1.43-2.09l.75-7.09v-1a1.61,1.61,0,0,0-.07-.47,1.84,1.84,0,0,0-.17-.38.63.63,0,0,0-.31-.27A1.21,1.21,0,0,0,26.87,3a1.25,1.25,0,0,0-.59.14,1.22,1.22,0,0,0-.39.35,1.75,1.75,0,0,0-.25.53c-.06.22-.11.41-.14.57s0,.36-.08.59l-.74,7.09v.58C24.65,13.91,25,14.41,25.68,14.41ZM25.4,17a3.6,3.6,0,0,1-3.06-1.27,4.21,4.21,0,0,1-.79-2.64,7,7,0,0,1,0-.78l.75-7.21a5.78,5.78,0,0,1,1.44-3.49A4.42,4.42,0,0,1,27.14.4a3.59,3.59,0,0,1,3.09,1.27A4.31,4.31,0,0,1,31,4.32v.84l-.75,7.21a5.51,5.51,0,0,1-1.48,3.41A4.41,4.41,0,0,1,25.4,17Z"/><path class="cls-1" d="M34.48,10.6h2.37l.72-6.83Zm1.73,6.21.4-3.86H31.77L32,10.42,37.22.61h3.47l-1,10h1.62L41,12.95H39.4L39,16.81Z"/><path class="cls-1" d="M.23,16.75l.22-2.14L5,8.52l.46-.61.49-.63.41-.61A5.88,5.88,0,0,0,6.74,6,6.94,6.94,0,0,0,7,5.32a3.35,3.35,0,0,0,.16-.75,2.82,2.82,0,0,0,0-.4A1.66,1.66,0,0,0,7,3.27a.89.89,0,0,0-.8-.39H6c-.89.07-1.41.88-1.58,2.43L4.36,6h-3l.08-.76a8.2,8.2,0,0,1,.45-2A5.55,5.55,0,0,1,2.8,1.71a3.82,3.82,0,0,1,1.47-1,5.19,5.19,0,0,1,2-.37A3.86,3.86,0,0,1,9.42,1.46a3.62,3.62,0,0,1,.78,2.43V4.6a4.55,4.55,0,0,1-.1.61,2.22,2.22,0,0,1-.13.55,3.42,3.42,0,0,1-.2.55c-.09.2-.17.36-.22.49a3.5,3.5,0,0,1-.28.49L9,7.74l-.33.47-.33.43L8,9.11l-.35.44L3.92,14.34H8.7l-.25,2.41Z"/><path class="cls-1" d="M15.22,14.36c.81,0,1.29-.7,1.43-2.1l.75-7.09v-1a1.61,1.61,0,0,0-.07-.47,2.11,2.11,0,0,0-.17-.38.68.68,0,0,0-.31-.27A1.21,1.21,0,0,0,16.41,3a1.25,1.25,0,0,0-.59.14,1.22,1.22,0,0,0-.39.35,1.75,1.75,0,0,0-.25.53c-.06.22-.11.41-.14.57A2.92,2.92,0,0,1,15,5.2l-.74,7.09v.58C14.19,13.85,14.53,14.36,15.22,14.36ZM14.93,17a3.6,3.6,0,0,1-3-1.27,4.21,4.21,0,0,1-.79-2.64,7,7,0,0,1,0-.78l.75-7.21a5.78,5.78,0,0,1,1.44-3.49A4.45,4.45,0,0,1,16.68.34a3.62,3.62,0,0,1,3.09,1.27,4.31,4.31,0,0,1,.76,2.65,5,5,0,0,1,0,.84l-.75,7.21a5.51,5.51,0,0,1-1.48,3.41A4.41,4.41,0,0,1,14.93,17Z"/><path class="cls-1" d="M25.74,14.36c.81,0,1.29-.7,1.43-2.1l.74-7.09v-1a2,2,0,0,0-.07-.47,2.11,2.11,0,0,0-.17-.38.68.68,0,0,0-.31-.27A1.21,1.21,0,0,0,26.93,3a1.25,1.25,0,0,0-.59.14,1.22,1.22,0,0,0-.39.35A1.75,1.75,0,0,0,25.7,4a4.65,4.65,0,0,0-.14.57,1.69,1.69,0,0,1-.08.59l-.74,7.09v.58C24.71,13.85,25,14.36,25.74,14.36ZM25.45,17a3.6,3.6,0,0,1-3-1.27,4.21,4.21,0,0,1-.8-2.64v-.78l.76-7.21A5.72,5.72,0,0,1,23.8,1.63,4.45,4.45,0,0,1,27.2.34a3.63,3.63,0,0,1,3.09,1.27,4.38,4.38,0,0,1,.76,2.65,5,5,0,0,1,0,.84l-.75,7.21a5.56,5.56,0,0,1-1.48,3.41A4.41,4.41,0,0,1,25.45,17Z"/><path class="cls-1" d="M34.53,10.54h2.38l.72-6.83Zm1.73,6.21.4-3.86H31.83l.27-2.53L37.28.55h3.47l-1,10h1.62l-.24,2.35H39.46L39,16.76Z"/><path class="cls-1" d="M.28,16.69l.23-2.14L5.05,8.46c.08-.12.24-.32.45-.6L6,7.22c.11-.15.25-.35.42-.61a4.52,4.52,0,0,0,.38-.68,5,5,0,0,0,.26-.67,4,4,0,0,0,.16-.75v-.4A1.58,1.58,0,0,0,7,3.21a.87.87,0,0,0-.79-.39H6.08q-1.33.1-1.59,2.43L4.42,6h-3l.07-.77a7.75,7.75,0,0,1,.46-2A5.32,5.32,0,0,1,2.9,1.68a3.75,3.75,0,0,1,1.47-1,5.19,5.19,0,0,1,2-.37A3.83,3.83,0,0,1,9.47,1.4a3.52,3.52,0,0,1,.78,2.43v.71a2.68,2.68,0,0,1-.1.61L10,5.7a4.76,4.76,0,0,1-.2.55c-.1.2-.17.36-.22.49a4.94,4.94,0,0,1-.28.49L9,7.68a4.44,4.44,0,0,1-.33.47l-.32.43L8,9l-.34.44L4,14.28H8.76l-.25,2.41Z"/><path class="cls-1" d="M15.27,14.3q1.23,0,1.44-2.1l.74-7.09v-1a2,2,0,0,0-.07-.47,2.11,2.11,0,0,0-.17-.38A.66.66,0,0,0,16.94,3a1.25,1.25,0,0,0-1.06.06,1.22,1.22,0,0,0-.4.34,2.2,2.2,0,0,0-.24.53,3.33,3.33,0,0,0-.14.57,1.69,1.69,0,0,1-.08.59l-.74,7.09v.58C14.25,13.79,14.59,14.3,15.27,14.3ZM15,16.94a3.62,3.62,0,0,1-3.06-1.27,4.27,4.27,0,0,1-.8-2.65v-.78L11.93,5a5.79,5.79,0,0,1,1.45-3.49A4.45,4.45,0,0,1,16.74.28a3.63,3.63,0,0,1,3.09,1.27,4.4,4.4,0,0,1,.76,2.65,8.21,8.21,0,0,1,0,.84l-.75,7.21a5.56,5.56,0,0,1-1.48,3.41A4.43,4.43,0,0,1,15,16.94Z"/><path class="cls-1" d="M25.79,14.3c.82,0,1.29-.7,1.44-2.1L28,5.11V4.62a3.83,3.83,0,0,0,0-.48,1.63,1.63,0,0,0,0-.47,2.18,2.18,0,0,0-.18-.38A.63.63,0,0,0,27.46,3,1.14,1.14,0,0,0,27,2.93a1.11,1.11,0,0,0-.58.15,1.22,1.22,0,0,0-.4.34,2.2,2.2,0,0,0-.24.53,3.33,3.33,0,0,0-.14.57c0,.16-.06.36-.08.59l-.74,7.09v.58C24.77,13.79,25.11,14.3,25.79,14.3Zm-.28,2.64a3.6,3.6,0,0,1-3.06-1.27A4.21,4.21,0,0,1,21.66,13a7,7,0,0,1,0-.78L22.45,5A5.79,5.79,0,0,1,23.9,1.55,4.42,4.42,0,0,1,27.26.28a3.61,3.61,0,0,1,3.08,1.27A4.33,4.33,0,0,1,31.1,4.2a8.13,8.13,0,0,1,0,.84l-.76,7.21a5.51,5.51,0,0,1-1.48,3.41A4.39,4.39,0,0,1,25.51,16.94Z"/><path class="cls-1" d="M34.59,10.48H37l.73-6.83Zm1.73,6.21.4-3.86H31.89l.27-2.53L37.34.49H40.8l-1,10h1.62l-.25,2.35H39.51L39.1,16.7Z"/><path class="cls-1" d="M.34,16.63l.23-2.14L5.11,8.4q.12-.18.45-.6l.49-.64c.11-.15.24-.35.41-.61a5.88,5.88,0,0,0,.39-.68A5,5,0,0,0,7.1,5.2a2.88,2.88,0,0,0,.16-.75,2.82,2.82,0,0,0,0-.4A1.66,1.66,0,0,0,7,3.15a.87.87,0,0,0-.79-.39H6.13c-.88.07-1.41.88-1.58,2.43l-.08.73h-3l.08-.77a7.75,7.75,0,0,1,.46-2A5.11,5.11,0,0,1,3,1.62a3.71,3.71,0,0,1,1.46-1,5.45,5.45,0,0,1,2-.37A3.86,3.86,0,0,1,9.53,1.34a3.52,3.52,0,0,1,.78,2.43,5.85,5.85,0,0,1,0,.71,1.44,1.44,0,0,1-.09.61,3.71,3.71,0,0,0-.14.55,3.1,3.1,0,0,1-.2.55l-.22.49a3.25,3.25,0,0,1-.27.49l-.29.45-.33.47-.32.43c-.05.08-.17.23-.36.47l-.35.44L4,14.22H8.82l-.26,2.41Z"/><path class="cls-1" d="M15.33,14.24c.82,0,1.29-.7,1.44-2.1L17.51,5V4a1.33,1.33,0,0,0-.07-.47,1.37,1.37,0,0,0-.17-.37A.61.61,0,0,0,17,3a1.21,1.21,0,0,0-.48-.09,1.11,1.11,0,0,0-.58.15,1.22,1.22,0,0,0-.4.34,2.2,2.2,0,0,0-.24.53,3.33,3.33,0,0,0-.14.57c0,.16-.06.36-.08.59l-.74,7.09v.58C14.31,13.73,14.65,14.24,15.33,14.24Zm-.28,2.64A3.6,3.6,0,0,1,12,15.61,4.21,4.21,0,0,1,11.2,13a6.74,6.74,0,0,1,0-.77L12,5a5.79,5.79,0,0,1,1.45-3.49A4.42,4.42,0,0,1,16.8.22a3.61,3.61,0,0,1,3.08,1.27,4.33,4.33,0,0,1,.76,2.65,8.13,8.13,0,0,1,0,.84l-.76,7.22a5.5,5.5,0,0,1-1.48,3.4A4.39,4.39,0,0,1,15.05,16.88Z"/><path class="cls-1" d="M25.85,14.24c.81,0,1.29-.7,1.43-2.1L28,5V4.08a1.61,1.61,0,0,0,0-.47,1.76,1.76,0,0,0-.17-.37A.61.61,0,0,0,27.52,3,1.21,1.21,0,0,0,27,2.87a1.15,1.15,0,0,0-.59.15,1.09,1.09,0,0,0-.39.34,1.87,1.87,0,0,0-.25.53c-.06.22-.11.41-.14.57s0,.36-.07.59l-.75,7.09v.58C24.82,13.73,25.17,14.24,25.85,14.24Zm-.28,2.64a3.6,3.6,0,0,1-3.06-1.27A4.21,4.21,0,0,1,21.72,13a6.74,6.74,0,0,1,0-.77L22.51,5A5.84,5.84,0,0,1,24,1.49,4.45,4.45,0,0,1,27.31.22,3.62,3.62,0,0,1,30.4,1.49a4.33,4.33,0,0,1,.76,2.65,6.1,6.1,0,0,1,0,.84l-.75,7.22a5.5,5.5,0,0,1-1.48,3.4A4.41,4.41,0,0,1,25.57,16.88Z"/><path class="cls-1" d="M34.65,10.42H37l.72-6.83Zm1.73,6.21.4-3.86H31.94l.28-2.53L37.39.43h3.47l-1,10h1.62l-.24,2.35H39.57l-.41,3.86Z"/><path class="cls-1" d="M.4,16.57l.22-2.14L5.16,8.34l.46-.6.49-.64.41-.61a5.88,5.88,0,0,0,.39-.68,6.94,6.94,0,0,0,.25-.67,3.35,3.35,0,0,0,.16-.75,2.82,2.82,0,0,0,0-.4,1.66,1.66,0,0,0-.21-.9.88.88,0,0,0-.79-.39H6.19c-.89.07-1.41.88-1.58,2.43l-.08.73h-3l.08-.77a8.2,8.2,0,0,1,.45-2A5.35,5.35,0,0,1,3,1.56a3.71,3.71,0,0,1,1.48-1,5.38,5.38,0,0,1,2-.37A3.86,3.86,0,0,1,9.59,1.28a3.62,3.62,0,0,1,.78,2.43v.71a4.31,4.31,0,0,1-.1.61,2.11,2.11,0,0,1-.13.55,3.1,3.1,0,0,1-.2.55l-.22.49a3.5,3.5,0,0,1-.28.49l-.28.45c-.06.1-.17.25-.33.47l-.33.43c-.05.08-.17.23-.35.47l-.35.44L4.09,14.16H8.87l-.25,2.41Z"/><path class="cls-1" d="M15.39,14.18c.81,0,1.29-.7,1.43-2.1L17.57,5V4a1.61,1.61,0,0,0-.07-.47,1.76,1.76,0,0,0-.17-.37A.7.7,0,0,0,17,2.9a1.21,1.21,0,0,0-.48-.09A1.15,1.15,0,0,0,16,3a1.09,1.09,0,0,0-.39.34,1.87,1.87,0,0,0-.25.53c-.06.22-.11.41-.14.57s-.05.36-.08.59l-.74,7.09v.58C14.36,13.67,14.7,14.18,15.39,14.18Zm-.28,2.64a3.6,3.6,0,0,1-3.06-1.27,4.21,4.21,0,0,1-.79-2.64,6.74,6.74,0,0,1,0-.77L12,4.92a5.78,5.78,0,0,1,1.44-3.49A4.45,4.45,0,0,1,16.85.16a3.62,3.62,0,0,1,3.09,1.27,4.33,4.33,0,0,1,.76,2.65,8.21,8.21,0,0,1,0,.84l-.75,7.22a5.48,5.48,0,0,1-1.48,3.4A4.41,4.41,0,0,1,15.11,16.82Z"/><path class="cls-1" d="M25.91,14.18c.81,0,1.29-.7,1.43-2.1L28.08,5V4A2,2,0,0,0,28,3.58a1.76,1.76,0,0,0-.17-.37.7.7,0,0,0-.31-.28,1.21,1.21,0,0,0-.48-.09,1.15,1.15,0,0,0-.59.15,1.09,1.09,0,0,0-.39.34,1.87,1.87,0,0,0-.25.53,4.65,4.65,0,0,0-.14.57A5.77,5.77,0,0,1,25.6,5l-.74,7.09v.58C24.88,13.67,25.22,14.18,25.91,14.18Zm-.29,2.64a3.6,3.6,0,0,1-3-1.27,4.21,4.21,0,0,1-.8-2.64v-.77l.76-7.22A5.72,5.72,0,0,1,24,1.43,4.45,4.45,0,0,1,27.37.16a3.62,3.62,0,0,1,3.09,1.27,4.4,4.4,0,0,1,.76,2.65,8.21,8.21,0,0,1,0,.84l-.75,7.22A5.53,5.53,0,0,1,29,15.54,4.41,4.41,0,0,1,25.62,16.82Z"/><path class="cls-1" d="M34.7,10.36h2.38l.72-6.83Zm1.73,6.21.4-3.86H32l.27-2.53L37.45.37h3.47l-1,10h1.62l-.24,2.35H39.63l-.41,3.86Z"/><path class="cls-1" d="M.45,16.51l.23-2.14L5.22,8.28c.08-.12.24-.32.45-.6L6.16,7c.11-.15.25-.35.42-.61A4.08,4.08,0,0,0,7,5.75a5,5,0,0,0,.26-.67,4,4,0,0,0,.16-.75v-.4A1.58,1.58,0,0,0,7.18,3a.87.87,0,0,0-.79-.39H6.25c-.89.07-1.42.89-1.59,2.43l-.07.73h-3L1.7,5a7.73,7.73,0,0,1,.46-2,5.32,5.32,0,0,1,.91-1.55,3.75,3.75,0,0,1,1.47-1,5.38,5.38,0,0,1,2-.37,3.83,3.83,0,0,1,3.1,1.12,3.57,3.57,0,0,1,.79,2.43v.71a2.68,2.68,0,0,1-.1.61l-.13.55a4.17,4.17,0,0,1-.2.55l-.22.49A4.94,4.94,0,0,1,9.46,7l-.28.45A5.71,5.71,0,0,1,8.84,8l-.32.43c0,.08-.17.23-.36.47l-.34.44L4.15,14.1H8.93l-.25,2.41Z"/><path class="cls-1" d="M15.45,14.12c.81,0,1.29-.7,1.43-2.1l.74-7.09V4a2,2,0,0,0-.07-.47,1.76,1.76,0,0,0-.17-.37.77.77,0,0,0-.31-.28,1.21,1.21,0,0,0-.48-.09A1.15,1.15,0,0,0,16,2.9a1.09,1.09,0,0,0-.39.34,1.87,1.87,0,0,0-.25.53,4.65,4.65,0,0,0-.14.57,1.69,1.69,0,0,1-.08.59L14.45,12v.58C14.42,13.61,14.76,14.12,15.45,14.12Zm-.29,2.64a3.6,3.6,0,0,1-3.05-1.27,4.21,4.21,0,0,1-.8-2.64v-.77l.76-7.22a5.72,5.72,0,0,1,1.44-3.49A4.45,4.45,0,0,1,16.91.1,3.63,3.63,0,0,1,20,1.37,4.4,4.4,0,0,1,20.76,4a8.21,8.21,0,0,1,0,.84L20,12.08a5.53,5.53,0,0,1-1.48,3.4A4.41,4.41,0,0,1,15.16,16.76Z"/><path class="cls-1" d="M26,14.12q1.23,0,1.44-2.1l.74-7.09V4.44a3.83,3.83,0,0,0,0-.48,1.63,1.63,0,0,0-.06-.47A2.48,2.48,0,0,0,28,3.12a.8.8,0,0,0-.32-.28,1.14,1.14,0,0,0-.48-.09,1.11,1.11,0,0,0-.58.15,1.22,1.22,0,0,0-.4.34,2.2,2.2,0,0,0-.24.53,3.33,3.33,0,0,0-.14.57c0,.16-.06.36-.08.59L25,12v.58C24.94,13.61,25.28,14.12,26,14.12Zm-.28,2.64a3.6,3.6,0,0,1-3.06-1.27,4.27,4.27,0,0,1-.79-2.64,6.74,6.74,0,0,1,0-.77l.75-7.22a5.79,5.79,0,0,1,1.45-3.49A4.45,4.45,0,0,1,27.43.1a3.61,3.61,0,0,1,3.08,1.27A4.34,4.34,0,0,1,31.28,4a8.21,8.21,0,0,1,0,.84l-.76,7.22A5.48,5.48,0,0,1,29,15.48a4.39,4.39,0,0,1-3.32,1.28Z"/><path class="cls-1" d="M34.76,10.3h2.37l.73-6.83Zm1.73,6.21.4-3.86H32.06l.27-2.53L37.51.31H41l-1,10h1.62l-.25,2.35H39.68l-.41,3.86Z"/><path class="cls-1" d="M.51,16.45l.23-2.14L5.28,8.22q.12-.18.45-.6L6.22,7c.11-.15.25-.35.41-.61A5.15,5.15,0,0,0,7,5.69,5,5,0,0,0,7.27,5a3.38,3.38,0,0,0,.17-.75v-.4A1.71,1.71,0,0,0,7.24,3a.87.87,0,0,0-.79-.39H6.3c-.88.08-1.41.89-1.58,2.43l-.08.73h-3L1.76,5a7.73,7.73,0,0,1,.46-2,5.11,5.11,0,0,1,.91-1.55,3.71,3.71,0,0,1,1.46-1,5.45,5.45,0,0,1,2-.37A3.89,3.89,0,0,1,9.7,1.16a3.52,3.52,0,0,1,.78,2.43,5.85,5.85,0,0,1,0,.71,1.44,1.44,0,0,1-.09.61,3.71,3.71,0,0,0-.14.55A3.1,3.1,0,0,1,10,6c-.09.2-.16.37-.22.49A3.25,3.25,0,0,1,9.52,7l-.29.45c-.06.1-.17.25-.33.47s-.27.36-.32.44l-.36.46-.34.44L4.2,14H9l-.26,2.41Z"/><path class="cls-1" d="M15.5,14c.82,0,1.29-.7,1.44-2.1l.74-7.09V4.34a3.83,3.83,0,0,0,0-.48,1.63,1.63,0,0,0-.06-.47A1.81,1.81,0,0,0,17.48,3a.71.71,0,0,0-.31-.28,1.14,1.14,0,0,0-.48-.09,1.11,1.11,0,0,0-.58.15,1.36,1.36,0,0,0-.4.34,2.2,2.2,0,0,0-.24.53,3.33,3.33,0,0,0-.14.57c0,.17-.06.36-.08.59l-.74,7.09v.58C14.48,13.55,14.82,14,15.5,14Zm-.28,2.64a3.63,3.63,0,0,1-3.06-1.26,4.24,4.24,0,0,1-.79-2.65,6.74,6.74,0,0,1,0-.77l.75-7.22a5.79,5.79,0,0,1,1.45-3.49A4.42,4.42,0,0,1,17,0a3.61,3.61,0,0,1,3.08,1.27,4.33,4.33,0,0,1,.76,2.65,8.13,8.13,0,0,1,0,.84L20,12a5.53,5.53,0,0,1-1.48,3.41,4.42,4.42,0,0,1-3.3,1.27Z"/><path class="cls-1" d="M26,14q1.21,0,1.44-2.1l.74-7.09V3.9a1.33,1.33,0,0,0-.07-.47A1.76,1.76,0,0,0,28,3a.71.71,0,0,0-.31-.28,1.21,1.21,0,0,0-.48-.09,1.15,1.15,0,0,0-.59.15,1.31,1.31,0,0,0-.39.34,1.87,1.87,0,0,0-.24.53,4.91,4.91,0,0,0-.15.57c0,.17,0,.36-.07.59L25,12v.58C25,13.55,25.34,14,26,14Zm-.28,2.64a3.63,3.63,0,0,1-3.06-1.26,4.24,4.24,0,0,1-.79-2.65,6.74,6.74,0,0,1,0-.77l.75-7.22a5.84,5.84,0,0,1,1.44-3.49A4.45,4.45,0,0,1,27.48,0a3.62,3.62,0,0,1,3.09,1.27,4.33,4.33,0,0,1,.76,2.65,6.1,6.1,0,0,1,0,.84L30.53,12a5.53,5.53,0,0,1-1.48,3.41,4.42,4.42,0,0,1-3.31,1.27Z"/><path class="cls-1" d="M34.82,10.24h2.37l.72-6.83Zm1.73,6.21.4-3.86H32.11L32.39,10,37.56.25H41l-1,10h1.63l-.25,2.35H39.74l-.41,3.86Z"/><path class="cls-2" d="M.51,16.44.74,14.3,5.28,8.2l.45-.6L6.22,7a6.55,6.55,0,0,0,.41-.6A5.88,5.88,0,0,0,7,5.68,5.61,5.61,0,0,0,7.27,5a3.38,3.38,0,0,0,.17-.75v-.4A1.66,1.66,0,0,0,7.22,3a.87.87,0,0,0-.79-.39H6.3c-.88.07-1.41.88-1.58,2.43l-.08.72h-3L1.76,5a7.65,7.65,0,0,1,.46-2,5,5,0,0,1,.91-1.55,3.71,3.71,0,0,1,1.46-1,5.26,5.26,0,0,1,2-.37,3.89,3.89,0,0,1,3.11,1,3.53,3.53,0,0,1,.78,2.43,6,6,0,0,1,0,.72,1.46,1.46,0,0,1-.09.61,4,4,0,0,0-.14.55A3.8,3.8,0,0,1,10,6c-.09.2-.16.36-.22.48a3.26,3.26,0,0,1-.27.5l-.29.45-.33.47-.32.43c-.05.07-.17.23-.36.46l-.34.45L4.2,14H9l-.26,2.42Z"/><path class="cls-2" d="M15.22,16.69a3.6,3.6,0,0,1-3.06-1.27,4.22,4.22,0,0,1-.79-2.65,7,7,0,0,1,0-.77l.75-7.21A5.79,5.79,0,0,1,13.57,1.3,4.39,4.39,0,0,1,17,0a3.58,3.58,0,0,1,3.08,1.27,4.31,4.31,0,0,1,.76,2.65,8.39,8.39,0,0,1,0,.84L20,12a5.51,5.51,0,0,1-1.48,3.41A4.43,4.43,0,0,1,15.22,16.69ZM15.5,14c.82,0,1.29-.7,1.44-2.1l.74-7.09V4.35a3.83,3.83,0,0,0,0-.48,1.63,1.63,0,0,0-.06-.47A1.88,1.88,0,0,0,17.48,3a.63.63,0,0,0-.31-.27,1.14,1.14,0,0,0-.48-.09,1.21,1.21,0,0,0-.58.14,1.38,1.38,0,0,0-.4.35,2,2,0,0,0-.24.53,3.33,3.33,0,0,0-.14.57c0,.16-.06.36-.08.58l-.74,7.09v.59C14.48,13.54,14.82,14,15.5,14Z"/><path class="cls-2" d="M25.74,16.69a3.6,3.6,0,0,1-3.06-1.27,4.22,4.22,0,0,1-.79-2.65,7,7,0,0,1,0-.77l.75-7.21A5.84,5.84,0,0,1,24.08,1.3,4.42,4.42,0,0,1,27.48,0a3.59,3.59,0,0,1,3.09,1.27,4.31,4.31,0,0,1,.76,2.65,6.28,6.28,0,0,1,0,.84L30.53,12a5.51,5.51,0,0,1-1.48,3.41A4.43,4.43,0,0,1,25.74,16.69ZM26,14q1.21,0,1.44-2.1l.74-7.09V3.89a1.33,1.33,0,0,0-.07-.47A1.84,1.84,0,0,0,28,3a.63.63,0,0,0-.31-.27,1.21,1.21,0,0,0-.48-.09,1.25,1.25,0,0,0-.59.14,1.34,1.34,0,0,0-.39.35,1.75,1.75,0,0,0-.24.53,4.91,4.91,0,0,0-.15.57c0,.16,0,.36-.07.58L25,11.94v.59C25,13.54,25.34,14,26,14Z"/><path class="cls-2" d="M36.55,16.44l.4-3.86H32.11L32.39,10,37.56.23H41l-1,10h1.63l-.25,2.35H39.74l-.41,3.86Zm-1.73-6.21h2.37l.72-6.83Z"/></g></g></g></g></svg>