<svg xmlns="http://www.w3.org/2000/svg" viewBox="0 0 42.05 17.27"><defs><style>.cls-1{fill:#cf4137;}.cls-2{fill:#fff;}</style></defs><title>Asset 21</title><g id="Layer_2" data-name="Layer 2"><g id="Layer_1-2" data-name="Layer 1"><g id="Layer_2-2" data-name="Layer 2"><g id="Layer_1-2-2" data-name="Layer 1-2"><path class="cls-1" d="M0,17l.22-2.14,4.55-6.1q.12-.18.45-.6l.49-.64c.11-.15.24-.35.41-.61a5.88,5.88,0,0,0,.39-.68,5,5,0,0,0,.25-.67,3.35,3.35,0,0,0,.16-.75,2.75,2.75,0,0,0,0-.4,1.69,1.69,0,0,0-.21-.9.87.87,0,0,0-.79-.39H5.79c-.88.08-1.41.88-1.58,2.44l-.08.73h-3l.08-.76a8.17,8.17,0,0,1,.45-2A5.35,5.35,0,0,1,2.62,2,3.71,3.71,0,0,1,4.08,1a5.38,5.38,0,0,1,2-.37A3.89,3.89,0,0,1,9.19,1.72,3.52,3.52,0,0,1,10,4.15a5.85,5.85,0,0,1,0,.71,4.31,4.31,0,0,1-.1.61A2.11,2.11,0,0,1,9.77,6a3.1,3.1,0,0,1-.2.55c-.09.2-.16.37-.22.49A3.5,3.5,0,0,1,9,7.55L8.72,8c-.06.1-.17.25-.33.47l-.32.43-.36.47-.35.44L3.69,14.6H8.48L8.22,17Z"/><path class="cls-1" d="M15,14.62q1.22,0,1.44-2.1l.74-7.09v-1a1.33,1.33,0,0,0,0-.44,1.76,1.76,0,0,0-.14-.4.71.71,0,0,0-.31-.28,1.21,1.21,0,0,0-.48-.09,1.11,1.11,0,0,0-.58.15,1.13,1.13,0,0,0-.4.34,1.87,1.87,0,0,0-.24.53,4.91,4.91,0,0,0-.15.57c0,.17-.05.36-.07.59L14,12.52v.58C14,14.11,14.31,14.62,15,14.62Zm-.28,2.64A3.6,3.6,0,0,1,11.65,16a4.21,4.21,0,0,1-.79-2.64,6.74,6.74,0,0,1,0-.77l.75-7.22A5.79,5.79,0,0,1,13.1,1.87,4.42,4.42,0,0,1,16.46.6a3.61,3.61,0,0,1,3.08,1.27,4.33,4.33,0,0,1,.76,2.65,6.1,6.1,0,0,1,0,.84l-.75,7.22A5.48,5.48,0,0,1,18,16a4.39,4.39,0,0,1-3.29,1.24Z"/><path class="cls-1" d="M24.3,17,25.65,4l-2.53.8.24-2.26c.55-.21,1.17-.47,1.84-.79a5.47,5.47,0,0,0,1.48-1H29L27.33,17Z"/><path class="cls-1" d="M33.29,17l4.77-13.9H33.45l.23-2.3h7.59l-.21,2.07L36.24,17Z"/><path class="cls-1" d="M.09,16.95l.22-2.14L4.85,8.72l.46-.6.48-.64c.1-.14.25-.35.42-.61a5.88,5.88,0,0,0,.39-.68,6.94,6.94,0,0,0,.25-.67A3.35,3.35,0,0,0,7,4.77v-.4a1.66,1.66,0,0,0-.21-.9A.89.89,0,0,0,6,3.08H5.88C5,3.16,4.47,4,4.3,5.52l-.08.72h-3l.08-.76a7.76,7.76,0,0,1,.45-2A5.55,5.55,0,0,1,2.7,1.94a3.82,3.82,0,0,1,1.47-1,5.19,5.19,0,0,1,2-.37A3.86,3.86,0,0,1,9.28,1.66a3.62,3.62,0,0,1,.78,2.43V4.8a4.55,4.55,0,0,1-.1.61A2.11,2.11,0,0,1,9.83,6a3.42,3.42,0,0,1-.2.55c-.09.2-.17.36-.22.49a3.5,3.5,0,0,1-.28.49l-.28.45-.33.47-.33.43-.35.47-.35.44L3.78,14.54H8.56l-.25,2.41Z"/><path class="cls-1" d="M15.08,14.56c.81,0,1.29-.7,1.43-2.1l.74-7.09v-1a1.61,1.61,0,0,0-.07-.47A2.11,2.11,0,0,0,17,3.55a.68.68,0,0,0-.31-.27,1.21,1.21,0,0,0-.48-.09,1.25,1.25,0,0,0-.59.14,1.22,1.22,0,0,0-.39.35,1.75,1.75,0,0,0-.25.53,4.65,4.65,0,0,0-.14.57,5.77,5.77,0,0,1-.08.59L14,12.46V13C14.05,14,14.39,14.56,15.08,14.56Zm-.29,2.64a3.6,3.6,0,0,1-3-1.27A4.21,4.21,0,0,1,11,13.29a7,7,0,0,1,0-.78l.75-7.21a5.78,5.78,0,0,1,1.44-3.49A4.42,4.42,0,0,1,16.54.54a3.59,3.59,0,0,1,3.09,1.27,4.31,4.31,0,0,1,.76,2.65,5,5,0,0,1,0,.84l-.75,7.21a5.51,5.51,0,0,1-1.48,3.41A4.41,4.41,0,0,1,14.79,17.2Z"/><path class="cls-1" d="M24.38,16.95,25.74,4l-2.53.8.24-2.27a19.54,19.54,0,0,0,1.84-.79,5.4,5.4,0,0,0,1.48-1h2.35l-1.7,16.19Z"/><polygon class="cls-1" points="33.38 16.95 38.14 3.06 33.53 3.06 33.77 0.76 41.36 0.76 41.15 2.83 36.33 16.95 33.38 16.95"/><path class="cls-1" d="M.17,16.89.4,14.75l4.54-6.1L5.39,8l.49-.64a7,7,0,0,0,.42-.6,5.62,5.62,0,0,0,.38-.68c.09-.19.17-.42.26-.67a4,4,0,0,0,.16-.75v-.4a1.66,1.66,0,0,0-.22-.9A.87.87,0,0,0,6.11,3H6c-.88.07-1.41.88-1.58,2.43l-.08.72h-3l.07-.76a7.65,7.65,0,0,1,.46-2,5.19,5.19,0,0,1,.91-1.55,3.67,3.67,0,0,1,1.47-1,5.19,5.19,0,0,1,2-.37,3.84,3.84,0,0,1,3.1,1.1A3.55,3.55,0,0,1,10.14,4a6,6,0,0,1,0,.72,1.46,1.46,0,0,1-.09.61,2.85,2.85,0,0,0-.13.55,5.54,5.54,0,0,1-.2.55c-.1.2-.17.36-.22.48a4.89,4.89,0,0,1-.28.5l-.29.45c-.05.09-.17.25-.33.47l-.32.43c-.05.07-.17.23-.36.46l-.34.45L3.86,14.47H8.65L8.4,16.89Z"/><path class="cls-1" d="M15.16,14.49q1.23,0,1.44-2.1l.74-7.09v-1a2,2,0,0,0-.07-.47,2.59,2.59,0,0,0-.17-.38.71.71,0,0,0-.32-.27,1.14,1.14,0,0,0-.48-.09,1.11,1.11,0,0,0-.58.14,1.38,1.38,0,0,0-.4.35,2,2,0,0,0-.24.53,3.12,3.12,0,0,0-.08.57,5.28,5.28,0,0,1-.08.58l-.74,7.09V13C14.14,14,14.48,14.49,15.16,14.49Zm-.28,2.65a3.6,3.6,0,0,1-3.06-1.27A4.28,4.28,0,0,1,11,13.22v-.77l.75-7.21A5.79,5.79,0,0,1,13.2,1.75,4.42,4.42,0,0,1,16.63.48a3.58,3.58,0,0,1,3.08,1.27,4.3,4.3,0,0,1,.77,2.65,5,5,0,0,1,0,.84l-.75,7.21a5.56,5.56,0,0,1-1.48,3.41A4.47,4.47,0,0,1,14.88,17.14Z"/><path class="cls-1" d="M24.47,16.89l1.36-13-2.53.8.23-2.27a17.53,17.53,0,0,0,1.84-.79,5.1,5.1,0,0,0,1.48-1h2.36l-1.7,16.2Z"/><polygon class="cls-1" points="33.46 16.89 38.23 3 33.62 3 33.85 0.69 41.44 0.69 41.24 2.77 36.41 16.89 33.46 16.89"/><path class="cls-1" d="M.26,16.82l.22-2.13L5,8.59q.12-.18.45-.6L6,7.35c.11-.14.24-.34.41-.6a6.85,6.85,0,0,0,.39-.68A5.61,5.61,0,0,0,7,5.4a3.6,3.6,0,0,0,.16-.75,2.89,2.89,0,0,0,0-.4A1.66,1.66,0,0,0,7,3.35.87.87,0,0,0,6.21,3H6.05c-.88.07-1.41.88-1.58,2.43l-.08.72h-3l.08-.76a8.09,8.09,0,0,1,.45-2,5.27,5.27,0,0,1,.92-1.56A3.81,3.81,0,0,1,4.3.79a5.38,5.38,0,0,1,2-.36,3.85,3.85,0,0,1,3.15,1.1A3.57,3.57,0,0,1,10.23,4a6,6,0,0,1,0,.72,4.55,4.55,0,0,1-.1.61,2.33,2.33,0,0,1-.13.55,3.34,3.34,0,0,1-.2.54c-.09.21-.16.37-.22.49a3.5,3.5,0,0,1-.28.5L9,7.81c-.06.1-.17.25-.33.47l-.32.44L8,9.18l-.35.45L4,14.41H8.74l-.26,2.41Z"/><path class="cls-1" d="M15.25,14.43q1.21,0,1.44-2.1l.74-7.09v-1a1.27,1.27,0,0,0-.07-.46,1.84,1.84,0,0,0-.17-.38.63.63,0,0,0-.31-.27,1.06,1.06,0,0,0-.48-.1,1.09,1.09,0,0,0-.58.15,1.15,1.15,0,0,0-.4.35,1.8,1.8,0,0,0-.24.52,4.55,4.55,0,0,0-.15.58c0,.16-.05.35-.07.58l-.75,7.09v.59C14.22,13.93,14.57,14.43,15.25,14.43ZM15,17.08a3.63,3.63,0,0,1-3.06-1.27,4.22,4.22,0,0,1-.79-2.65,6.85,6.85,0,0,1,0-.77l.75-7.22a5.76,5.76,0,0,1,1.45-3.48A4.38,4.38,0,0,1,16.71.42,3.59,3.59,0,0,1,19.8,1.69a4.28,4.28,0,0,1,.76,2.64,6.1,6.1,0,0,1,0,.84l-.75,7.22a5.51,5.51,0,0,1-1.48,3.41A4.43,4.43,0,0,1,15,17.08Z"/><path class="cls-1" d="M24.56,16.82l1.35-13-2.53.81.24-2.27c.55-.2,1.17-.47,1.84-.79a5.47,5.47,0,0,0,1.48-1h2.35l-1.7,16.25Z"/><polygon class="cls-1" points="33.55 16.82 38.32 2.94 33.71 2.94 33.94 0.63 41.53 0.63 41.32 2.7 36.5 16.82 33.55 16.82"/><path class="cls-1" d="M.35,16.76l.22-2.14L5.11,8.53l.46-.6.48-.64c.11-.14.25-.35.42-.61A5.15,5.15,0,0,0,6.86,6c.08-.19.17-.41.25-.66a3.56,3.56,0,0,0,.16-.76V4.2a1.62,1.62,0,0,0-.22-.9.86.86,0,0,0-.79-.39H6.14C5.25,3,4.72,3.8,4.56,5.35L4.48,6h-3l.08-.76a7.74,7.74,0,0,1,.45-2A5.55,5.55,0,0,1,3,1.75a3.93,3.93,0,0,1,1.47-1,5.2,5.2,0,0,1,2-.36A3.85,3.85,0,0,1,9.54,1.47a3.62,3.62,0,0,1,.78,2.43v.71a4.09,4.09,0,0,1-.1.61l-.13.56a3.34,3.34,0,0,1-.2.54l-.22.49a4.94,4.94,0,0,1-.28.49l-.28.45c-.06.1-.17.25-.33.47l-.33.44-.35.46c-.19.24-.3.39-.35.44L4,14.35H8.82l-.25,2.41Z"/><path class="cls-1" d="M15.34,14.37c.81,0,1.29-.7,1.43-2.1l.74-7.09v-1a2,2,0,0,0-.07-.47,1.76,1.76,0,0,0-.17-.37A.77.77,0,0,0,17,3.09,1.21,1.21,0,0,0,16.53,3a1.15,1.15,0,0,0-.59.15,1.2,1.2,0,0,0-.39.34A1.87,1.87,0,0,0,15.3,4a4.65,4.65,0,0,0-.14.57,5.42,5.42,0,0,1-.08.59l-.74,7.09v.59C14.31,13.86,14.65,14.37,15.34,14.37ZM15.05,17A3.62,3.62,0,0,1,12,15.75a4.24,4.24,0,0,1-.79-2.65v-.77L12,5.11a5.72,5.72,0,0,1,1.44-3.49A4.45,4.45,0,0,1,16.8.36a3.61,3.61,0,0,1,3.09,1.26,4.33,4.33,0,0,1,.76,2.65,8.21,8.21,0,0,1,0,.84l-.75,7.22a5.53,5.53,0,0,1-1.48,3.41A4.45,4.45,0,0,1,15.05,17Z"/><path class="cls-1" d="M24.64,16.76,26,3.79l-2.53.8.24-2.26c.55-.2,1.16-.47,1.84-.79A5.63,5.63,0,0,0,27,.57h2.35l-1.7,16.19Z"/><polygon class="cls-1" points="33.64 16.76 38.4 2.87 33.79 2.87 34.03 0.57 41.62 0.57 41.41 2.64 36.59 16.76 33.64 16.76"/><path class="cls-1" d="M.43,16.7l.23-2.14L5.2,8.47q.12-.18.45-.6l.49-.64c.11-.15.25-.35.42-.61a5.62,5.62,0,0,0,.38-.68,6.77,6.77,0,0,0,.26-.67,4,4,0,0,0,.16-.75v-.4a1.66,1.66,0,0,0-.22-.9.87.87,0,0,0-.79-.39H6.22c-.88.07-1.41.88-1.58,2.43L4.56,6h-3l.08-.77a7.75,7.75,0,0,1,.46-2A5.32,5.32,0,0,1,3,1.7,3.71,3.71,0,0,1,4.47.7,5.47,5.47,0,0,1,6.56.28,3.85,3.85,0,0,1,9.62,1.41a3.52,3.52,0,0,1,.78,2.43,5.85,5.85,0,0,1,0,.71,1.44,1.44,0,0,1-.09.61l-.13.55a3.2,3.2,0,0,1-.21.55c-.09.2-.16.36-.21.49a4.94,4.94,0,0,1-.28.49l-.29.45c-.05.09-.17.25-.33.47l-.32.43c-.05.08-.17.23-.36.47l-.34.44L4.12,14.29H8.91L8.66,16.7Z"/><path class="cls-1" d="M15.42,14.31q1.23,0,1.44-2.1l.74-7.09V4.63a3.83,3.83,0,0,0,0-.48,1.63,1.63,0,0,0-.06-.47,2.48,2.48,0,0,0-.17-.37A.67.67,0,0,0,17.09,3a1.14,1.14,0,0,0-.48-.09,1.11,1.11,0,0,0-.58.15,1.22,1.22,0,0,0-.4.34,2.2,2.2,0,0,0-.24.53,3.33,3.33,0,0,0-.14.57,5.77,5.77,0,0,1-.08.59l-.74,7.09v.58C14.4,13.8,14.74,14.31,15.42,14.31Zm-.28,2.64a3.6,3.6,0,0,1-3.06-1.27A4.27,4.27,0,0,1,11.29,13v-.77L12.08,5a5.79,5.79,0,0,1,1.45-3.49A4.45,4.45,0,0,1,16.89.29,3.61,3.61,0,0,1,20,1.56a4.34,4.34,0,0,1,.77,2.65,8.21,8.21,0,0,1,0,.84L20,12.27a5.55,5.55,0,0,1-1.47,3.4A4.43,4.43,0,0,1,15.14,16.95Z"/><path class="cls-1" d="M24.73,16.7l1.36-13-2.53.8.23-2.26c.56-.21,1.17-.47,1.84-.8a5.1,5.1,0,0,0,1.48-1h2.36l-1.7,16.19Z"/><polygon class="cls-1" points="33.72 16.7 38.49 2.81 33.88 2.81 34.12 0.51 41.7 0.51 41.5 2.58 36.67 16.7 33.72 16.7"/><path class="cls-1" d="M.52,16.64.74,14.5,5.29,8.4l.45-.6.49-.64c.1-.14.24-.34.41-.6A5.88,5.88,0,0,0,7,5.88a5,5,0,0,0,.25-.67,3.35,3.35,0,0,0,.16-.75,2.82,2.82,0,0,0,0-.4,1.66,1.66,0,0,0-.21-.9.88.88,0,0,0-.79-.39h-.1c-.88.07-1.41.88-1.58,2.43l-.08.72h-3l.08-.76a8.2,8.2,0,0,1,.45-2A5.22,5.22,0,0,1,3.1,1.61a3.71,3.71,0,0,1,1.5-1,5.19,5.19,0,0,1,2-.37A3.85,3.85,0,0,1,9.71,1.34a3.61,3.61,0,0,1,.78,2.44,6,6,0,0,1,0,.71,4.55,4.55,0,0,1-.1.61,2.22,2.22,0,0,1-.13.55,3.42,3.42,0,0,1-.2.55l-.22.49a4.18,4.18,0,0,1-.28.49l-.28.45-.33.47-.32.43L8.23,9l-.35.44L4.21,14.23H9l-.26,2.41Z"/><path class="cls-1" d="M15.51,14.24c.81,0,1.29-.7,1.44-2.09L17.69,5V4.09a1.33,1.33,0,0,0-.07-.47,1.84,1.84,0,0,0-.17-.38A.63.63,0,0,0,17.18,3a1.21,1.21,0,0,0-.48-.09,1.18,1.18,0,0,0-.58.14,1.26,1.26,0,0,0-.4.35,1.75,1.75,0,0,0-.24.53,4.91,4.91,0,0,0-.15.57c0,.16-.05.36-.07.59l-.75,7.09v.58C14.48,13.74,14.83,14.24,15.51,14.24Zm-.28,2.65a3.6,3.6,0,0,1-3.06-1.27,4.21,4.21,0,0,1-.79-2.6,7,7,0,0,1,0-.78L12.17,5a5.79,5.79,0,0,1,1.45-3.49A4.38,4.38,0,0,1,17,.23,3.59,3.59,0,0,1,20.09,1.5a4.31,4.31,0,0,1,.76,2.65,6.28,6.28,0,0,1,0,.84L20,12.2a5.51,5.51,0,0,1-1.48,3.41A4.43,4.43,0,0,1,15.23,16.89Z"/><path class="cls-1" d="M24.82,16.64l1.35-13-2.53.8.24-2.27a18.48,18.48,0,0,0,1.84-.79,5.25,5.25,0,0,0,1.48-1h2.35l-1.7,16.19Z"/><polygon class="cls-1" points="33.81 16.64 38.58 2.75 33.97 2.75 34.2 0.45 41.79 0.45 41.58 2.52 36.76 16.64 33.81 16.64"/><path class="cls-1" d="M.61,16.58l.22-2.14,4.54-6.1.46-.6c.21-.28.38-.49.48-.64s.25-.34.42-.6a4.52,4.52,0,0,0,.38-.68,5.54,5.54,0,0,0,.26-.67,3.47,3.47,0,0,0,.16-.75V4a1.58,1.58,0,0,0-.22-.9.86.86,0,0,0-.79-.39H6.4c-.89.07-1.42.88-1.58,2.43l-.08.72h-3l.08-.76a7.66,7.66,0,0,1,.45-2,5.07,5.07,0,0,1,.91-1.55,3.82,3.82,0,0,1,1.47-1,5.19,5.19,0,0,1,2-.37A3.85,3.85,0,0,1,9.8,1.28a3.62,3.62,0,0,1,.78,2.43v.72a4.55,4.55,0,0,1-.1.61,2.22,2.22,0,0,1-.13.55,3.8,3.8,0,0,1-.2.55c-.09.2-.17.36-.22.48a4.89,4.89,0,0,1-.28.5l-.28.45c-.06.09-.17.25-.34.46l-.32.44-.35.46L8,9.38,4.3,14.16H9.08l-.25,2.42Z"/><path class="cls-1" d="M15.6,14.18c.81,0,1.29-.7,1.43-2.1L17.77,5v-1a2,2,0,0,0-.07-.47,1.84,1.84,0,0,0-.17-.38.68.68,0,0,0-.31-.27,1.21,1.21,0,0,0-.48-.09,1.15,1.15,0,0,0-.59.14,1.22,1.22,0,0,0-.39.35,1.75,1.75,0,0,0-.25.53,3.91,3.91,0,0,0-.14.57,5.28,5.28,0,0,1-.08.58l-.74,7.09v.59C14.57,13.68,14.91,14.18,15.6,14.18Zm-.29,2.65a3.6,3.6,0,0,1-3.05-1.27,4.22,4.22,0,0,1-.79-2.65v-.77l.76-7.22A5.69,5.69,0,0,1,13.7,1.44,4.42,4.42,0,0,1,17.06.17a3.59,3.59,0,0,1,3.09,1.27,4.35,4.35,0,0,1,.76,2.64,8.21,8.21,0,0,1,0,.84l-.75,7.22a5.51,5.51,0,0,1-1.48,3.41A4.45,4.45,0,0,1,15.31,16.83Z"/><path class="cls-1" d="M24.9,16.58l1.36-13-2.53.8L24,2.14a19.54,19.54,0,0,0,1.84-.79,5.39,5.39,0,0,0,1.48-1h2.35L28,16.55Z"/><polygon class="cls-1" points="33.9 16.57 38.66 2.69 34.05 2.69 34.29 0.38 41.88 0.38 41.67 2.45 36.85 16.57 33.9 16.57"/><path class="cls-1" d="M.69,16.51l.23-2.14L5.46,8.28q.12-.18.45-.6L6.4,7a7.37,7.37,0,0,0,.42-.61,5.59,5.59,0,0,0,.38-.67c.09-.2.17-.42.26-.67a4.39,4.39,0,0,0,.16-.75V3.91A1.65,1.65,0,0,0,7.42,3a.87.87,0,0,0-.79-.39H6.48c-.88.07-1.41.88-1.58,2.43l-.08.72h-3L1.94,5A7.65,7.65,0,0,1,2.4,3a5.25,5.25,0,0,1,.91-1.56,3.81,3.81,0,0,1,1.46-1,5.28,5.28,0,0,1,2-.36A3.84,3.84,0,0,1,9.88,1.22a3.52,3.52,0,0,1,.78,2.43,5.74,5.74,0,0,1,0,.71,6,6,0,0,1-.09.61,1.92,1.92,0,0,1-.14.56,2.6,2.6,0,0,1-.2.54c-.09.21-.16.37-.22.49A2.83,2.83,0,0,1,9.7,7l-.29.45c-.06.1-.17.25-.33.47l-.32.44-.36.46-.34.45L4.38,14.1H9.17l-.25,2.41Z"/><path class="cls-1" d="M15.68,14.12q1.23,0,1.44-2.1l.74-7.09V4.44a3.81,3.81,0,0,0,0-.48,1.56,1.56,0,0,0-.06-.46,2.59,2.59,0,0,0-.17-.38.71.71,0,0,0-.32-.27,1,1,0,0,0-.48-.1,1.11,1.11,0,0,0-.58.15,1.25,1.25,0,0,0-.4.35,2,2,0,0,0-.24.52,3.33,3.33,0,0,0-.14.57c0,.17-.06.36-.08.59L14.69,12v.59C14.66,13.62,15,14.12,15.68,14.12Zm-.28,2.65a3.63,3.63,0,0,1-3.06-1.27,4.3,4.3,0,0,1-.79-2.65v-.77l.75-7.22a5.73,5.73,0,0,1,1.45-3.48A4.42,4.42,0,0,1,17.15.11a3.58,3.58,0,0,1,3.08,1.27A4.29,4.29,0,0,1,21,4a8.21,8.21,0,0,1,0,.84l-.76,7.22a5.58,5.58,0,0,1-1.47,3.41A4.47,4.47,0,0,1,15.4,16.77Z"/><path class="cls-1" d="M25,16.51l1.36-13-2.53.8L24.06,2a19.94,19.94,0,0,0,1.84-.79,5.31,5.31,0,0,0,1.48-1h2.36L28,16.51Z"/><polygon class="cls-1" points="33.98 16.51 38.75 2.63 34.14 2.63 34.37 0.32 41.96 0.32 41.76 2.39 36.93 16.51 33.98 16.51"/><path class="cls-1" d="M.78,16.45,1,14.31,5.54,8.22,6,7.62,6.49,7l.41-.61a5.15,5.15,0,0,0,.39-.68A5,5,0,0,0,7.54,5a3.35,3.35,0,0,0,.16-.75,2.75,2.75,0,0,0,0-.4A1.69,1.69,0,0,0,7.51,3a.88.88,0,0,0-.79-.39H6.57C5.69,2.66,5.16,3.48,5,5l-.08.73H2V5a8.17,8.17,0,0,1,.45-2,5.35,5.35,0,0,1,1-1.58,3.71,3.71,0,0,1,1.46-1A5.38,5.38,0,0,1,6.9,0,3.89,3.89,0,0,1,10,1.16a3.52,3.52,0,0,1,.78,2.43,5.74,5.74,0,0,1,0,.71,4.31,4.31,0,0,1-.1.61,2.11,2.11,0,0,1-.13.55,3.1,3.1,0,0,1-.2.55c-.09.2-.16.37-.22.49A3.5,3.5,0,0,1,9.78,7l-.28.45c-.06.1-.17.25-.33.47s-.27.36-.32.44l-.36.46-.35.44L4.47,14H9.26L9,16.45Z"/><path class="cls-1" d="M15.77,14q1.21,0,1.44-2.1l.79-7v-1a1.33,1.33,0,0,0-.07-.47A1.76,1.76,0,0,0,17.75,3a.71.71,0,0,0-.31-.28,1.21,1.21,0,0,0-.44,0,1.09,1.09,0,0,0-.58.15,1.24,1.24,0,0,0-.4.34,1.87,1.87,0,0,0-.24.53,4.91,4.91,0,0,0-.15.57c0,.17-.05.36-.07.59L14.81,12v.58C14.74,13.55,15.09,14,15.77,14Zm-.28,2.64a3.63,3.63,0,0,1-3.06-1.26,4.26,4.26,0,0,1-.79-2.65,6.74,6.74,0,0,1,0-.77l.75-7.22a5.79,5.79,0,0,1,1.45-3.49A4.42,4.42,0,0,1,17.23,0a3.62,3.62,0,0,1,3.09,1.27,4.33,4.33,0,0,1,.76,2.65,6.1,6.1,0,0,1,0,.84L20.28,12a5.53,5.53,0,0,1-1.48,3.41,4.42,4.42,0,0,1-3.31,1.27Z"/><path class="cls-1" d="M25.08,16.45l1.35-13-2.53.8L24.14,2c.55-.21,1.17-.47,1.84-.79a5.47,5.47,0,0,0,1.48-1h2.35l-1.7,16.19Z"/><path class="cls-1" d="M34.07,16.45,38.84,2.56H34.23l.23-2.3H42l-.21,2.07L37,16.45Z"/><path class="cls-2" d="M.78,16.44,1,14.3,5.54,8.2,6,7.6,6.49,7c.1-.14.24-.34.41-.6a5.88,5.88,0,0,0,.39-.68A5.61,5.61,0,0,0,7.54,5a3.35,3.35,0,0,0,.16-.75,2.89,2.89,0,0,0,0-.4A1.66,1.66,0,0,0,7.49,3a.88.88,0,0,0-.79-.39H6.57C5.69,2.65,5.16,3.46,5,5l-.08.72H2V5a8.09,8.09,0,0,1,.45-2,5.22,5.22,0,0,1,1-1.59,3.71,3.71,0,0,1,1.46-1A5.19,5.19,0,0,1,6.9,0,3.89,3.89,0,0,1,10,1.14a3.55,3.55,0,0,1,.78,2.43,6,6,0,0,1,0,.72,4.55,4.55,0,0,1-.1.61,2.22,2.22,0,0,1-.13.55,3.8,3.8,0,0,1-.2.55c-.09.2-.16.36-.22.48a3.5,3.5,0,0,1-.28.5l-.28.45-.33.47-.32.43-.36.46-.35.45L4.47,14H9.26L9,16.44Z"/><path class="cls-2" d="M15.49,16.69a3.6,3.6,0,0,1-3.06-1.27,4.22,4.22,0,0,1-.79-2.65,7,7,0,0,1,0-.77l.75-7.21A5.79,5.79,0,0,1,13.84,1.3,4.38,4.38,0,0,1,17.23,0a3.59,3.59,0,0,1,3.09,1.27,4.29,4.29,0,0,1,.76,2.65,6.28,6.28,0,0,1,0,.84L20.28,12a5.51,5.51,0,0,1-1.48,3.41A4.43,4.43,0,0,1,15.49,16.69ZM15.77,14q1.21,0,1.44-2.1L18,4.85v-1a1.29,1.29,0,0,0-.07-.47,1.84,1.84,0,0,0-.18-.4.63.63,0,0,0-.31-.27A1.21,1.21,0,0,0,17,2.68a1.18,1.18,0,0,0-.58.14,1.26,1.26,0,0,0-.4.35,1.75,1.75,0,0,0-.24.53,4.44,4.44,0,0,0-.15.57c0,.16-.05.36-.07.58l-.75,7.09v.59C14.74,13.54,15.09,14,15.77,14Z"/><path class="cls-2" d="M25.08,16.44l1.35-13-2.53.8L24.14,2A18.48,18.48,0,0,0,26,1.21a5.24,5.24,0,0,0,1.48-1h2.35l-1.7,16.2Z"/><path class="cls-2" d="M34.07,16.44,38.84,2.55H34.23L34.46.24H42l-.21,2.07L37,16.44Z"/></g></g></g></g></svg>