<svg xmlns="http://www.w3.org/2000/svg" viewBox="0 0 120.12 120.12"><defs><style>.cls-1{fill:#c59d50;}.cls-2{fill:#fff;}</style></defs><title>Theme 2</title><g id="Layer_2" data-name="Layer 2"><g id="Layer_1-2" data-name="Layer 1"><circle class="cls-1" cx="60.06" cy="60.06" r="60.06"/><path class="cls-2" d="M62.8,11.08c.86.12,1.73.21,2.59.36a16.71,16.71,0,0,1,6.11,2.22,11.39,11.39,0,0,1,3.14,2.81,10.81,10.81,0,0,1,2.13,6.19,9.66,9.66,0,0,1-1.42,5.67,14.08,14.08,0,0,1-2.45,2.94,45.86,45.86,0,0,1-5.21,4,7.84,7.84,0,0,0-3,4,7,7,0,0,1-1,1.84,2.94,2.94,0,0,1-2.18,1A3.9,3.9,0,0,1,56.89,38a7.29,7.29,0,0,1,2-4.8,36,36,0,0,1,4.73-4.07,13.46,13.46,0,0,0,3.2-3.32,5.26,5.26,0,0,0-1-6.49,5.75,5.75,0,0,0-2.62-1.13,8.51,8.51,0,0,0-4,.23A5.44,5.44,0,0,0,56,21.29c-.39.76-.75,1.54-1.13,2.29a4.8,4.8,0,0,1-1.49,1.82,4.34,4.34,0,0,1-3.35.55A3.76,3.76,0,0,1,48.15,25a3.53,3.53,0,0,1-1.06-2.73,8.8,8.8,0,0,1,1.6-4.88,14.33,14.33,0,0,1,6.77-5.19,17.46,17.46,0,0,1,4.61-1.07l.21-.05Z"/><path class="cls-2" d="M60.35,56.15a15.85,15.85,0,0,1-2-.78,5,5,0,0,1-1.84-6.44,5,5,0,1,1,8,5.77,5.23,5.23,0,0,1-2.63,1.37l-.24.08Z"/><path class="cls-2" d="M91.19,100.55A2.72,2.72,0,0,1,88,101.86c-7.28-1.59-14.59-2.1-21.94-.52-.07,0-.15,0-.33-.11a18.59,18.59,0,0,1,8.74-4.43A39.47,39.47,0,0,1,81.29,96c3.88-.17,6.1-2.3,6.11-6.23q0-12.57,0-25.14V63.07c1.64-.41,2.92-.15,3.79,1.32Z"/><path class="cls-2" d="M30,64.39c1.08-1.48,1.47-1.63,3.78-1.36v1.41c0,8.37.12,16.74,0,25.11A6.1,6.1,0,0,0,40.13,96a22.66,22.66,0,0,1,14.69,4.67c.2.16.39.35.68.6-2.23-.25-4.31-.53-6.39-.71a52.55,52.55,0,0,0-15.62,1.25c-1.5.32-2.65.12-3.47-1.24Z"/><path class="cls-2" d="M62.34,99.55V98.1c0-10.65,0-21.3,0-31.94a5,5,0,0,1,.86-2.74c3-4.29,7.33-6.48,12.33-7.45a40.68,40.68,0,0,1,5.52-.59C83.27,55.26,84,56,84,58.13c0,4.58,0,9.15,0,13.73q0,8.76,0,17.53c0,2.43-.51,3-2.89,3.06-6.17.29-12,1.58-17,5.58C63.59,98.45,63.09,98.91,62.34,99.55Z"/><path class="cls-2" d="M58.86,99.61a23.89,23.89,0,0,0-8.4-5.29,35.37,35.37,0,0,0-10.63-1.88c-1.9-.08-2.59-.69-2.59-2.52q0-16,0-32c0-1.82.76-2.55,2.57-2.52,5.4.08,10.5,1.2,14.86,4.61A21.79,21.79,0,0,1,57,62.1a6.76,6.76,0,0,1,2,5.1c-.11,10.22,0,20.45,0,30.68Z"/></g></g></svg>